<?xml version="1.0" encoding="UTF-8" standalone="no"?>
<!-- Created with Inkscape (http://www.inkscape.org/) -->

<svg
   xmlns:dc="http://purl.org/dc/elements/1.1/"
   xmlns:cc="http://creativecommons.org/ns#"
   xmlns:rdf="http://www.w3.org/1999/02/22-rdf-syntax-ns#"
   xmlns:svg="http://www.w3.org/2000/svg"
   xmlns="http://www.w3.org/2000/svg"
   xmlns:xlink="http://www.w3.org/1999/xlink"
   xmlns:sodipodi="http://sodipodi.sourceforge.net/DTD/sodipodi-0.dtd"
   xmlns:inkscape="http://www.inkscape.org/namespaces/inkscape"
   width="135.44946mm"
   height="135.46719mm"
   viewBox="0 0 135.44946 135.46719"
   version="1.1"
   id="svg8"
   inkscape:version="0.92.3 (2405546, 2018-03-11)"
   sodipodi:docname="async.svg">
  <defs
     id="defs2">
    <circle
       r="94.073997"
       cy="94.074997"
       cx="94.073997"
       id="SVGID_1_" />
    <circle
       r="94.073997"
       cy="94.073997"
       cx="94.073997"
       id="SVGID_1_-6" />
  </defs>
  <sodipodi:namedview
     id="base"
     pagecolor="#ffffff"
     bordercolor="#666666"
     borderopacity="1.0"
     inkscape:pageopacity="0.0"
     inkscape:pageshadow="2"
     inkscape:zoom="0.35"
     inkscape:cx="776.89147"
     inkscape:cy="175.51402"
     inkscape:document-units="mm"
     inkscape:current-layer="layer1"
     showgrid="false"
     inkscape:window-width="1440"
     inkscape:window-height="837"
     inkscape:window-x="-8"
     inkscape:window-y="-8"
     inkscape:window-maximized="1"
     fit-margin-top="0"
     fit-margin-left="0"
     fit-margin-right="0"
     fit-margin-bottom="0" />
  <metadata
     id="metadata5">
    <rdf:RDF>
      <cc:Work
         rdf:about="">
        <dc:format>image/svg+xml</dc:format>
        <dc:type
           rdf:resource="http://purl.org/dc/dcmitype/StillImage" />
        <dc:title></dc:title>
      </cc:Work>
    </rdf:RDF>
  </metadata>
  <g
     inkscape:label="Layer 1"
     inkscape:groupmode="layer"
     id="layer1"
     transform="translate(-37.275266,-80.766403)">
    <g
       id="g897"
       transform="matrix(0.26458333,0,0,0.26458333,37.266535,80.766403)"
       inkscape:export-xdpi="298.685"
       inkscape:export-ydpi="298.685">
      <path
         id="path815"
         d="M 469.973,403.865 H 42.028 c -17.671,0 -31.996,-14.325 -31.996,-31.996 V 41.995 c 0,-17.671 14.325,-31.996 31.996,-31.996 h 427.945 c 17.671,0 31.996,14.325 31.996,31.996 v 329.874 c 0,17.671 -14.325,31.996 -31.996,31.996 z"
         style="fill:#f0f0fa"
         inkscape:connector-curvature="0" />
      <path
         id="path817"
         d="M 417.98,359.871 H 94.021 c -22.088,0 -39.995,-17.907 -39.995,-39.995 V 93.988 C 54.026,71.9 71.933,53.993 94.021,53.993 H 417.98 c 22.088,0 39.995,17.907 39.995,39.995 v 225.888 c -0.001,22.088 -17.907,39.995 -39.995,39.995 z"
         style="fill:#c8f5ff"
         inkscape:connector-curvature="0" />
      <path
         id="path819"
         d="m 327.295,502.001 -14.471,-9.649 c -18.192,-12.128 -29.117,-32.546 -29.117,-54.41 v -34.079 h -55.412 v 34.079 c 0,21.864 -10.927,42.282 -29.117,54.41 z"
         style="fill:#878791"
         inkscape:connector-curvature="0" />
      <path
         id="path825"
         d="M 469.973,0 H 42.028 C 18.872,0 0.033,18.839 0.033,41.995 v 329.874 c 0,23.156 18.839,41.995 41.995,41.995 h 176.268 v 24.08 c 0,18.563 -9.221,35.793 -24.665,46.091 l -11.952,7.969 H 94.777 c -5.522,0 -9.999,4.476 -9.999,9.999 0,5.523 4.476,9.999 9.999,9.999 h 321.959 c 5.522,0 9.999,-4.476 9.999,-9.999 0,-5.523 -4.476,-9.999 -9.999,-9.999 h -86.414 l -11.952,-7.969 c -15.445,-10.298 -24.665,-27.528 -24.665,-46.091 v -24.08 h 176.268 c 23.156,0 41.995,-18.839 41.995,-41.995 V 41.995 C 511.968,18.839 493.129,0 469.973,0 Z M 296.541,492.003 H 215.46 c 14.483,-14.057 22.833,-33.455 22.833,-54.06 v -24.08 h 35.414 v 24.08 c 0,20.605 8.351,40.002 22.834,54.06 z M 491.97,371.869 c 0,12.129 -9.868,21.997 -21.997,21.997 H 42.028 c -12.129,0 -21.997,-9.868 -21.997,-21.997 V 41.995 c 0,-12.129 9.868,-21.997 21.997,-21.997 h 427.945 c 12.129,0 21.997,9.868 21.997,21.997 z"
         inkscape:connector-curvature="0" />
      <path
         id="path827"
         d="M 417.98,43.994 H 290.996 c -5.522,0 -9.999,4.476 -9.999,9.999 0,5.523 4.476,9.999 9.999,9.999 H 417.98 c 16.54,0 29.996,13.456 29.996,29.996 v 225.888 c 0,16.54 -13.456,29.996 -29.996,29.996 H 94.021 c -16.54,0 -29.996,-13.456 -29.996,-29.996 V 93.988 c 0,-16.54 13.456,-29.996 29.996,-29.996 h 125.984 c 5.522,0 9.999,-4.476 9.999,-9.999 0,-5.523 -4.476,-9.999 -9.999,-9.999 H 94.021 c -27.566,0 -49.994,22.427 -49.994,49.994 v 225.888 c 0,27.566 22.427,49.994 49.994,49.994 H 417.98 c 27.566,0 49.994,-22.427 49.994,-49.994 V 93.988 C 467.973,66.421 445.546,43.994 417.98,43.994 Z"
         inkscape:connector-curvature="0" />
      <path
         id="path831"
         d="m 121.76492,299.33837 c -16.54,0 -20.14701,1.33417 -20.14701,17.87417 0,16.54 7.64762,14.84371 21.66224,16.61148 12.93153,1.63115 16.8254,-0.53132 27.26585,-6.86502 h 257.101 c 5.522,0 9.999,-4.476 9.999,-9.999 0,-5.522 -4.476,-9.999 -9.999,-9.999 H 150.546 c -10.94553,-8.60654 -15.74608,-7.62263 -28.78108,-7.62263 z M 122.27,326.959 c -5.513,0 -9.999,-4.485 -9.999,-9.999 0,-5.513 4.485,-9.999 9.999,-9.999 5.513,0 9.999,4.485 9.999,9.999 -0.001,5.514 -4.485,9.999 -9.999,9.999 z"
         inkscape:connector-curvature="0"
         sodipodi:nodetypes="ssscssscsssscs" />
      <path
         id="path833"
         d="m 256,63.992 c 2.63,0 5.209,-1.07 7.069,-2.93 1.86,-1.86 2.93,-4.439 2.93,-7.069 0,-2.63 -1.07,-5.209 -2.93,-7.069 -1.86,-1.86 -4.439,-2.93 -7.069,-2.93 -2.63,0 -5.209,1.07 -7.069,2.93 -1.86,1.86 -2.93,4.439 -2.93,7.069 0,2.63 1.07,5.209 2.93,7.069 1.86,1.86 4.44,2.93 7.069,2.93 z"
         inkscape:connector-curvature="0" />
      <g
         id="g835" />
      <g
         id="g837" />
      <g
         id="g839" />
      <g
         id="g841" />
      <g
         id="g843" />
      <g
         id="g845" />
      <g
         id="g847" />
      <g
         id="g849" />
      <g
         id="g851" />
      <g
         id="g853" />
      <g
         id="g855" />
      <g
         id="g857" />
      <g
         id="g859" />
      <g
         id="g861" />
      <g
         id="g863" />
      <g
         id="g1184"
         transform="translate(11.50116,-135.73205)">
        <path
           inkscape:connector-curvature="0"
           style="fill:#ff5a5a;stroke-width:0.44681722"
           d="m 107.43557,427.19571 28.26521,16.31866 c 6.06197,3.49992 6.06197,12.24949 0,15.74941 l -28.26521,16.31866 c -6.06197,3.49992 -13.63954,-0.87531 -13.63954,-7.87515 v -32.63777 c 0,-6.99894 7.57757,-11.37373 13.63954,-7.87381 z"
           id="path821" />
        <path
           style="stroke-width:0.44681722"
           inkscape:connector-curvature="0"
           d="m 89.328761,435.07042 v 32.63821 c 0,4.90248 2.534343,9.29246 6.779999,11.74414 2.12283,1.22607 4.45164,1.83821 6.78045,1.83821 2.32836,0 4.65807,-0.61303 6.78045,-1.83821 l 28.26521,-16.31866 c 4.24566,-2.45079 6.78045,-6.84121 6.78045,-11.74414 0,-4.90293 -2.53479,-9.29246 -6.78045,-11.74414 l -28.26521,-16.31866 c -4.2461,-2.45124 -9.31569,-2.4508 -13.5609,0 -4.245206,2.45079 -6.779999,6.84077 -6.779999,11.74325 z m 8.934999,0 c 0,-2.41013 1.61748,-3.60403 2.31272,-4.00572 0.42269,-0.24396 1.26896,-0.63627 2.33596,-0.63627 0.689,0 1.47093,0.16354 2.28949,0.63627 l 28.26521,16.31866 c 2.08709,1.20551 2.31273,3.20279 2.31273,4.00572 0,0.80293 -0.2252,2.80065 -2.31273,4.00571 l -28.26521,16.31866 c -2.08753,1.20551 -3.93065,0.40124 -4.62589,0 -0.6957,-0.40169 -2.31273,-1.59558 -2.31273,-4.00571 z"
           id="path829" />
      </g>
    </g>
    <g
       id="g1128"
       transform="matrix(0.3709066,0,0,0.3709066,20.338976,79.088807)">
      <g
         id="g1042"
         transform="translate(57.142858,24.285715)">
        <g
           id="g1040"
           transform="translate(82.142858,23.571429)">
          <defs
             id="defs987">
            <circle
               r="94.073997"
               cy="94.073997"
               cx="94.073997"
               id="circle1082" />
          </defs>
          <clipPath
             id="SVGID_2_">
            <use
               id="use991"
               style="overflow:visible"
               xlink:href="#SVGID_1_-6"
               x="0"
               y="0"
               width="100%"
               height="100%" />
          </clipPath>
          <path
             id="path994"
             clip-path="url(#SVGID_2_)"
             d="M 135.938,52.784 V 84.05 c 0,0.453 -0.011,0.905 -0.021,1.357 -0.02,0.936 -0.072,1.871 -0.154,2.796 -0.02,0.319 -0.052,0.637 -0.093,0.956 -0.134,1.326 -0.318,2.632 -0.555,3.928 -0.083,0.432 -0.165,0.853 -0.258,1.275 -0.01,0.092 -0.03,0.175 -0.051,0.257 -0.083,0.432 -0.186,0.854 -0.288,1.275 -0.041,0.226 -0.103,0.452 -0.154,0.679 -0.052,0.195 -0.103,0.391 -0.164,0.586 -0.217,0.843 -0.463,1.666 -0.721,2.488 -0.123,0.391 -0.246,0.771 -0.38,1.162 -0.011,0.041 -0.031,0.082 -0.041,0.123 -0.124,0.349 -0.247,0.699 -0.37,1.048 -0.041,0.103 -0.082,0.205 -0.124,0.319 -0.123,0.329 -0.246,0.658 -0.38,0.987 -0.154,0.401 -0.318,0.792 -0.483,1.183 -0.144,0.35 -0.298,0.699 -0.452,1.049 -0.02,0.062 -0.052,0.113 -0.072,0.174 -0.175,0.37 -0.339,0.741 -0.514,1.1 -0.175,0.38 -0.36,0.761 -0.556,1.142 -0.37,0.75 -0.771,1.501 -1.172,2.231 -0.185,0.329 -0.37,0.658 -0.556,0.987 -1.583,2.725 -3.341,5.285 -5.253,7.649 -0.258,0.339 -0.524,0.668 -0.802,0.987 -0.381,0.462 -0.772,0.915 -1.162,1.357 -0.35,0.391 -0.699,0.781 -1.059,1.162 -0.987,1.059 -1.995,2.067 -3.023,3.013 -0.205,0.206 -0.422,0.391 -0.638,0.586 -0.349,0.319 -0.698,0.627 -1.059,0.925 -0.277,0.247 -0.565,0.483 -0.854,0.72 -0.74,0.606 -1.48,1.192 -2.23,1.737 -0.309,0.237 -0.628,0.463 -0.946,0.679 -0.514,0.37 -1.038,0.72 -1.563,1.059 -0.288,0.195 -0.586,0.38 -0.885,0.555 -1.049,0.648 -2.107,1.244 -3.156,1.758 -0.257,0.133 -0.514,0.257 -0.771,0.38 -0.258,0.123 -0.524,0.247 -0.802,0.37 -0.34,0.154 -0.679,0.298 -1.018,0.432 -0.134,0.062 -0.268,0.113 -0.401,0.154 -0.4,0.165 -0.812,0.319 -1.213,0.452 -0.504,0.185 -1.018,0.339 -1.521,0.483 -0.35,0.103 -0.709,0.195 -1.059,0.277 -0.021,0.011 -0.041,0.021 -0.072,0.021 -0.35,0.082 -0.699,0.165 -1.049,0.226 -0.093,0.021 -0.184,0.041 -0.277,0.051 -0.288,0.051 -0.576,0.103 -0.864,0.134 -0.411,0.062 -0.822,0.113 -1.233,0.134 -0.143,0.02 -0.277,0.031 -0.422,0.031 -0.328,0.021 -0.657,0.031 -0.977,0.031 h -0.03 c -0.319,0 -0.638,-0.01 -0.956,-0.031 -0.124,0 -0.247,-0.01 -0.371,-0.031 -0.287,-0.01 -0.586,-0.042 -0.894,-0.083 -0.062,0 -0.134,-0.01 -0.195,-0.02 -0.381,-0.051 -0.761,-0.113 -1.152,-0.185 -0.328,-0.051 -0.657,-0.124 -0.997,-0.206 -1.758,-0.401 -3.567,-1.007 -5.397,-1.82 -1.563,-0.689 -3.146,-1.521 -4.719,-2.488 -0.792,-0.483 -1.584,-0.997 -2.365,-1.542 -0.391,-0.278 -0.781,-0.555 -1.172,-0.843 -1.224,-0.895 -2.437,-1.871 -3.63,-2.92 -0.328,-0.298 -0.657,-0.596 -0.986,-0.905 -0.329,-0.298 -0.658,-0.606 -0.977,-0.904 -0.803,-0.771 -1.584,-1.573 -2.345,-2.406 -0.298,-0.318 -0.596,-0.647 -0.895,-0.987 -0.822,-0.925 -1.624,-1.881 -2.385,-2.879 -0.299,-0.36 -0.576,-0.73 -0.854,-1.1 -1.038,-1.377 -2.025,-2.817 -2.951,-4.308 -0.246,-0.401 -0.493,-0.813 -0.729,-1.213 -0.288,-0.483 -0.565,-0.976 -0.843,-1.47 -1.028,-1.851 -1.975,-3.773 -2.797,-5.758 -0.123,-0.288 -0.247,-0.576 -0.35,-0.863 -0.165,-0.37 -0.309,-0.751 -0.442,-1.121 -0.205,-0.545 -0.4,-1.09 -0.586,-1.635 -0.185,-0.545 -0.359,-1.1 -0.534,-1.655 -0.165,-0.535 -0.319,-1.069 -0.463,-1.614 -0.165,-0.576 -0.318,-1.162 -0.452,-1.758 -0.011,-0.062 -0.031,-0.123 -0.041,-0.185 -0.195,-0.822 -0.37,-1.655 -0.524,-2.498 -0.206,-1.111 -0.37,-2.242 -0.494,-3.383 -0.051,-0.36 -0.082,-0.72 -0.113,-1.08 -0.041,-0.38 -0.071,-0.751 -0.092,-1.131 -0.052,-0.689 -0.083,-1.388 -0.104,-2.087 -0.01,-0.453 -0.021,-0.905 -0.021,-1.357 V 52.784 c 0,-23.102 18.723,-41.834 41.825,-41.855 h 0.041 c 3.188,0 6.292,0.359 9.273,1.028 2.725,0.617 5.347,1.501 7.835,2.622 3.393,1.522 6.549,3.475 9.387,5.809 2.385,1.954 4.555,4.154 6.446,6.58 5.586,7.115 8.917,16.07 8.917,25.816 z"
             style="fill:#ecc19c"
             inkscape:connector-curvature="0" />
          <path
             id="path996"
             clip-path="url(#SVGID_2_)"
             d="m 148.613,200.741 v 0.01 H 39.538 v -0.01 c 0,-6.158 1.018,-12.091 2.91,-17.612 0.339,-0.997 0.709,-1.984 1.11,-2.961 v -0.01 c 0.4,-0.977 0.822,-1.933 1.274,-2.879 1.8,-3.794 4.041,-7.341 6.642,-10.59 0.658,-0.812 1.326,-1.604 2.016,-2.365 0.339,-0.391 0.699,-0.771 1.059,-1.151 0.36,-0.37 0.72,-0.74 1.09,-1.11 1.841,-1.84 3.814,-3.526 5.892,-5.079 1.038,-0.771 2.087,-1.491 3.177,-2.19 1.09,-0.689 2.2,-1.347 3.331,-1.964 0.021,-0.02 0.041,-0.02 0.041,-0.02 0.442,-0.236 0.874,-0.493 1.306,-0.761 0.854,-0.514 1.696,-1.069 2.499,-1.665 0.411,-0.288 0.802,-0.586 1.192,-0.905 0.925,-0.74 1.819,-1.532 2.673,-2.365 0.277,-0.277 0.556,-0.555 0.833,-0.843 0.575,-0.597 1.12,-1.224 1.645,-1.861 0.258,-0.308 0.515,-0.627 0.751,-0.946 0.247,-0.318 0.483,-0.647 0.72,-0.977 1.83,-2.55 3.3,-5.356 4.38,-8.349 1.306,-3.64 2.015,-7.557 2.015,-11.649 l 7.948,0.041 8.173,0.041 c 0,4.04 0.689,7.916 1.964,11.515 1.06,3.002 2.529,5.809 4.329,8.359 1.871,2.652 4.102,5.017 6.631,7.042 0.381,0.309 0.761,0.607 1.142,0.884 0.37,0.278 0.75,0.545 1.141,0.802 0.083,0.062 0.154,0.113 0.237,0.165 0.37,0.247 0.74,0.494 1.131,0.72 0.421,0.257 0.854,0.514 1.285,0.751 0.071,0.02 0.134,0.051 0.185,0.093 0.905,0.504 1.8,1.028 2.674,1.573 0.421,0.257 0.843,0.524 1.254,0.823 0.854,0.555 1.687,1.141 2.498,1.758 0,0.011 0.011,0.011 0.011,0.011 h 0.01 c 2.077,1.552 4.041,3.248 5.881,5.079 9.908,9.869 16.025,23.502 16.025,38.595 z"
             style="fill:#ecc19c"
             inkscape:connector-curvature="0" />
          <path
             id="path998"
             clip-path="url(#SVGID_2_)"
             d="M 148.614,200.743 H 39.539 c 0,-6.159 1.019,-12.091 2.91,-17.612 0.339,-0.998 0.709,-1.984 1.11,-2.961 -0.011,-0.011 0,-0.011 0,-0.011 0.391,-0.977 0.822,-1.933 1.274,-2.878 1.8,-3.794 4.041,-7.341 6.642,-10.59 0.658,-0.813 1.327,-1.604 2.016,-2.365 0.339,-0.391 0.699,-0.771 1.059,-1.151 0.36,-0.37 0.72,-0.74 1.09,-1.11 1.841,-1.84 3.814,-3.527 5.892,-5.079 1.038,-0.771 2.087,-1.491 3.177,-2.19 1.09,-0.699 2.2,-1.357 3.331,-1.974 0.021,-0.02 0.041,-0.01 0.041,-0.01 v -0.01 c 0.442,-0.247 0.874,-0.494 1.306,-0.751 1.285,-0.781 2.52,-1.645 3.671,-2.591 0.01,0.01 0.01,0.01 0.021,0.02 5.325,5.449 12.738,8.831 20.964,8.852 h 0.082 c 8.225,0 15.669,-3.393 21.015,-8.842 l 0.011,-0.01 c 0.729,0.606 1.49,1.172 2.272,1.696 0.082,0.061 0.154,0.113 0.236,0.164 0.37,0.247 0.75,0.483 1.131,0.72 0.422,0.257 0.854,0.504 1.285,0.74 0.072,0.02 0.123,0.061 0.185,0.092 0.905,0.504 1.8,1.028 2.674,1.583 0.421,0.257 0.843,0.524 1.254,0.823 0.854,0.545 1.687,1.141 2.498,1.758 h 0.021 c 2.088,1.563 4.051,3.259 5.881,5.089 9.909,9.872 16.026,23.505 16.026,38.598 z"
             style="fill:#c7d4e2"
             inkscape:connector-curvature="0" />
          <path
             id="path1000"
             clip-path="url(#SVGID_2_)"
             d="m 135.938,84.05 c 0,0.453 -0.011,0.905 -0.021,1.357 -0.02,0.936 -0.072,1.871 -0.154,2.796 -0.02,0.319 -0.052,0.637 -0.093,0.956 -0.134,1.326 -0.318,2.632 -0.555,3.928 -0.083,0.432 -0.165,0.853 -0.258,1.275 -0.01,0.092 -0.03,0.175 -0.051,0.257 -0.083,0.432 -0.186,0.854 -0.288,1.275 -0.052,0.247 -0.113,0.483 -0.186,0.72 -0.03,0.185 -0.082,0.37 -0.133,0.545 -0.217,0.843 -0.463,1.666 -0.721,2.488 -0.123,0.391 -0.246,0.771 -0.38,1.162 -0.011,0.041 -0.031,0.082 -0.041,0.123 -0.124,0.349 -0.247,0.699 -0.37,1.048 -0.041,0.103 -0.082,0.205 -0.124,0.319 -0.123,0.329 -0.246,0.658 -0.38,0.987 -0.154,0.401 -0.318,0.792 -0.483,1.183 -0.144,0.35 -0.298,0.699 -0.452,1.049 -0.02,0.062 -0.052,0.113 -0.072,0.174 -0.175,0.37 -0.339,0.741 -0.514,1.1 -0.175,0.38 -0.36,0.761 -0.556,1.142 -0.37,0.75 -0.771,1.501 -1.172,2.231 -0.185,0.329 -0.37,0.658 -0.556,0.987 -1.583,2.725 -3.341,5.285 -5.253,7.649 -0.258,0.339 -0.524,0.668 -0.802,0.987 -0.381,0.462 -0.772,0.915 -1.162,1.357 -0.35,0.391 -0.699,0.781 -1.059,1.162 -0.987,1.059 -1.995,2.067 -3.023,3.013 -0.205,0.206 -0.422,0.391 -0.638,0.586 -0.349,0.319 -0.698,0.627 -1.059,0.925 -0.277,0.247 -0.565,0.483 -0.854,0.72 -0.74,0.606 -1.48,1.192 -2.23,1.737 -0.309,0.237 -0.628,0.463 -0.946,0.679 -0.514,0.37 -1.038,0.72 -1.563,1.059 -0.288,0.195 -0.586,0.38 -0.885,0.555 -1.049,0.648 -2.107,1.244 -3.156,1.758 -0.257,0.133 -0.514,0.257 -0.771,0.38 -0.258,0.123 -0.524,0.247 -0.802,0.37 -0.34,0.154 -0.679,0.298 -1.018,0.432 -0.134,0.062 -0.268,0.113 -0.401,0.154 -0.4,0.165 -0.812,0.319 -1.213,0.452 -0.504,0.185 -1.018,0.339 -1.521,0.483 -0.35,0.103 -0.709,0.195 -1.059,0.277 -0.021,0.011 -0.041,0.021 -0.072,0.021 -0.35,0.082 -0.699,0.165 -1.049,0.226 -0.093,0.021 -0.184,0.041 -0.277,0.051 -0.288,0.051 -0.576,0.103 -0.864,0.134 -0.411,0.062 -0.822,0.113 -1.233,0.134 -0.143,0.02 -0.277,0.031 -0.422,0.031 -0.328,0.021 -0.657,0.031 -0.977,0.031 h -0.03 c -0.319,0 -0.638,-0.01 -0.956,-0.031 -0.124,0 -0.247,-0.01 -0.371,-0.031 -0.287,-0.01 -0.586,-0.042 -0.894,-0.083 -0.062,0 -0.134,-0.01 -0.195,-0.02 -0.381,-0.051 -0.761,-0.113 -1.152,-0.185 -0.328,-0.051 -0.657,-0.124 -0.997,-0.206 -1.758,-0.401 -3.567,-1.007 -5.397,-1.82 -1.563,-0.689 -3.146,-1.521 -4.719,-2.488 -0.792,-0.473 -1.573,-0.987 -2.365,-1.542 -0.391,-0.278 -0.781,-0.555 -1.172,-0.843 -1.224,-0.895 -2.437,-1.871 -3.63,-2.92 -0.328,-0.298 -0.657,-0.596 -0.986,-0.905 -0.329,-0.298 -0.658,-0.606 -0.977,-0.904 -0.803,-0.771 -1.584,-1.573 -2.345,-2.406 -0.298,-0.318 -0.596,-0.647 -0.895,-0.987 -0.822,-0.925 -1.624,-1.881 -2.385,-2.879 -0.299,-0.36 -0.576,-0.73 -0.854,-1.1 -1.038,-1.377 -2.025,-2.817 -2.951,-4.308 -0.246,-0.401 -0.493,-0.813 -0.729,-1.213 -0.288,-0.483 -0.565,-0.976 -0.843,-1.47 -1.028,-1.851 -1.975,-3.773 -2.797,-5.758 -0.123,-0.288 -0.247,-0.576 -0.35,-0.863 -0.165,-0.37 -0.309,-0.751 -0.442,-1.121 -0.205,-0.545 -0.4,-1.09 -0.586,-1.635 -0.185,-0.545 -0.359,-1.1 -0.534,-1.655 -0.165,-0.535 -0.319,-1.069 -0.463,-1.614 -0.165,-0.576 -0.318,-1.162 -0.452,-1.758 -0.011,-0.062 -0.031,-0.123 -0.041,-0.185 -0.195,-0.822 -0.37,-1.655 -0.524,-2.498 -0.206,-1.111 -0.37,-2.242 -0.494,-3.383 -0.051,-0.36 -0.082,-0.72 -0.113,-1.08 -0.041,-0.38 -0.071,-0.751 -0.092,-1.131 -0.052,-0.689 -0.083,-1.388 -0.104,-2.087 -0.01,-0.453 -0.021,-0.905 -0.021,-1.357 l 6.684,13.14 11.484,5.007 13.581,1.224 10.076,0.915 H 94.1 l 9.428,0.854 21.005,1.892 z"
             style="fill:#543e36"
             inkscape:connector-curvature="0" />
          <path
             id="path1002"
             clip-path="url(#SVGID_2_)"
             d="m 127.023,26.968 c -2.046,4.637 -4.709,8.945 -7.855,12.852 -0.185,0.227 -0.37,0.453 -0.565,0.679 -6.446,7.762 -14.897,13.798 -24.562,17.324 -2.54,0.936 -5.161,1.696 -7.855,2.262 -1.799,0.38 -3.629,0.679 -5.49,0.895 -2.139,0.236 -4.318,0.36 -6.528,0.36 -2.529,0 -5.007,-0.165 -7.443,-0.483 -2.386,-0.298 -4.72,-0.74 -7.002,-1.336 -1.306,-0.329 -2.581,-0.709 -3.846,-1.131 -1.244,-0.411 -2.457,-0.864 -3.66,-1.357 v -4.246 c 0,-23.102 18.723,-41.834 41.825,-41.855 h 0.041 c 3.188,0 6.292,0.359 9.273,1.028 2.725,0.617 5.347,1.501 7.835,2.622 3.393,1.522 6.549,3.475 9.387,5.809 2.384,1.95 4.554,4.151 6.445,6.577 z"
             style="fill:#543e36"
             inkscape:connector-curvature="0" />
          <path
             id="path1004"
             clip-path="url(#SVGID_2_)"
             d="m 135.938,52.784 v 8.235 c -7.136,-5.521 -13.047,-12.502 -17.314,-20.48 -0.01,-0.01 -0.01,-0.031 -0.021,-0.041 -4.194,-7.834 -6.796,-16.625 -7.412,-25.92 3.393,1.522 6.549,3.475 9.387,5.809 2.385,1.954 4.555,4.154 6.446,6.58 5.583,7.116 8.914,16.071 8.914,25.817 z"
             style="fill:#543e36"
             inkscape:connector-curvature="0" />
          <path
             id="path1006"
             clip-path="url(#SVGID_2_)"
             d="m 57.12,56.013 c -0.441,0.771 -0.843,1.563 -1.244,2.375 -0.153,0.318 -0.308,0.658 -0.462,0.987 -2.025,4.503 -3.044,8.924 -3.188,12.914 0,0.113 -0.011,0.236 -0.011,0.35 V 56.517 c 0,-0.576 0.021,-1.142 0.021,-1.697 1.625,0.422 3.249,0.833 4.884,1.193 z"
             style="fill:#543e36"
             inkscape:connector-curvature="0" />
          <path
             id="path1008"
             clip-path="url(#SVGID_2_)"
             d="m 131.054,56.013 c 0.622,1.093 1.177,2.213 1.71,3.361 2.088,4.643 3.11,9.178 3.198,13.268 v -16.13 c 0,-0.567 -0.021,-1.134 -0.021,-1.688 -1.623,0.419 -3.244,0.824 -4.887,1.189 z"
             style="fill:#543e36"
             inkscape:connector-curvature="0" />
          <path
             id="path1010"
             clip-path="url(#SVGID_2_)"
             d="m 130.972,60.167 c 0,-0.175 -0.134,-0.329 -0.309,-0.35 -1.48,-0.226 -8.143,-1.142 -15.309,-1.142 -8.133,0 -18.63,2.55 -20.46,2.55 H 93.27 c -0.854,0 -3.588,-0.555 -7.084,-1.141 -4.02,-0.679 -9.037,-1.409 -13.376,-1.409 -5.243,0 -10.22,0.494 -13.088,0.843 -1.049,0.124 -1.82,0.236 -2.221,0.298 -0.175,0.021 -0.309,0.175 -0.309,0.35 l -0.082,4.369 c 0,0.154 0.093,0.288 0.236,0.35 l 0.493,0.175 c 0.73,0.278 0.669,13.448 4.596,16.738 2.334,1.943 4.411,3.053 13.16,3.053 5.069,0 8.256,-1.367 11.279,-5.449 2.18,-2.93 4.112,-9.86 4.112,-9.86 0.586,-2.858 2.714,-3.084 3.054,-3.105 0.021,0 0.041,0 0.041,0 0.071,0 2.468,0.041 3.095,3.105 0,0 1.933,6.93 4.112,9.86 3.022,4.082 6.21,5.449 11.278,5.449 8.75,0 10.826,-1.11 13.16,-3.053 3.928,-3.29 3.866,-16.46 4.596,-16.738 l 0.494,-0.175 c 0.143,-0.062 0.236,-0.195 0.236,-0.35 z M 86.875,75.753 c -1.285,3.043 -4.606,6.971 -9.284,7.207 -14.034,0.709 -14.682,-3.208 -15.587,-6.313 -0.915,-3.105 -1.151,-5.83 -0.792,-8.935 0.37,-3.105 1.152,-4.925 2.561,-5.84 0.606,-0.401 1.265,-0.761 2.951,-1.018 1.511,-0.226 3.845,-0.36 7.731,-0.36 2.251,0 4.359,0.175 6.24,0.483 4.997,0.802 8.369,2.499 8.369,4.174 0,1.143 -0.288,6.098 -2.189,10.602 z m 39.284,0.894 c -0.904,3.105 -1.552,7.022 -15.586,6.313 -4.678,-0.236 -7.999,-4.164 -9.284,-7.207 -1.902,-4.503 -2.189,-9.459 -2.189,-10.6 0,-2.303 6.395,-4.658 14.609,-4.658 8.215,0 9.53,0.617 10.683,1.378 1.408,0.915 2.189,2.735 2.56,5.84 0.36,3.105 0.123,5.83 -0.793,8.934 z"
             style="fill:#1a1a1a"
             inkscape:connector-curvature="0" />
          <g
             id="g1016"
             clip-path="url(#SVGID_2_)">
            <path
               id="path1012"
               d="m 94.123,90.65 -0.011,10.138 -0.01,3.547 v 2.786 l -0.011,9.253 v 0.01 l -0.01,-0.01 H 94.07 L 94.04,116.353 53.604,95.771 c -0.011,-0.062 -0.031,-0.123 -0.041,-0.185 -0.195,-0.822 -0.37,-1.655 -0.524,-2.498 -0.206,-1.111 -0.37,-2.242 -0.494,-3.383 -0.051,-0.36 -0.082,-0.72 -0.113,-1.08 -0.041,-0.38 -0.071,-0.751 -0.092,-1.131 -0.052,-0.689 -0.083,-1.388 -0.104,-2.087 -0.01,-0.453 -0.021,-0.905 -0.021,-1.357 V 71.764 c 0,0.175 0.011,0.35 0.011,0.524 0.082,2.971 0.555,6.241 1.47,9.582 0.71,2.57 1.594,4.945 2.622,7.063 v 0.01 c 2.694,5.604 6.303,9.407 9.623,10.024 0.206,0.031 0.422,0.051 0.628,0.072 1.285,0.144 2.632,0.226 4.02,0.226 5.243,0 9.901,-4.215 12.831,-5.922 0.021,-0.01 0.041,-0.021 0.062,-0.031 0.154,-0.093 0.309,-0.185 0.442,-0.278 0.041,-0.031 0.082,-0.051 0.123,-0.072 2.468,-1.409 6.025,-2.303 9.994,-2.313 h 0.082 z"
               style="fill:#543e36"
               inkscape:connector-curvature="0" />
            <path
               id="path1014"
               d="m 135.947,71.764 -0.01,12.286 c 0,3.085 -0.288,6.107 -0.822,9.038 -0.217,1.172 -0.463,2.333 -0.751,3.485 l -9.49,13.705 -30.782,6.097 h -0.01 l -0.011,0.01 v -0.01 l -0.03,-25.727 h 0.082 c 3.969,0.01 7.536,0.905 10.004,2.313 0.041,0.021 0.071,0.041 0.113,0.072 0.144,0.093 0.298,0.185 0.452,0.278 0.01,0.01 0.03,0.021 0.051,0.031 2.941,1.707 7.588,5.925 12.832,5.925 1.388,0 2.734,-0.082 4.019,-0.226 0.216,-0.021 0.422,-0.041 0.638,-0.072 3.311,-0.617 6.93,-4.421 9.613,-10.024 v -0.01 c 1.027,-2.118 1.912,-4.493 2.621,-7.063 0.926,-3.393 1.409,-6.703 1.471,-9.716 0.01,-0.135 0.01,-0.259 0.01,-0.392 z"
               style="fill:#543e36"
               inkscape:connector-curvature="0" />
          </g>
          <ellipse
             id="ellipse1018"
             clip-path="url(#SVGID_2_)"
             ry="3.1700001"
             rx="10.255"
             cy="103.955"
             cx="94.073997"
             style="fill:#ecc19c" />
          <g
             id="g1024"
             clip-path="url(#SVGID_2_)">
            <path
               id="path1020"
               d="m 64.131,155.174 v 56.558 h -4.369 v -53.37 c 0.586,-0.473 1.172,-0.936 1.769,-1.378 0.853,-0.637 1.716,-1.234 2.6,-1.81 z"
               style="fill:#435363"
               inkscape:connector-curvature="0" />
            <polygon
               id="polygon1022"
               points="124.021,155.185 124.021,200.741 124.021,211.732 128.39,211.732 128.39,200.741 128.39,158.372 "
               style="fill:#435363" />
          </g>
          <g
             id="g1038"
             clip-path="url(#SVGID_2_)">
            <g
               id="g1030">
              <polygon
                 id="polygon1026"
                 points="82.113,151.713 94.074,166.049 106.036,151.713 "
                 style="fill:#141720" />
              <path
                 id="path1028"
                 d="m 94.074,225.437 h -7.073 l 5.11,-65.8 c 0.215,0.837 3.712,0.837 3.927,0 l 5.11,65.8 z"
                 style="fill:#141720"
                 inkscape:connector-curvature="0" />
            </g>
            <g
               id="g1036">
              <path
                 id="path1032"
                 d="m 94.07,151.638 -0.03,0.051 -0.011,0.021 -4.966,8.338 -4.637,7.772 -12.554,-17.447 c 0.401,-0.288 0.802,-0.596 1.183,-0.915 0.01,0.01 0.01,0.01 0.021,0.021 2.518,-2.005 4.76,-4.359 6.621,-6.991 l 14.343,9.13 z"
                 style="fill:#e7ecf2"
                 inkscape:connector-curvature="0" />
              <path
                 id="path1034"
                 d="m 116.278,150.373 -12.554,17.447 -4.637,-7.772 -4.977,-8.338 -0.041,-0.072 14.436,-9.191 c 1.871,2.652 4.102,5.017 6.631,7.042 0.382,0.308 0.761,0.607 1.142,0.884 z"
                 style="fill:#e7ecf2"
                 inkscape:connector-curvature="0" />
            </g>
          </g>
        </g>
      </g>
      <g
         id="g1044" />
      <g
         id="g1046" />
      <g
         id="g1048" />
      <g
         id="g1050" />
      <g
         id="g1052" />
      <g
         id="g1054" />
      <g
         id="g1056" />
      <g
         id="g1058" />
      <g
         id="g1060" />
      <g
         id="g1062" />
      <g
         id="g1064" />
      <g
         id="g1066" />
      <g
         id="g1068" />
      <g
         id="g1070" />
      <g
         id="g1072" />
    </g>
    <rect
       style="fill:#000000;fill-opacity:1;stroke-width:0.32194838"
       id="rect1134"
       width="47.860641"
       height="4.8104181"
       x="86.003441"
       y="162.02185" />
  </g>
</svg>
