<?xml version="1.0" encoding="UTF-8" standalone="no"?>
<!-- Generator: Adobe Illustrator 19.0.0, SVG Export Plug-In . SVG Version: 6.00 Build 0)  -->

<svg
   xmlns:dc="http://purl.org/dc/elements/1.1/"
   xmlns:cc="http://creativecommons.org/ns#"
   xmlns:rdf="http://www.w3.org/1999/02/22-rdf-syntax-ns#"
   xmlns:svg="http://www.w3.org/2000/svg"
   xmlns="http://www.w3.org/2000/svg"
   xmlns:sodipodi="http://sodipodi.sourceforge.net/DTD/sodipodi-0.dtd"
   xmlns:inkscape="http://www.inkscape.org/namespaces/inkscape"
   version="1.1"
   id="Capa_1"
   x="0px"
   y="0px"
   viewBox="0 0 512 512"
   style="enable-background:new 0 0 512 512;"
   xml:space="preserve"
   sodipodi:docname="059-gps.svg"
   inkscape:version="0.92.3 (2405546, 2018-03-11)"><metadata
   id="metadata57"><rdf:RDF><cc:Work
       rdf:about=""><dc:format>image/svg+xml</dc:format><dc:type
         rdf:resource="http://purl.org/dc/dcmitype/StillImage" /></cc:Work></rdf:RDF></metadata><defs
   id="defs55" /><sodipodi:namedview
   pagecolor="#ffffff"
   bordercolor="#666666"
   borderopacity="1"
   objecttolerance="10"
   gridtolerance="10"
   guidetolerance="10"
   inkscape:pageopacity="0"
   inkscape:pageshadow="2"
   inkscape:window-width="1440"
   inkscape:window-height="837"
   id="namedview53"
   showgrid="false"
   inkscape:zoom="0.65186406"
   inkscape:cx="165.9035"
   inkscape:cy="249.83707"
   inkscape:window-x="-8"
   inkscape:window-y="-8"
   inkscape:window-maximized="1"
   inkscape:current-layer="Capa_1" />
<polyline
   style="fill:#5a55e1;fill-opacity:1"
   points="186,384 121.915,384 10,502 502,502 389.404,384 325.572,384 "
   id="polyline2" />
<path
   style="fill:#F5C86E;"
   d="M431.974,185.974C431.974,88.786,353.188,10,256,10S80.027,88.786,80.027,185.974  c0,42.13,14.813,80.796,39.504,111.091h-0.012L256,472l135.831-174.018h-0.102C416.869,267.552,431.974,228.527,431.974,185.974z"
   id="path4" />


<path
   d="M509.235,495.097l-112.596-118c-1.887-1.978-4.501-3.097-7.235-3.097H345.18l54.534-69.866  c0.211-0.27,0.407-0.549,0.587-0.836c26.882-33.034,41.673-74.644,41.673-117.325C441.974,83.428,358.547,0,256,0  c-30.791,0-61.299,7.684-88.227,22.221c-4.86,2.624-6.673,8.69-4.049,13.55c2.624,4.86,8.689,6.672,13.55,4.049  C201.293,26.854,228.516,20,256,20c91.518,0,165.974,74.456,165.974,165.974c0,38.498-13.479,76.014-37.955,105.639  c-0.333,0.403-0.63,0.827-0.892,1.268L256.002,455.746L127.679,291.267c-0.126-0.177-0.258-0.35-0.396-0.52  c-24.025-29.477-37.256-66.686-37.256-104.773c0-34.848,10.677-68.196,30.876-96.439c3.213-4.492,2.176-10.738-2.316-13.951  s-10.738-2.176-13.951,2.316c-22.641,31.658-34.609,69.029-34.609,108.074c0,42.526,14.721,84.076,41.465,117.055  c0.047,0.063,0.094,0.125,0.143,0.188L166.859,374h-44.944c-2.744,0-5.367,1.127-7.256,3.119l-111.914,118  c-2.75,2.899-3.51,7.158-1.932,10.83C2.391,509.621,6.004,512,10,512h329.333c5.523,0,10-4.477,10-10s-4.477-10-10-10H33.267  l92.945-98h56.25l65.654,84.151c1.895,2.428,4.803,3.848,7.883,3.849H256c3.08,0,5.988-1.419,7.883-3.847L329.569,394h55.555  l93.512,98h-61.303c-5.523,0-10,4.477-10,10s4.477,10,10,10H502c4.002,0,7.619-2.386,9.193-6.065  C512.768,502.256,511.998,497.992,509.235,495.097z"
   id="path14" />

<path
   d="M138.58,64.91c2.64,0,5.21-1.07,7.07-2.93c1.87-1.86,2.93-4.44,2.93-7.07s-1.06-5.21-2.93-7.07  c-1.86-1.86-4.43-2.93-7.07-2.93c-2.63,0-5.21,1.07-7.07,2.93s-2.93,4.44-2.93,7.07s1.07,5.21,2.93,7.07  C133.37,63.84,135.95,64.91,138.58,64.91z"
   id="path18" />
<path
   d="M379.33,492c-2.63,0-5.21,1.07-7.07,2.93c-1.86,1.86-2.93,4.44-2.93,7.07s1.07,5.21,2.93,7.07s4.44,2.93,7.07,2.93  c2.64,0,5.21-1.07,7.07-2.93c1.87-1.86,2.93-4.44,2.93-7.07s-1.06-5.21-2.93-7.07C384.54,493.07,381.97,492,379.33,492z"
   id="path20" />
<g
   id="g22">
</g>
<g
   id="g24">
</g>
<g
   id="g26">
</g>
<g
   id="g28">
</g>
<g
   id="g30">
</g>
<g
   id="g32">
</g>
<g
   id="g34">
</g>
<g
   id="g36">
</g>
<g
   id="g38">
</g>
<g
   id="g40">
</g>
<g
   id="g42">
</g>
<g
   id="g44">
</g>
<g
   id="g46">
</g>
<g
   id="g48">
</g>
<g
   id="g50">
</g>
<g
   id="g946"
   transform="matrix(0.45137265,0,0,0.45137265,140.4486,75.363634)"><path
     id="path864"
     d="m 421,443.083 v 0 c -14.912,0 -27,-12.088 -27,-27 v -330 c 0,-14.912 12.088,-27 27,-27 v 0 c 14.912,0 27,12.088 27,27 v 330 c 0,14.912 -12.088,27 -27,27 z"
     style="fill:#4bb9f5"
     inkscape:connector-curvature="0" /><path
     id="path866"
     d="m 448,197.082 c 29.823,0 54,24.177 54,54 0,29.823 -24.177,54 -54,54 z"
     style="fill:#ff9155"
     inkscape:connector-curvature="0" /><path
     id="path868"
     d="M 122,331.083 H 59 c -27.062,0 -49,-21.938 -49,-49 v -62 c 0,-27.062 21.938,-49 49,-49 h 63 z"
     style="fill:#4bb9f5"
     inkscape:connector-curvature="0" /><path
     id="path870"
     d="m 394,416.083 v -330 c 0,-8.129 3.597,-15.413 9.281,-20.363 L 122,171.082 v 160 L 403.281,436.445 C 397.597,431.496 394,424.212 394,416.083 Z"
     style="fill:#ffffff"
     inkscape:connector-curvature="0" /><polygon
     id="polygon872"
     points="64,331.083 110.5,452.917 168.5,452.917 122,331.083 "
     style="fill:#878791" /><path
     id="path874"
     d="m 394,262.583 c 5.523,0 10,-4.478 10,-10 v -1.5 c 0,-5.522 -4.477,-10 -10,-10 -5.523,0 -10,4.478 -10,10 v 1.5 c 0,5.522 4.477,10 10,10 z"
     inkscape:connector-curvature="0" /><path
     id="path876"
     d="m 512,251.082 c 0,-31.888 -23.444,-58.398 -54,-63.213 V 86.083 c 0,-20.402 -16.598,-37 -37,-37 -8.564,0 -16.452,2.933 -22.729,7.836 L 291.265,97.001 c -5.172,1.937 -7.794,7.7 -5.857,12.872 1.504,4.017 5.316,6.495 9.366,6.495 1.166,0 2.351,-0.205 3.506,-0.639 l 85.813,-32.144 c -0.055,0.826 -0.094,1.657 -0.094,2.497 v 116 c 0,5.522 4.477,10 10,10 5.523,0 10,-4.478 10,-10 v -116 c 0,-9.374 7.626,-17 17,-17 9.374,0 17,7.626 17,17 v 330 c 0,9.374 -7.626,17 -17,17 -9.374,0 -17,-7.626 -17,-17 v -121 c 0,-5.522 -4.477,-10 -10,-10 -5.523,0 -10,4.478 -10,10 v 121 c 0,0.84 0.038,1.671 0.094,2.497 L 132,324.151 V 178.016 l 101.504,-38.021 c 5.172,-1.937 7.794,-7.7 5.857,-12.872 -1.938,-5.172 -7.701,-7.799 -12.873,-5.856 L 120.189,161.084 H 59 c -32.533,0 -59,26.467 -59,59 v 62 c 0,31.894 25.442,57.94 57.095,58.952 l 44.063,115.447 c 1.479,3.875 5.196,6.435 9.343,6.435 h 58 c 3.29,0 6.37,-1.618 8.236,-4.328 1.866,-2.71 2.28,-6.164 1.107,-9.237 l -38.598,-101.13 259.026,97.026 c 6.277,4.903 14.165,7.836 22.729,7.836 20.402,0 37,-16.598 37,-37 V 314.297 C 488.556,309.48 512,282.971 512,251.082 Z M 20,282.083 v -62 c 0,-21.505 17.495,-39 39,-39 h 53 v 140 H 64 59 c -21.505,0 -39,-17.495 -39,-39 z M 117.387,442.917 78.521,341.083 h 36.593 L 153.98,442.916 Z M 458,293.923 v -85.68 c 19.458,4.542 34,22.019 34,42.84 0,20.821 -14.542,38.299 -34,42.84 z"
     inkscape:connector-curvature="0" /><path
     id="path878"
     d="m 262.64,128.402 c 2.63,0 5.21,-1.069 7.07,-2.93 1.86,-1.859 2.93,-4.439 2.93,-7.07 0,-2.63 -1.07,-5.21 -2.93,-7.069 -1.86,-1.86 -4.44,-2.931 -7.07,-2.931 -2.63,0 -5.21,1.07 -7.07,2.931 -1.86,1.859 -2.93,4.439 -2.93,7.069 0,2.631 1.07,5.211 2.93,7.07 1.86,1.861 4.44,2.93 7.07,2.93 z"
     inkscape:connector-curvature="0" /><path
     id="path880"
     d="m 66,236.753 c 2.63,0 5.21,-1.07 7.07,-2.93 1.86,-1.86 2.93,-4.44 2.93,-7.07 0,-2.64 -1.07,-5.21 -2.93,-7.07 -1.86,-1.87 -4.44,-2.93 -7.07,-2.93 -2.63,0 -5.21,1.06 -7.07,2.93 -1.86,1.86 -2.93,4.44 -2.93,7.07 0,2.63 1.07,5.2 2.93,7.07 1.86,1.859 4.44,2.93 7.07,2.93 z"
     inkscape:connector-curvature="0" /><path
     id="path882"
     d="m 94,284.083 c 0,-5.522 -4.477,-10 -10,-10 H 52 c -5.523,0 -10,4.478 -10,10 0,5.522 4.477,10 10,10 h 32 c 5.523,0 10,-4.478 10,-10 z"
     inkscape:connector-curvature="0" /><g
     id="g884">
</g><g
     id="g886">
</g><g
     id="g888">
</g><g
     id="g890">
</g><g
     id="g892">
</g><g
     id="g894">
</g><g
     id="g896">
</g><g
     id="g898">
</g><g
     id="g900">
</g><g
     id="g902">
</g><g
     id="g904">
</g><g
     id="g906">
</g><g
     id="g908">
</g><g
     id="g910">
</g><g
     id="g912">
</g></g></svg>