<?xml version="1.0" encoding="UTF-8" standalone="no"?>
<!-- Generator: Adobe Illustrator 19.0.0, SVG Export Plug-In . SVG Version: 6.00 Build 0)  -->

<svg
   xmlns:dc="http://purl.org/dc/elements/1.1/"
   xmlns:cc="http://creativecommons.org/ns#"
   xmlns:rdf="http://www.w3.org/1999/02/22-rdf-syntax-ns#"
   xmlns:svg="http://www.w3.org/2000/svg"
   xmlns="http://www.w3.org/2000/svg"
   xmlns:sodipodi="http://sodipodi.sourceforge.net/DTD/sodipodi-0.dtd"
   xmlns:inkscape="http://www.inkscape.org/namespaces/inkscape"
   version="1.1"
   id="Capa_1"
   x="0px"
   y="0px"
   viewBox="0 0 512 467.987"
   xml:space="preserve"
   sodipodi:docname="064-folder.svg"
   width="512"
   height="467.987"
   inkscape:version="0.92.3 (2405546, 2018-03-11)"><metadata
   id="metadata63"><rdf:RDF><cc:Work
       rdf:about=""><dc:format>image/svg+xml</dc:format><dc:type
         rdf:resource="http://purl.org/dc/dcmitype/StillImage" /><dc:title></dc:title></cc:Work></rdf:RDF></metadata><defs
   id="defs61" /><sodipodi:namedview
   pagecolor="#ffffff"
   bordercolor="#666666"
   borderopacity="1"
   objecttolerance="10"
   gridtolerance="10"
   guidetolerance="10"
   inkscape:pageopacity="0"
   inkscape:pageshadow="2"
   inkscape:window-width="1440"
   inkscape:window-height="837"
   id="namedview59"
   showgrid="false"
   fit-margin-top="0"
   fit-margin-left="0"
   fit-margin-right="0"
   fit-margin-bottom="0"
   inkscape:zoom="0.4609375"
   inkscape:cx="256"
   inkscape:cy="233.994"
   inkscape:window-x="-8"
   inkscape:window-y="-8"
   inkscape:window-maximized="1"
   inkscape:current-layer="Capa_1" />
<g
   id="g6"
   transform="translate(0,-22.007)">
	<path
   style="fill:#ff9155"
   d="m 502,197.646 v -77.313 c 0,-17.673 -14.327,-32 -32,-32 H 437.086 V 197.646 H 502"
   id="path2"
   inkscape:connector-curvature="0" />
	<path
   style="fill:#ff9155"
   d="M 10,187.562 V 64.007 c 0,-17.673 14.327,-32 32,-32 h 106.332 l 48.669,56.327 H 275 v 99.228 H 10"
   id="path4"
   inkscape:connector-curvature="0" />
</g>
<path
   style="fill:#f5c86e"
   d="m 42,121.988 h 428 c 17.673,0 32,14.327 32,32 v 272 c 0,17.673 -14.327,32 -32,32 H 42 c -17.673,0 -32,-14.327 -32,-32 v -272 c 0,-17.674 14.327,-32 32,-32 z"
   id="path8"
   inkscape:connector-curvature="0" />
<g
   id="g14"
   transform="translate(0,-22.007)">
	<path
   style="fill:#5a55e1;fill-opacity:1"
   d="M 288.193,237.995 H 380 c 13.255,0 24,10.745 24,24 v 99.999 c 0,13.255 -10.745,24 -24,24 H 132 c -13.255,0 -24,-10.745 -24,-24 v -99.999 c 0,-13.255 10.745,-24 24,-24 h 88.321"
   id="path10"
   inkscape:connector-curvature="0" />
	<polygon
   style="fill:#ffffff"
   points="158.417,144.025 454.257,143.995 403.138,32.162 "
   id="polygon12" />
</g>
<path
   d="m 346.5,255.988 h -181 c -5.523,0 -10,4.477 -10,10 0,5.523 4.477,10 10,10 h 181 c 5.523,0 10,-4.477 10,-10 0,-5.523 -4.477,-10 -10,-10 z"
   id="path16"
   inkscape:connector-curvature="0" />
<path
   d="m 165.5,303.987 c -5.523,0 -10,4.477 -10,10 0,5.523 4.477,10 10,10 h 140 c 5.523,0 10,-4.477 10,-10 0,-5.523 -4.477,-10 -10,-10 z"
   id="path18"
   inkscape:connector-curvature="0" />
<path
   d="m 346.014,303.987 h -0.11 c -5.523,0 -10,4.477 -10,10 0,5.523 4.477,10 10,10 h 0.11 c 5.523,0 10,-4.477 10,-10 0,-5.523 -4.477,-10 -10,-10 z"
   id="path20"
   inkscape:connector-curvature="0" />
<path
   d="m 254.694,225.988 h 0.131 c 5.523,0 10,-4.477 10,-10 0,-5.523 -4.477,-10 -10,-10 h -0.131 c -5.523,0 -10,4.477 -10,10 0,5.523 4.477,10 10,10 z"
   id="path22"
   inkscape:connector-curvature="0" />
<path
   d="m 380,205.988 h -91.807 c -5.523,0 -10,4.477 -10,10 0,5.523 4.477,10 10,10 H 380 c 7.72,0 14,6.28 14,14 v 100 c 0,7.72 -6.28,14 -14,14 H 132 c -7.72,0 -14,-6.28 -14,-14 v -100 c 0,-7.72 6.28,-14 14,-14 h 88.321 c 5.523,0 10,-4.477 10,-10 0,-5.523 -4.477,-10 -10,-10 H 132 c -18.748,0 -34,15.252 -34,34 v 100 c 0,18.748 15.252,34 34,34 h 248 c 18.748,0 34,-15.252 34,-34 v -100 c 0,-18.748 -15.252,-34 -34,-34 z"
   id="path24"
   inkscape:connector-curvature="0" />
<path
   d="m 470,56.327 h -32.914 c -0.606,0 -1.196,0.063 -1.772,0.166 L 412.232,5.997 c -1.103,-2.412 -3.118,-4.288 -5.604,-5.213 -2.484,-0.926 -5.235,-0.827 -7.648,0.276 L 277.409,56.631 C 276.636,56.44 275.832,56.327 275,56.327 H 201.576 L 155.899,3.462 C 153.999,1.264 151.237,0 148.332,0 H 42 C 18.841,0 0,18.841 0,42 v 383.987 c 0,23.159 18.841,42 42,42 h 428 c 23.159,0 42,-18.841 42,-42 V 98.327 c 0,-23.159 -18.841,-42 -42,-42 z m 0,20 c 12.131,0 22,9.869 22,22 v 19.903 c -6.403,-3.954 -13.938,-6.242 -22,-6.242 h -9.319 L 444.38,76.327 c 0,0 25.62,0 25.62,0 z m -31.309,35.661 H 204.414 L 398.2,23.407 Z M 42,20 h 101.756 l 45.677,52.865 c 1.9,2.198 4.662,3.462 7.567,3.462 h 37.32 l -78.014,35.661 H 42 c -8.062,0 -15.597,2.288 -22,6.242 V 42 C 20,29.869 29.869,20 42,20 Z m 450,405.988 c 0,12.131 -9.869,22 -22,22 H 42 c -12.131,0 -22,-9.869 -22,-22 V 165.555 153.988 c 0,-12.131 9.869,-22 22,-22 h 115.956 c 0.156,0.007 0.31,0.033 0.467,0.033 0.209,0 0.419,-0.02 0.629,-0.033 H 470 c 12.131,0 22,9.869 22,22 v 21.653 z"
   id="path26"
   inkscape:connector-curvature="0" />
<g
   id="g28"
   transform="translate(0,-22.007)">
</g>
<g
   id="g30"
   transform="translate(0,-22.007)">
</g>
<g
   id="g32"
   transform="translate(0,-22.007)">
</g>
<g
   id="g34"
   transform="translate(0,-22.007)">
</g>
<g
   id="g36"
   transform="translate(0,-22.007)">
</g>
<g
   id="g38"
   transform="translate(0,-22.007)">
</g>
<g
   id="g40"
   transform="translate(0,-22.007)">
</g>
<g
   id="g42"
   transform="translate(0,-22.007)">
</g>
<g
   id="g44"
   transform="translate(0,-22.007)">
</g>
<g
   id="g46"
   transform="translate(0,-22.007)">
</g>
<g
   id="g48"
   transform="translate(0,-22.007)">
</g>
<g
   id="g50"
   transform="translate(0,-22.007)">
</g>
<g
   id="g52"
   transform="translate(0,-22.007)">
</g>
<g
   id="g54"
   transform="translate(0,-22.007)">
</g>
<g
   id="g56"
   transform="translate(0,-22.007)">
</g>
</svg>