<?xml version="1.0" encoding="UTF-8" standalone="no"?>
<!-- Generator: Adobe Illustrator 19.0.0, SVG Export Plug-In . SVG Version: 6.00 Build 0)  -->

<svg
   xmlns:dc="http://purl.org/dc/elements/1.1/"
   xmlns:cc="http://creativecommons.org/ns#"
   xmlns:rdf="http://www.w3.org/1999/02/22-rdf-syntax-ns#"
   xmlns:svg="http://www.w3.org/2000/svg"
   xmlns="http://www.w3.org/2000/svg"
   xmlns:sodipodi="http://sodipodi.sourceforge.net/DTD/sodipodi-0.dtd"
   xmlns:inkscape="http://www.inkscape.org/namespaces/inkscape"
   version="1.1"
   id="Capa_1"
   x="0px"
   y="0px"
   viewBox="0 0 512 512"
   style="enable-background:new 0 0 512 512;"
   xml:space="preserve"
   sodipodi:docname="evidence.svg"
   inkscape:version="0.92.3 (2405546, 2018-03-11)"><metadata
   id="metadata55"><rdf:RDF><cc:Work
       rdf:about=""><dc:format>image/svg+xml</dc:format><dc:type
         rdf:resource="http://purl.org/dc/dcmitype/StillImage" /><dc:title></dc:title></cc:Work></rdf:RDF></metadata><defs
   id="defs53" /><sodipodi:namedview
   pagecolor="#ffffff"
   bordercolor="#666666"
   borderopacity="1"
   objecttolerance="10"
   gridtolerance="10"
   guidetolerance="10"
   inkscape:pageopacity="0"
   inkscape:pageshadow="2"
   inkscape:window-width="1440"
   inkscape:window-height="837"
   id="namedview51"
   showgrid="false"
   inkscape:zoom="0.32593203"
   inkscape:cx="-344.19984"
   inkscape:cy="536.46032"
   inkscape:window-x="-8"
   inkscape:window-y="-8"
   inkscape:window-maximized="1"
   inkscape:current-layer="Capa_1" />
<circle
   style="fill:#5a55e1;fill-opacity:1"
   cx="198.001"
   cy="197.951"
   r="188.011"
   id="circle2" />
<circle
   style="fill:#C8F5FF;"
   cx="198.001"
   cy="197.951"
   r="140.008"
   id="circle4" />
<path
   style="fill:#F5B955;"
   d="M351.867,308.329l141.145,141.144c12.008,12.008,12.008,31.479,0,43.488  c-6.004,6.003-13.874,9.007-21.744,9.007c-7.87,0-15.739-3.002-21.744-9.007L308.379,351.817L351.867,308.329z"
   id="path6" />
<rect
   x="318.317"
   y="322.224"
   transform="matrix(0.7071 -0.7071 0.7071 0.7071 -144.5512 349.0527)"
   style="fill:#F0F0FA;"
   width="61.503"
   height="53.583"
   id="rect8" />
<path
   d="M198.001,347.959c82.715,0,150.008-67.294,150.008-150.008S280.716,47.942,198.001,47.942S47.992,115.236,47.992,197.95  S115.286,347.959,198.001,347.959z M198.001,67.943c71.686,0,130.007,58.32,130.007,130.007s-58.321,130.007-130.007,130.007  S67.993,269.637,67.993,197.95S126.315,67.943,198.001,67.943z"
   id="path10" />
<path
   d="M72.129,323.823c-3.905-3.904-10.238-3.904-14.144,0c-3.905,3.905-3.905,10.238,0,14.144l0.928,0.922  c1.949,1.926,4.49,2.888,7.029,2.888c2.579,0,5.156-0.991,7.112-2.97c3.883-3.928,3.846-10.261-0.082-14.144L72.129,323.823z"
   id="path12" />
<path
   d="M500.084,442.402L363.843,306.163c50.105-76.75,41.501-180.898-25.827-248.228c-77.204-77.203-202.825-77.203-280.03,0  C25.945,89.977,5.727,132.399,1.055,177.384c-4.604,44.337,5.965,89.348,29.761,126.742c2.965,4.661,9.147,6.033,13.806,3.068  c4.659-2.965,6.033-9.147,3.068-13.806C3.329,223.675,13.606,130.599,72.129,72.077c69.407-69.406,182.338-69.406,251.744,0  s69.406,182.338,0,251.744c-59.871,59.873-154.341,69.242-224.625,22.277c-4.591-3.068-10.803-1.833-13.871,2.759  c-3.068,4.592-1.833,10.803,2.759,13.871c33.335,22.275,71.55,33.159,109.597,33.159c38.013,0,75.848-10.881,108.455-32.119  l33.002,33.002c0.001,0.001,0.002,0.003,0.004,0.004c0.001,0.001,0.003,0.002,0.004,0.004l103.254,103.253  c7.697,7.696,17.931,11.936,28.815,11.936s21.117-4.238,28.816-11.937C515.972,484.142,515.972,458.29,500.084,442.402z   M338.017,337.966c4.954-4.955,9.586-10.112,13.905-15.44l23.699,23.698c-0.059,0.056-0.122,0.105-0.18,0.163l-29.174,29.174  l-23.699-23.698C327.91,347.54,333.072,342.911,338.017,337.966z M485.942,485.889c-3.92,3.92-9.132,6.078-14.674,6.078  c-5.542,0-10.753-2.158-14.673-6.077l-96.185-96.184l29.174-29.174c0.058-0.058,0.107-0.121,0.163-0.18l96.195,96.194  C494.031,464.634,494.031,477.799,485.942,485.889z"
   id="path14" />
<path
   d="M228.937,123.061c30.416,12.579,50.069,41.975,50.069,74.89c0,5.522,4.477,10.001,10.001,10.001s10.001-4.478,10.001-10.001  c0-41.038-24.503-77.689-62.427-93.373c-5.104-2.109-10.953,0.315-13.064,5.419C221.406,115.102,223.832,120.949,228.937,123.061z"
   id="path16" />
<path
   d="M198.001,116.946c0.372,0,0.742,0.003,1.113,0.008c0.048,0.001,0.095,0.001,0.143,0.001c5.457,0,9.92-4.385,9.997-9.86  c0.078-5.522-4.336-10.064-9.86-10.141c-0.464-0.007-0.928-0.01-1.394-0.01c-5.523,0-10.001,4.478-10.001,10.001  S192.478,116.946,198.001,116.946z"
   id="path18" />
<g
   id="g20">
</g>
<g
   id="g22">
</g>
<g
   id="g24">
</g>
<g
   id="g26">
</g>
<g
   id="g28">
</g>
<g
   id="g30">
</g>
<g
   id="g32">
</g>
<g
   id="g34">
</g>
<g
   id="g36">
</g>
<g
   id="g38">
</g>
<g
   id="g40">
</g>
<g
   id="g42">
</g>
<g
   id="g44">
</g>
<g
   id="g46">
</g>
<g
   id="g48">
</g>
</svg>