<?xml version="1.0" encoding="UTF-8" standalone="no"?>
<!-- Created with Inkscape (http://www.inkscape.org/) -->

<svg
   xmlns:dc="http://purl.org/dc/elements/1.1/"
   xmlns:cc="http://creativecommons.org/ns#"
   xmlns:rdf="http://www.w3.org/1999/02/22-rdf-syntax-ns#"
   xmlns:svg="http://www.w3.org/2000/svg"
   xmlns="http://www.w3.org/2000/svg"
   xmlns:sodipodi="http://sodipodi.sourceforge.net/DTD/sodipodi-0.dtd"
   xmlns:inkscape="http://www.inkscape.org/namespaces/inkscape"
   width="60.000008mm"
   height="6.5182157mm"
   viewBox="0 0 60.000008 6.5182156"
   version="1.1"
   id="svg1318"
   inkscape:version="0.92.3 (2405546, 2018-03-11)"
   sodipodi:docname="Logo final text.svg">
  <defs
     id="defs1312">
    <clipPath
       clipPathUnits="userSpaceOnUse"
       id="clipPath986-5-8">
      <rect
         style="fill:#000000;fill-opacity:1;fill-rule:nonzero;stroke:none;stroke-width:0.09943165;stroke-opacity:1"
         id="rect988-0-5"
         width="31.722609"
         height="51.491058"
         x="-2.5554855"
         y="4.9855542" />
    </clipPath>
  </defs>
  <sodipodi:namedview
     id="base"
     pagecolor="#ffffff"
     bordercolor="#666666"
     borderopacity="1.0"
     inkscape:pageopacity="0.0"
     inkscape:pageshadow="2"
     inkscape:zoom="1.979899"
     inkscape:cx="63.279261"
     inkscape:cy="42.185954"
     inkscape:document-units="mm"
     inkscape:current-layer="layer1"
     showgrid="false"
     fit-margin-top="0"
     fit-margin-left="0"
     fit-margin-right="0"
     fit-margin-bottom="0"
     inkscape:window-width="1440"
     inkscape:window-height="837"
     inkscape:window-x="-8"
     inkscape:window-y="-8"
     inkscape:window-maximized="1" />
  <metadata
     id="metadata1315">
    <rdf:RDF>
      <cc:Work
         rdf:about="">
        <dc:format>image/svg+xml</dc:format>
        <dc:type
           rdf:resource="http://purl.org/dc/dcmitype/StillImage" />
        <dc:title></dc:title>
      </cc:Work>
    </rdf:RDF>
  </metadata>
  <g
     inkscape:label="Layer 1"
     inkscape:groupmode="layer"
     id="layer1"
     transform="translate(-62.20759,-78.251781)">
    <g
       inkscape:export-ydpi="298.98599"
       inkscape:export-xdpi="298.98599"
       inkscape:export-filename="C:\Users\User3\Desktop\g975-4.png"
       id="g1371"
       transform="matrix(0.03238431,0,0,0.02866923,46.580278,25.790865)">
      <g
         aria-label="InterviewBuddy"
         transform="matrix(1.2039019,0,0,1.2039019,-79.326975,-505.15718)"
         style="font-style:normal;font-variant:normal;font-weight:normal;font-stretch:normal;font-size:40px;line-height:1.25;font-family:'Moon 2.0';-inkscape-font-specification:'Moon 2.0, ';letter-spacing:0px;word-spacing:0px;fill:#f0f0f7;fill-opacity:1;stroke:none;stroke-opacity:1"
         id="flowRoot1361">
        <path
           inkscape:connector-curvature="0"
           d="m 472.864,2075.6 c -3.456,0 -6.144,-2.688 -6.144,-6.144 v -123.264 c 0,-3.456 2.688,-6.144 6.144,-6.144 3.456,0 6.144,2.688 6.144,6.144 v 123.264 c 0,3.456 -2.688,6.144 -6.144,6.144 z"
           style="font-style:normal;font-variant:normal;font-weight:normal;font-stretch:normal;font-size:192px;font-family:'Moon 2.0';-inkscape-font-specification:'Moon 2.0, ';fill:#f0f0f7;fill-opacity:1;stroke:none;stroke-opacity:1"
           id="path1239" />
        <path
           inkscape:connector-curvature="0"
           d="m 564.403,1985.168 c -7.488,-8.64 -18.24,-13.248 -29.952,-13.248 -12.096,0 -22.848,4.8 -30.72,12.864 v -6.912 c 0,-3.264 -2.688,-5.952 -6.144,-5.952 -3.264,0 -5.952,2.688 -5.952,5.952 v 91.584 c 0,3.456 2.688,6.144 5.952,6.144 3.456,0 6.144,-2.688 6.144,-6.144 v -51.84 c 0,-0.192 0,-0.384 0,-0.576 v -0.96 c 0,-17.856 13.44,-32.064 30.72,-32.064 16.704,0 28.8,13.632 28.8,32.064 v 53.376 c 0,3.456 2.688,6.144 6.144,6.144 3.264,0 5.952,-2.688 5.952,-6.144 v -53.376 c 0,-11.904 -3.84,-22.848 -10.944,-30.912 z"
           style="font-style:normal;font-variant:normal;font-weight:normal;font-stretch:normal;font-size:192px;font-family:'Moon 2.0';-inkscape-font-specification:'Moon 2.0, ';fill:#f0f0f7;fill-opacity:1;stroke:none;stroke-opacity:1"
           id="path1241" />
        <path
           inkscape:connector-curvature="0"
           d="m 641.413,2058.32 c 2.688,2.112 2.88,5.952 0.768,8.64 -4.8,5.568 -11.712,8.64 -18.816,8.64 -13.824,0 -24.96,-11.136 -24.96,-24.768 v -66.816 h -5.568 c -3.264,0 -5.952,-2.688 -5.952,-6.144 0,-3.264 2.688,-5.952 5.952,-5.952 h 5.568 v -19.584 c 0,-3.456 2.88,-6.144 6.144,-6.144 3.456,0 6.144,2.688 6.144,6.144 v 19.584 h 21.696 c 3.456,0 6.144,2.688 6.144,5.952 0,3.456 -2.688,6.144 -6.144,6.144 h -21.696 v 66.816 c 0,6.912 5.76,12.48 12.672,12.48 3.648,0 7.104,-1.536 9.408,-4.416 2.304,-2.496 6.144,-2.88 8.64,-0.576 z"
           style="font-style:normal;font-variant:normal;font-weight:normal;font-stretch:normal;font-size:192px;font-family:'Moon 2.0';-inkscape-font-specification:'Moon 2.0, ';fill:#f0f0f7;fill-opacity:1;stroke:none;stroke-opacity:1"
           id="path1243" />
        <path
           inkscape:connector-curvature="0"
           d="m 695.305,2075.6 c -28.032,0 -48.96,-22.272 -48.96,-51.84 0,-14.016 4.608,-26.88 13.056,-36.48 8.832,-9.984 21.312,-15.36 34.944,-15.36 27.456,0 47.232,21.696 47.232,51.84 0,3.264 -2.688,6.144 -6.144,6.144 h -76.608 c 2.688,19.392 17.472,33.408 36.48,33.408 12.864,0 24.192,-6.144 30.72,-17.28 1.92,-2.88 5.568,-3.648 8.448,-1.92 2.88,1.728 3.84,5.568 2.112,8.448 -9.024,14.592 -24,23.04 -41.28,23.04 z m -36.48,-57.984 h 70.08 c -2.304,-19.968 -15.744,-33.6 -34.56,-33.6 -18.816,0 -33.024,13.824 -35.52,33.6 z"
           style="font-style:normal;font-variant:normal;font-weight:normal;font-stretch:normal;font-size:192px;font-family:'Moon 2.0';-inkscape-font-specification:'Moon 2.0, ';fill:#f0f0f7;fill-opacity:1;stroke:none;stroke-opacity:1"
           id="path1245" />
        <path
           inkscape:connector-curvature="0"
           d="m 795.991,1971.92 c -11.904,0 -22.272,4.608 -29.76,12.288 v -6.336 c 0,-3.264 -2.688,-5.952 -6.144,-5.952 -3.264,0 -5.952,2.688 -5.952,5.952 v 91.584 c 0,3.456 2.688,6.144 5.952,6.144 3.456,0 6.144,-2.688 6.144,-6.144 v -51.84 c 0,-0.192 0,-0.384 0,-0.576 v -0.96 c 0,-18.24 12.864,-32.064 29.76,-32.064 3.456,0 6.144,-2.688 6.144,-6.144 0,-3.264 -2.688,-5.952 -6.144,-5.952 z"
           style="font-style:normal;font-variant:normal;font-weight:normal;font-stretch:normal;font-size:192px;font-family:'Moon 2.0';-inkscape-font-specification:'Moon 2.0, ';fill:#f0f0f7;fill-opacity:1;stroke:none;stroke-opacity:1"
           id="path1247" />
        <path
           inkscape:connector-curvature="0"
           d="m 856.768,2075.6 c -2.496,0 -4.8,-1.536 -5.76,-3.84 l -36.672,-91.584 c -1.344,-3.072 0.192,-6.72 3.456,-7.872 3.072,-1.344 6.72,0.192 7.872,3.456 l 31.104,77.184 31.104,-77.184 c 1.152,-3.264 4.8,-4.8 7.872,-3.456 3.072,1.152 4.608,4.8 3.456,7.872 l -36.864,91.584 c -0.768,2.304 -3.072,3.84 -5.568,3.84 z"
           style="font-style:normal;font-variant:normal;font-weight:normal;font-stretch:normal;font-size:192px;font-family:'Moon 2.0';-inkscape-font-specification:'Moon 2.0, ';fill:#f0f0f7;fill-opacity:1;stroke:none;stroke-opacity:1"
           id="path1249" />
        <path
           inkscape:connector-curvature="0"
           d="m 918.94,1949.072 c 3.84,0 6.72,3.072 6.72,6.528 0,3.648 -2.88,6.528 -6.72,6.528 -3.648,0 -6.72,-2.88 -6.72,-6.528 0,-3.456 3.072,-6.528 6.72,-6.528 z m 0,126.528 c -3.264,0 -6.144,-2.688 -6.144,-6.144 v -91.584 c 0,-3.264 2.88,-5.952 6.144,-5.952 3.456,0 6.144,2.688 6.144,5.952 v 91.584 c 0,3.456 -2.688,6.144 -6.144,6.144 z"
           style="font-style:normal;font-variant:normal;font-weight:normal;font-stretch:normal;font-size:192px;font-family:'Moon 2.0';-inkscape-font-specification:'Moon 2.0, ';fill:#f0f0f7;fill-opacity:1;stroke:none;stroke-opacity:1"
           id="path1251" />
        <path
           inkscape:connector-curvature="0"
           d="m 988.18,2075.6 c -28.032,0 -48.96,-22.272 -48.96,-51.84 0,-14.016 4.608,-26.88 13.056,-36.48 8.832,-9.984 21.312,-15.36 34.944,-15.36 27.456,0 47.232,21.696 47.232,51.84 0,3.264 -2.688,6.144 -6.144,6.144 H 951.7 c 2.688,19.392 17.472,33.408 36.48,33.408 12.864,0 24.192,-6.144 30.72,-17.28 1.92,-2.88 5.568,-3.648 8.448,-1.92 2.88,1.728 3.84,5.568 2.112,8.448 -9.024,14.592 -24,23.04 -41.28,23.04 z m -36.48,-57.984 h 70.08 c -2.304,-19.968 -15.744,-33.6 -34.56,-33.6 -18.816,0 -33.024,13.824 -35.52,33.6 z"
           style="font-style:normal;font-variant:normal;font-weight:normal;font-stretch:normal;font-size:192px;font-family:'Moon 2.0';-inkscape-font-specification:'Moon 2.0, ';fill:#f0f0f7;fill-opacity:1;stroke:none;stroke-opacity:1"
           id="path1253" />
        <path
           inkscape:connector-curvature="0"
           d="m 1132.684,2075.6 c -2.496,0 -4.608,-1.536 -5.568,-3.84 l -24.192,-58.752 -24.192,58.752 c -0.96,2.496 -3.264,3.84 -5.952,3.84 -2.496,-0.192 -4.8,-1.728 -5.568,-4.224 l -29.76,-91.584 c -0.96,-3.072 0.768,-6.528 3.84,-7.68 3.264,-0.96 6.72,0.768 7.872,4.032 l 24.576,75.648 23.424,-57.408 c 0.96,-2.304 3.264,-3.648 5.76,-3.648 2.496,0 4.608,1.344 5.568,3.648 l 23.616,57.408 24.576,-75.648 c 1.152,-3.264 4.608,-4.992 7.68,-4.032 3.264,1.152 4.992,4.608 4.032,7.68 l -29.952,91.584 c -0.768,2.496 -2.88,4.032 -5.568,4.224 z"
           style="font-style:normal;font-variant:normal;font-weight:normal;font-stretch:normal;font-size:192px;font-family:'Moon 2.0';-inkscape-font-specification:'Moon 2.0, ';fill:#f0f0f7;fill-opacity:1;stroke:none;stroke-opacity:1"
           id="path1255" />
        <path
           inkscape:connector-curvature="0"
           d="m 1260.583,2002.64 c 7.68,-6.528 12.672,-16.32 12.672,-27.264 0,-19.392 -15.936,-35.328 -35.52,-35.328 h -51.456 c -3.456,0 -6.144,2.688 -6.144,6.144 v 123.264 c 0,3.456 2.688,6.144 6.144,6.144 h 57.408 c 21.12,0 38.4,-17.28 38.4,-38.4 0,-15.168 -8.832,-28.224 -21.504,-34.56 z m 0.384,-27.264 c 0,12.864 -10.368,23.424 -23.232,23.424 h -45.312 v -46.656 h 45.312 c 12.864,0 23.232,10.56 23.232,23.232 z m -17.28,87.936 h -51.264 v -52.416 h 51.264 c 14.4,0 26.112,11.904 26.112,26.304 0,14.4 -11.712,26.112 -26.112,26.112 z"
           style="font-style:normal;font-variant:normal;font-weight:normal;font-stretch:normal;font-size:192px;font-family:'Moon 2.0';-inkscape-font-specification:'Moon 2.0, ';fill:#f0f0f7;fill-opacity:1;stroke:none;stroke-opacity:1"
           id="path1257" />
        <path
           inkscape:connector-curvature="0"
           d="m 1371.52,1971.92 c -3.456,0 -6.144,2.688 -6.144,5.952 v 52.032 c 0,0.192 0,0.384 0,0.576 v 0.768 c 0,18.048 -13.44,32.064 -30.528,32.064 -16.704,0 -28.8,-13.44 -28.8,-32.064 v -53.376 c 0,-3.264 -2.688,-5.952 -6.144,-5.952 -3.456,0 -6.144,2.688 -6.144,5.952 v 53.376 c 0,11.904 4.032,23.04 11.136,31.104 7.488,8.448 18.048,13.248 29.952,13.248 12.096,0 22.848,-4.992 30.528,-13.056 v 6.912 c 0,3.456 2.688,6.144 6.144,6.144 3.456,0 6.144,-2.688 6.144,-6.144 v -91.584 c 0,-3.264 -2.688,-5.952 -6.144,-5.952 z"
           style="font-style:normal;font-variant:normal;font-weight:normal;font-stretch:normal;font-size:192px;font-family:'Moon 2.0';-inkscape-font-specification:'Moon 2.0, ';fill:#f0f0f7;fill-opacity:1;stroke:none;stroke-opacity:1"
           id="path1259" />
        <path
           inkscape:connector-curvature="0"
           d="m 1481.17,1940.048 c -3.456,0 -6.144,2.688 -6.144,6.144 v 42.432 c -8.832,-10.368 -21.888,-16.704 -36.864,-16.704 -28.032,0 -49.152,22.272 -49.152,51.84 0,29.568 21.12,51.84 49.152,51.84 14.976,0 28.032,-6.336 36.864,-16.896 v 10.752 c 0,3.456 2.688,6.144 6.144,6.144 3.264,0 5.952,-2.688 5.952,-6.144 v -123.264 c 0,-3.456 -2.688,-6.144 -5.952,-6.144 z m -43.008,123.264 c -20.928,0 -36.864,-17.088 -36.864,-39.552 0,-22.656 15.936,-39.744 36.864,-39.744 20.928,0 36.864,17.088 36.864,39.744 0,22.464 -15.936,39.552 -36.864,39.552 z"
           style="font-style:normal;font-variant:normal;font-weight:normal;font-stretch:normal;font-size:192px;font-family:'Moon 2.0';-inkscape-font-specification:'Moon 2.0, ';fill:#f0f0f7;fill-opacity:1;stroke:none;stroke-opacity:1"
           id="path1261" />
        <path
           inkscape:connector-curvature="0"
           d="m 1590.67,1940.048 c -3.456,0 -6.144,2.688 -6.144,6.144 v 42.432 c -8.832,-10.368 -21.888,-16.704 -36.864,-16.704 -28.032,0 -49.152,22.272 -49.152,51.84 0,29.568 21.12,51.84 49.152,51.84 14.976,0 28.032,-6.336 36.864,-16.896 v 10.752 c 0,3.456 2.688,6.144 6.144,6.144 3.264,0 5.952,-2.688 5.952,-6.144 v -123.264 c 0,-3.456 -2.688,-6.144 -5.952,-6.144 z m -43.008,123.264 c -20.928,0 -36.864,-17.088 -36.864,-39.552 0,-22.656 15.936,-39.744 36.864,-39.744 20.928,0 36.864,17.088 36.864,39.744 0,22.464 -15.936,39.552 -36.864,39.552 z"
           style="font-style:normal;font-variant:normal;font-weight:normal;font-stretch:normal;font-size:192px;font-family:'Moon 2.0';-inkscape-font-specification:'Moon 2.0, ';fill:#f0f0f7;fill-opacity:1;stroke:none;stroke-opacity:1"
           id="path1263" />
        <path
           inkscape:connector-curvature="0"
           d="m 1686.922,1971.92 c -3.456,0 -6.144,2.688 -6.144,5.952 v 52.8 c 0,18.624 -13.056,32.64 -30.144,32.64 -17.28,0 -30.336,-14.016 -30.336,-32.64 v -52.8 c 0,-3.264 -2.688,-5.952 -6.144,-5.952 -3.264,0 -6.144,2.688 -6.144,5.952 v 52.8 c 0,25.728 18.432,44.928 42.624,44.928 11.904,0 22.464,-4.8 30.144,-12.672 v 20.544 c 0,18.048 -14.592,32.64 -32.64,32.64 -11.904,0 -22.848,-6.336 -28.608,-16.704 -1.536,-3.072 -5.376,-4.032 -8.256,-2.496 -3.072,1.728 -4.032,5.376 -2.496,8.256 8.064,14.4 23.04,23.232 39.36,23.232 24.768,0 44.928,-20.16 44.928,-44.928 v -105.6 c 0,-3.264 -2.88,-5.952 -6.144,-5.952 z"
           style="font-style:normal;font-variant:normal;font-weight:normal;font-stretch:normal;font-size:192px;font-family:'Moon 2.0';-inkscape-font-specification:'Moon 2.0, ';fill:#f0f0f7;fill-opacity:1;stroke:none;stroke-opacity:1"
           id="path1265" />
      </g>
      <g
         aria-label="Pro"
         transform="matrix(1.2039019,0,0,1.2039019,1466.4635,-505.75913)"
         style="font-style:normal;font-variant:normal;font-weight:normal;font-stretch:normal;font-size:40px;line-height:1.25;font-family:'Moon 2.0';-inkscape-font-specification:'Moon 2.0, ';letter-spacing:0px;word-spacing:0px;fill:#f0f0f7;fill-opacity:1;stroke:none"
         id="flowRoot1369">
        <path
           inkscape:connector-curvature="0"
           d="m 512.992,1940.048 h -41.088 c -3.456,0 -6.144,2.688 -6.144,6.144 v 123.264 c 0,3.456 2.688,6.144 6.144,6.144 3.456,0 6.144,-2.688 6.144,-6.144 v -34.752 h 34.944 c 26.112,0 47.232,-21.12 47.232,-47.232 0,-26.304 -21.12,-47.424 -47.232,-47.424 z m 0,82.56 h -34.944 v -70.464 h 34.944 c 19.2,0 35.136,15.936 35.136,35.328 0,19.2 -15.936,35.136 -35.136,35.136 z"
           style="font-style:normal;font-variant:normal;font-weight:normal;font-stretch:normal;font-size:192px;font-family:'Moon 2.0';-inkscape-font-specification:'Moon 2.0, ';fill:#f0f0f7;fill-opacity:1"
           id="path1268" />
        <path
           inkscape:connector-curvature="0"
           d="m 613.741,1971.92 c -11.904,0 -22.272,4.608 -29.76,12.288 v -6.336 c 0,-3.264 -2.688,-5.952 -6.144,-5.952 -3.264,0 -5.952,2.688 -5.952,5.952 v 91.584 c 0,3.456 2.688,6.144 5.952,6.144 3.456,0 6.144,-2.688 6.144,-6.144 v -51.84 c 0,-0.192 0,-0.384 0,-0.576 v -0.96 c 0,-18.24 12.864,-32.064 29.76,-32.064 3.456,0 6.144,-2.688 6.144,-6.144 0,-3.264 -2.688,-5.952 -6.144,-5.952 z"
           style="font-style:normal;font-variant:normal;font-weight:normal;font-stretch:normal;font-size:192px;font-family:'Moon 2.0';-inkscape-font-specification:'Moon 2.0, ';fill:#f0f0f7;fill-opacity:1"
           id="path1270" />
        <path
           inkscape:connector-curvature="0"
           d="m 669.85,2075.6 c -28.608,0 -51.84,-23.232 -51.84,-51.84 0,-28.608 23.232,-51.84 51.84,-51.84 28.608,0 51.84,23.232 51.84,51.84 0,28.608 -23.232,51.84 -51.84,51.84 z m 0,-91.584 c -21.888,0 -39.552,17.856 -39.552,39.744 0,21.888 17.664,39.552 39.552,39.552 21.888,0 39.552,-17.664 39.552,-39.552 0,-21.888 -17.664,-39.744 -39.552,-39.744 z"
           style="font-style:normal;font-variant:normal;font-weight:normal;font-stretch:normal;font-size:192px;font-family:'Moon 2.0';-inkscape-font-specification:'Moon 2.0, ';fill:#f0f0f7;fill-opacity:1"
           id="path1272" />
      </g>
    </g>
  </g>
</svg>
