<?xml version="1.0" encoding="UTF-8" standalone="no"?>
<!-- Created with Inkscape (http://www.inkscape.org/) -->

<svg
   xmlns:dc="http://purl.org/dc/elements/1.1/"
   xmlns:cc="http://creativecommons.org/ns#"
   xmlns:rdf="http://www.w3.org/1999/02/22-rdf-syntax-ns#"
   xmlns:svg="http://www.w3.org/2000/svg"
   xmlns="http://www.w3.org/2000/svg"
   xmlns:xlink="http://www.w3.org/1999/xlink"
   xmlns:sodipodi="http://sodipodi.sourceforge.net/DTD/sodipodi-0.dtd"
   xmlns:inkscape="http://www.inkscape.org/namespaces/inkscape"
   width="142.05267mm"
   height="127.00757mm"
   viewBox="0 0 142.05267 127.00757"
   version="1.1"
   id="svg8"
   inkscape:version="0.92.3 (2405546, 2018-03-11)"
   sodipodi:docname="multi party.svg">
  <defs
     id="defs2">
    <circle
       r="94.073997"
       cy="94.073997"
       cx="94.073997"
       id="SVGID_1_" />
    <circle
       r="94.073997"
       cy="94.073997"
       cx="94.073997"
       id="SVGID_1_-3" />
    <circle
       r="94.073997"
       cy="94.073997"
       cx="94.073997"
       id="SVGID_1_-8" />
    <circle
       r="94.073997"
       cy="94.074997"
       cx="94.073997"
       id="SVGID_1_-4" />
  </defs>
  <sodipodi:namedview
     id="base"
     pagecolor="#ffffff"
     bordercolor="#666666"
     borderopacity="1.0"
     inkscape:pageopacity="0.0"
     inkscape:pageshadow="2"
     inkscape:zoom="0.49497475"
     inkscape:cx="-155.16836"
     inkscape:cy="210.84889"
     inkscape:document-units="mm"
     inkscape:current-layer="layer1"
     showgrid="false"
     inkscape:window-width="1440"
     inkscape:window-height="837"
     inkscape:window-x="-8"
     inkscape:window-y="-8"
     inkscape:window-maximized="1"
     fit-margin-top="0"
     fit-margin-left="0"
     fit-margin-right="0"
     fit-margin-bottom="0" />
  <metadata
     id="metadata5">
    <rdf:RDF>
      <cc:Work
         rdf:about="">
        <dc:format>image/svg+xml</dc:format>
        <dc:type
           rdf:resource="http://purl.org/dc/dcmitype/StillImage" />
        <dc:title></dc:title>
      </cc:Work>
    </rdf:RDF>
  </metadata>
  <g
     inkscape:label="Layer 1"
     inkscape:groupmode="layer"
     id="layer1"
     transform="translate(-37.245818,-74.454213)">
    <g
       id="g4594"
       transform="matrix(0.27744662,0,0,0.27744662,37.245818,66.931525)">
      <rect
         id="rect4518"
         height="159.92101"
         width="319.841"
         style="fill:#a5dc69"
         y="37.112"
         x="95.952003" />
      <rect
         id="rect4520"
         height="127.937"
         width="127.937"
         style="fill:#f5c86e"
         y="346.95801"
         x="9.9949999" />
      <rect
         id="rect4522"
         height="127.937"
         width="127.937"
         style="fill:#7d9bff"
         y="346.95801"
         x="192.035" />
      <rect
         id="rect4524"
         height="127.937"
         width="127.937"
         style="fill:#ff8c8c"
         y="346.95801"
         x="374.064" />
      <path
         id="path4526"
         d="m 342.83,249.003 c -2.629,0 -5.207,1.068 -7.066,2.929 -1.859,1.86 -2.929,4.438 -2.929,7.066 0,2.628 1.068,5.207 2.929,7.065 1.859,1.859 4.438,2.93 7.066,2.93 2.629,0 5.197,-1.069 7.065,-2.93 1.859,-1.858 2.93,-4.437 2.93,-7.065 0,-2.628 -1.069,-5.207 -2.93,-7.066 -1.858,-1.86 -4.436,-2.929 -7.065,-2.929 z"
         inkscape:connector-curvature="0" />
      <path
         id="path4528"
         d="m 319.968,336.96 h -54.1 v -67.966 h 39.98 c 5.519,0 9.995,-4.476 9.995,-9.995 0,-5.519 -4.476,-9.995 -9.995,-9.995 h -39.98 v -41.979 h 149.926 c 5.519,0 9.995,-4.476 9.995,-9.995 V 37.109 c 0,-5.519 -4.476,-9.995 -9.995,-9.995 H 95.952 c -5.519,0 -9.995,4.476 -9.995,9.995 V 197.03 c 0,5.519 4.476,9.995 9.995,9.995 h 149.926 v 41.979 H 75.131 c -5.519,0 -9.995,4.476 -9.995,9.995 V 336.96 H 9.995 C 4.476,336.96 0,341.436 0,346.955 v 127.937 c 0,5.519 4.476,9.995 9.995,9.995 h 127.937 c 5.519,0 9.995,-4.476 9.995,-9.995 V 346.955 c 0,-5.519 -4.476,-9.995 -9.995,-9.995 H 85.126 v -67.966 h 160.752 v 67.966 h -53.846 c -5.519,0 -9.995,4.476 -9.995,9.995 v 127.937 c 0,5.519 4.476,9.995 9.995,9.995 h 127.937 c 5.519,0 9.995,-4.476 9.995,-9.995 V 346.955 c -10e-4,-5.52 -4.477,-9.995 -9.996,-9.995 z M 105.947,87.084 h 67.71 c 5.519,0 9.995,-4.476 9.995,-9.995 0,-5.519 -4.476,-9.995 -9.995,-9.995 h -67.71 V 47.104 H 405.798 V 187.035 H 105.947 Z m 21.99,377.812 H 19.99 V 356.95 h 107.946 v 107.946 z m 182.036,0 H 202.027 V 356.95 h 107.946 z"
         inkscape:connector-curvature="0" />
      <path
         id="path4530"
         d="M 502.005,336.96 H 446.61 v -77.961 c 0,-5.519 -4.476,-9.995 -9.995,-9.995 H 381.81 c -5.519,0 -9.995,4.476 -9.995,9.995 0,5.519 4.476,9.995 9.995,9.995 h 44.81 v 67.966 h -52.552 c -5.519,0 -9.995,4.476 -9.995,9.995 v 127.937 c 0,5.519 4.476,9.995 9.995,9.995 h 127.937 c 5.519,0 9.995,-4.476 9.995,-9.995 V 346.955 c 0,-5.52 -4.476,-9.995 -9.995,-9.995 z M 492.01,464.896 H 384.063 V 356.95 H 492.01 Z"
         inkscape:connector-curvature="0" />
      <path
         id="path4532"
         d="m 385.72875,67.094 c -2.639,0 -5.207,1.068 -7.076,2.929 -1.858,1.859 -2.919,4.438 -2.919,7.066 0,2.628 1.06,5.207 2.919,7.065 1.869,1.859 4.448,2.93 7.076,2.93 2.629,0 5.197,-1.069 7.066,-2.93 1.859,-1.858 2.929,-4.437 2.929,-7.065 0,-2.628 -1.068,-5.207 -2.929,-7.066 -1.86,-1.86 -4.438,-2.929 -7.066,-2.929 z"
         inkscape:connector-curvature="0" />
      <g
         id="g4534" />
      <g
         id="g4536" />
      <g
         id="g4538" />
      <g
         id="g4540" />
      <g
         id="g4542" />
      <g
         id="g4544" />
      <g
         id="g4546" />
      <g
         id="g4548" />
      <g
         id="g4550" />
      <g
         id="g4552" />
      <g
         id="g4554" />
      <g
         id="g4556" />
      <g
         id="g4558" />
      <g
         id="g4560" />
      <g
         id="g4562" />
    </g>
    <g
       id="g4825"
       transform="matrix(0.2344207,0,0,0.2344207,155.94182,68.340739)">
      <g
         transform="translate(-298.86781,40.197735)"
         id="g4737">
        <defs
           id="defs4684">
          <circle
             id="circle4779"
             cx="94.073997"
             cy="94.073997"
             r="94.073997" />
        </defs>
        <clipPath
           id="SVGID_2_">
          <use
             height="100%"
             width="100%"
             y="0"
             x="0"
             xlink:href="#SVGID_1_"
             style="overflow:visible"
             id="use4688" />
        </clipPath>
        <path
           inkscape:connector-curvature="0"
           style="fill:#ecc19c"
           d="M 135.938,52.784 V 84.05 c 0,0.453 -0.011,0.905 -0.021,1.357 -0.02,0.936 -0.072,1.871 -0.154,2.796 -0.02,0.319 -0.052,0.637 -0.093,0.956 -0.134,1.326 -0.318,2.632 -0.555,3.928 -0.083,0.432 -0.165,0.853 -0.258,1.275 -0.01,0.092 -0.03,0.175 -0.051,0.257 -0.083,0.432 -0.186,0.854 -0.288,1.275 -0.041,0.226 -0.103,0.452 -0.154,0.679 -0.052,0.195 -0.103,0.391 -0.164,0.586 -0.217,0.843 -0.463,1.666 -0.721,2.488 -0.123,0.391 -0.246,0.771 -0.38,1.162 -0.011,0.041 -0.031,0.082 -0.041,0.123 -0.124,0.349 -0.247,0.699 -0.37,1.048 -0.041,0.103 -0.082,0.205 -0.124,0.319 -0.123,0.329 -0.246,0.658 -0.38,0.987 -0.154,0.401 -0.318,0.792 -0.483,1.183 -0.144,0.35 -0.298,0.699 -0.452,1.049 -0.02,0.062 -0.052,0.113 -0.072,0.174 -0.175,0.37 -0.339,0.741 -0.514,1.1 -0.175,0.38 -0.36,0.761 -0.556,1.142 -0.37,0.75 -0.771,1.501 -1.172,2.231 -0.185,0.329 -0.37,0.658 -0.556,0.987 -1.583,2.725 -3.341,5.285 -5.253,7.649 -0.258,0.339 -0.524,0.668 -0.802,0.987 -0.381,0.462 -0.772,0.915 -1.162,1.357 -0.35,0.391 -0.699,0.781 -1.059,1.162 -0.987,1.059 -1.995,2.067 -3.023,3.013 -0.205,0.206 -0.422,0.391 -0.638,0.586 -0.349,0.319 -0.698,0.627 -1.059,0.925 -0.277,0.247 -0.565,0.483 -0.854,0.72 -0.74,0.606 -1.48,1.192 -2.23,1.737 -0.309,0.237 -0.628,0.463 -0.946,0.679 -0.514,0.37 -1.038,0.72 -1.563,1.059 -0.288,0.195 -0.586,0.38 -0.885,0.555 -1.049,0.648 -2.107,1.244 -3.156,1.758 -0.257,0.133 -0.514,0.257 -0.771,0.38 -0.258,0.123 -0.524,0.247 -0.802,0.37 -0.34,0.154 -0.679,0.298 -1.018,0.432 -0.134,0.062 -0.268,0.113 -0.401,0.154 -0.4,0.165 -0.812,0.319 -1.213,0.452 -0.504,0.185 -1.018,0.339 -1.521,0.483 -0.35,0.103 -0.709,0.195 -1.059,0.277 -0.021,0.011 -0.041,0.021 -0.072,0.021 -0.35,0.082 -0.699,0.165 -1.049,0.226 -0.093,0.021 -0.184,0.041 -0.277,0.051 -0.288,0.051 -0.576,0.103 -0.864,0.134 -0.411,0.062 -0.822,0.113 -1.233,0.134 -0.143,0.02 -0.277,0.031 -0.422,0.031 -0.328,0.021 -0.657,0.031 -0.977,0.031 h -0.03 c -0.319,0 -0.638,-0.01 -0.956,-0.031 -0.124,0 -0.247,-0.01 -0.371,-0.031 -0.287,-0.01 -0.586,-0.042 -0.894,-0.083 -0.062,0 -0.134,-0.01 -0.195,-0.02 -0.381,-0.051 -0.761,-0.113 -1.152,-0.185 -0.328,-0.051 -0.657,-0.124 -0.997,-0.206 -1.758,-0.401 -3.567,-1.007 -5.397,-1.82 -1.563,-0.689 -3.146,-1.521 -4.719,-2.488 -0.792,-0.483 -1.584,-0.997 -2.365,-1.542 -0.391,-0.278 -0.781,-0.555 -1.172,-0.843 -1.224,-0.895 -2.437,-1.871 -3.63,-2.92 -0.328,-0.298 -0.657,-0.596 -0.986,-0.905 -0.329,-0.298 -0.658,-0.606 -0.977,-0.904 -0.803,-0.771 -1.584,-1.573 -2.345,-2.406 -0.298,-0.318 -0.596,-0.647 -0.895,-0.987 -0.822,-0.925 -1.624,-1.881 -2.385,-2.879 -0.299,-0.36 -0.576,-0.73 -0.854,-1.1 -1.038,-1.377 -2.025,-2.817 -2.951,-4.308 -0.246,-0.401 -0.493,-0.813 -0.729,-1.213 -0.288,-0.483 -0.565,-0.976 -0.843,-1.47 -1.028,-1.851 -1.975,-3.773 -2.797,-5.758 -0.123,-0.288 -0.247,-0.576 -0.35,-0.863 -0.165,-0.37 -0.309,-0.751 -0.442,-1.121 -0.205,-0.545 -0.4,-1.09 -0.586,-1.635 -0.185,-0.545 -0.359,-1.1 -0.534,-1.655 -0.165,-0.535 -0.319,-1.069 -0.463,-1.614 -0.165,-0.576 -0.318,-1.162 -0.452,-1.758 -0.011,-0.062 -0.031,-0.123 -0.041,-0.185 -0.195,-0.822 -0.37,-1.655 -0.524,-2.498 -0.206,-1.111 -0.37,-2.242 -0.494,-3.383 -0.051,-0.36 -0.082,-0.72 -0.113,-1.08 -0.041,-0.38 -0.071,-0.751 -0.092,-1.131 -0.052,-0.689 -0.083,-1.388 -0.104,-2.087 -0.01,-0.453 -0.021,-0.905 -0.021,-1.357 V 52.784 c 0,-23.102 18.723,-41.834 41.825,-41.855 h 0.041 c 3.188,0 6.292,0.359 9.273,1.028 2.725,0.617 5.347,1.501 7.835,2.622 3.393,1.522 6.549,3.475 9.387,5.809 2.385,1.954 4.555,4.154 6.446,6.58 5.586,7.115 8.917,16.07 8.917,25.816 z"
           clip-path="url(#SVGID_2_)"
           id="path4691" />
        <path
           inkscape:connector-curvature="0"
           style="fill:#ecc19c"
           d="m 148.613,200.741 v 0.01 H 39.538 v -0.01 c 0,-6.158 1.018,-12.091 2.91,-17.612 0.339,-0.997 0.709,-1.984 1.11,-2.961 v -0.01 c 0.4,-0.977 0.822,-1.933 1.274,-2.879 1.8,-3.794 4.041,-7.341 6.642,-10.59 0.658,-0.812 1.326,-1.604 2.016,-2.365 0.339,-0.391 0.699,-0.771 1.059,-1.151 0.36,-0.37 0.72,-0.74 1.09,-1.11 1.841,-1.84 3.814,-3.526 5.892,-5.079 1.038,-0.771 2.087,-1.491 3.177,-2.19 1.09,-0.689 2.2,-1.347 3.331,-1.964 0.021,-0.02 0.041,-0.02 0.041,-0.02 0.442,-0.236 0.874,-0.493 1.306,-0.761 0.854,-0.514 1.696,-1.069 2.499,-1.665 0.411,-0.288 0.802,-0.586 1.192,-0.905 0.925,-0.74 1.819,-1.532 2.673,-2.365 0.277,-0.277 0.556,-0.555 0.833,-0.843 0.575,-0.597 1.12,-1.224 1.645,-1.861 0.258,-0.308 0.515,-0.627 0.751,-0.946 0.247,-0.318 0.483,-0.647 0.72,-0.977 1.83,-2.55 3.3,-5.356 4.38,-8.349 1.306,-3.64 2.015,-7.557 2.015,-11.649 l 7.948,0.041 8.173,0.041 c 0,4.04 0.689,7.916 1.964,11.515 1.06,3.002 2.529,5.809 4.329,8.359 1.871,2.652 4.102,5.017 6.631,7.042 0.381,0.309 0.761,0.607 1.142,0.884 0.37,0.278 0.75,0.545 1.141,0.802 0.083,0.062 0.154,0.113 0.237,0.165 0.37,0.247 0.74,0.494 1.131,0.72 0.421,0.257 0.854,0.514 1.285,0.751 0.071,0.02 0.134,0.051 0.185,0.093 0.905,0.504 1.8,1.028 2.674,1.573 0.421,0.257 0.843,0.524 1.254,0.823 0.854,0.555 1.687,1.141 2.498,1.758 0,0.011 0.011,0.011 0.011,0.011 h 0.01 c 2.077,1.552 4.041,3.248 5.881,5.079 9.908,9.869 16.025,23.502 16.025,38.595 z"
           clip-path="url(#SVGID_2_)"
           id="path4693" />
        <path
           inkscape:connector-curvature="0"
           style="fill:#c7d4e2"
           d="M 148.614,200.743 H 39.539 c 0,-6.159 1.019,-12.091 2.91,-17.612 0.339,-0.998 0.709,-1.984 1.11,-2.961 -0.011,-0.011 0,-0.011 0,-0.011 0.391,-0.977 0.822,-1.933 1.274,-2.878 1.8,-3.794 4.041,-7.341 6.642,-10.59 0.658,-0.813 1.327,-1.604 2.016,-2.365 0.339,-0.391 0.699,-0.771 1.059,-1.151 0.36,-0.37 0.72,-0.74 1.09,-1.11 1.841,-1.84 3.814,-3.527 5.892,-5.079 1.038,-0.771 2.087,-1.491 3.177,-2.19 1.09,-0.699 2.2,-1.357 3.331,-1.974 0.021,-0.02 0.041,-0.01 0.041,-0.01 v -0.01 c 0.442,-0.247 0.874,-0.494 1.306,-0.751 1.285,-0.781 2.52,-1.645 3.671,-2.591 0.01,0.01 0.01,0.01 0.021,0.02 5.325,5.449 12.738,8.831 20.964,8.852 h 0.082 c 8.225,0 15.669,-3.393 21.015,-8.842 l 0.011,-0.01 c 0.729,0.606 1.49,1.172 2.272,1.696 0.082,0.061 0.154,0.113 0.236,0.164 0.37,0.247 0.75,0.483 1.131,0.72 0.422,0.257 0.854,0.504 1.285,0.74 0.072,0.02 0.123,0.061 0.185,0.092 0.905,0.504 1.8,1.028 2.674,1.583 0.421,0.257 0.843,0.524 1.254,0.823 0.854,0.545 1.687,1.141 2.498,1.758 h 0.021 c 2.088,1.563 4.051,3.259 5.881,5.089 9.909,9.872 16.026,23.505 16.026,38.598 z"
           clip-path="url(#SVGID_2_)"
           id="path4695" />
        <path
           inkscape:connector-curvature="0"
           style="fill:#543e36"
           d="m 135.938,84.05 c 0,0.453 -0.011,0.905 -0.021,1.357 -0.02,0.936 -0.072,1.871 -0.154,2.796 -0.02,0.319 -0.052,0.637 -0.093,0.956 -0.134,1.326 -0.318,2.632 -0.555,3.928 -0.083,0.432 -0.165,0.853 -0.258,1.275 -0.01,0.092 -0.03,0.175 -0.051,0.257 -0.083,0.432 -0.186,0.854 -0.288,1.275 -0.052,0.247 -0.113,0.483 -0.186,0.72 -0.03,0.185 -0.082,0.37 -0.133,0.545 -0.217,0.843 -0.463,1.666 -0.721,2.488 -0.123,0.391 -0.246,0.771 -0.38,1.162 -0.011,0.041 -0.031,0.082 -0.041,0.123 -0.124,0.349 -0.247,0.699 -0.37,1.048 -0.041,0.103 -0.082,0.205 -0.124,0.319 -0.123,0.329 -0.246,0.658 -0.38,0.987 -0.154,0.401 -0.318,0.792 -0.483,1.183 -0.144,0.35 -0.298,0.699 -0.452,1.049 -0.02,0.062 -0.052,0.113 -0.072,0.174 -0.175,0.37 -0.339,0.741 -0.514,1.1 -0.175,0.38 -0.36,0.761 -0.556,1.142 -0.37,0.75 -0.771,1.501 -1.172,2.231 -0.185,0.329 -0.37,0.658 -0.556,0.987 -1.583,2.725 -3.341,5.285 -5.253,7.649 -0.258,0.339 -0.524,0.668 -0.802,0.987 -0.381,0.462 -0.772,0.915 -1.162,1.357 -0.35,0.391 -0.699,0.781 -1.059,1.162 -0.987,1.059 -1.995,2.067 -3.023,3.013 -0.205,0.206 -0.422,0.391 -0.638,0.586 -0.349,0.319 -0.698,0.627 -1.059,0.925 -0.277,0.247 -0.565,0.483 -0.854,0.72 -0.74,0.606 -1.48,1.192 -2.23,1.737 -0.309,0.237 -0.628,0.463 -0.946,0.679 -0.514,0.37 -1.038,0.72 -1.563,1.059 -0.288,0.195 -0.586,0.38 -0.885,0.555 -1.049,0.648 -2.107,1.244 -3.156,1.758 -0.257,0.133 -0.514,0.257 -0.771,0.38 -0.258,0.123 -0.524,0.247 -0.802,0.37 -0.34,0.154 -0.679,0.298 -1.018,0.432 -0.134,0.062 -0.268,0.113 -0.401,0.154 -0.4,0.165 -0.812,0.319 -1.213,0.452 -0.504,0.185 -1.018,0.339 -1.521,0.483 -0.35,0.103 -0.709,0.195 -1.059,0.277 -0.021,0.011 -0.041,0.021 -0.072,0.021 -0.35,0.082 -0.699,0.165 -1.049,0.226 -0.093,0.021 -0.184,0.041 -0.277,0.051 -0.288,0.051 -0.576,0.103 -0.864,0.134 -0.411,0.062 -0.822,0.113 -1.233,0.134 -0.143,0.02 -0.277,0.031 -0.422,0.031 -0.328,0.021 -0.657,0.031 -0.977,0.031 h -0.03 c -0.319,0 -0.638,-0.01 -0.956,-0.031 -0.124,0 -0.247,-0.01 -0.371,-0.031 -0.287,-0.01 -0.586,-0.042 -0.894,-0.083 -0.062,0 -0.134,-0.01 -0.195,-0.02 -0.381,-0.051 -0.761,-0.113 -1.152,-0.185 -0.328,-0.051 -0.657,-0.124 -0.997,-0.206 -1.758,-0.401 -3.567,-1.007 -5.397,-1.82 -1.563,-0.689 -3.146,-1.521 -4.719,-2.488 -0.792,-0.473 -1.573,-0.987 -2.365,-1.542 -0.391,-0.278 -0.781,-0.555 -1.172,-0.843 -1.224,-0.895 -2.437,-1.871 -3.63,-2.92 -0.328,-0.298 -0.657,-0.596 -0.986,-0.905 -0.329,-0.298 -0.658,-0.606 -0.977,-0.904 -0.803,-0.771 -1.584,-1.573 -2.345,-2.406 -0.298,-0.318 -0.596,-0.647 -0.895,-0.987 -0.822,-0.925 -1.624,-1.881 -2.385,-2.879 -0.299,-0.36 -0.576,-0.73 -0.854,-1.1 -1.038,-1.377 -2.025,-2.817 -2.951,-4.308 -0.246,-0.401 -0.493,-0.813 -0.729,-1.213 -0.288,-0.483 -0.565,-0.976 -0.843,-1.47 -1.028,-1.851 -1.975,-3.773 -2.797,-5.758 -0.123,-0.288 -0.247,-0.576 -0.35,-0.863 -0.165,-0.37 -0.309,-0.751 -0.442,-1.121 -0.205,-0.545 -0.4,-1.09 -0.586,-1.635 -0.185,-0.545 -0.359,-1.1 -0.534,-1.655 -0.165,-0.535 -0.319,-1.069 -0.463,-1.614 -0.165,-0.576 -0.318,-1.162 -0.452,-1.758 -0.011,-0.062 -0.031,-0.123 -0.041,-0.185 -0.195,-0.822 -0.37,-1.655 -0.524,-2.498 -0.206,-1.111 -0.37,-2.242 -0.494,-3.383 -0.051,-0.36 -0.082,-0.72 -0.113,-1.08 -0.041,-0.38 -0.071,-0.751 -0.092,-1.131 -0.052,-0.689 -0.083,-1.388 -0.104,-2.087 -0.01,-0.453 -0.021,-0.905 -0.021,-1.357 l 6.684,13.14 11.484,5.007 13.581,1.224 10.076,0.915 H 94.1 l 9.428,0.854 21.005,1.892 z"
           clip-path="url(#SVGID_2_)"
           id="path4697" />
        <path
           inkscape:connector-curvature="0"
           style="fill:#543e36"
           d="m 127.023,26.968 c -2.046,4.637 -4.709,8.945 -7.855,12.852 -0.185,0.227 -0.37,0.453 -0.565,0.679 -6.446,7.762 -14.897,13.798 -24.562,17.324 -2.54,0.936 -5.161,1.696 -7.855,2.262 -1.799,0.38 -3.629,0.679 -5.49,0.895 -2.139,0.236 -4.318,0.36 -6.528,0.36 -2.529,0 -5.007,-0.165 -7.443,-0.483 -2.386,-0.298 -4.72,-0.74 -7.002,-1.336 -1.306,-0.329 -2.581,-0.709 -3.846,-1.131 -1.244,-0.411 -2.457,-0.864 -3.66,-1.357 v -4.246 c 0,-23.102 18.723,-41.834 41.825,-41.855 h 0.041 c 3.188,0 6.292,0.359 9.273,1.028 2.725,0.617 5.347,1.501 7.835,2.622 3.393,1.522 6.549,3.475 9.387,5.809 2.384,1.95 4.554,4.151 6.445,6.577 z"
           clip-path="url(#SVGID_2_)"
           id="path4699" />
        <path
           inkscape:connector-curvature="0"
           style="fill:#543e36"
           d="m 135.938,52.784 v 8.235 c -7.136,-5.521 -13.047,-12.502 -17.314,-20.48 -0.01,-0.01 -0.01,-0.031 -0.021,-0.041 -4.194,-7.834 -6.796,-16.625 -7.412,-25.92 3.393,1.522 6.549,3.475 9.387,5.809 2.385,1.954 4.555,4.154 6.446,6.58 5.583,7.116 8.914,16.071 8.914,25.817 z"
           clip-path="url(#SVGID_2_)"
           id="path4701" />
        <path
           inkscape:connector-curvature="0"
           style="fill:#543e36"
           d="m 57.12,56.013 c -0.441,0.771 -0.843,1.563 -1.244,2.375 -0.153,0.318 -0.308,0.658 -0.462,0.987 -2.025,4.503 -3.044,8.924 -3.188,12.914 0,0.113 -0.011,0.236 -0.011,0.35 V 56.517 c 0,-0.576 0.021,-1.142 0.021,-1.697 1.625,0.422 3.249,0.833 4.884,1.193 z"
           clip-path="url(#SVGID_2_)"
           id="path4703" />
        <path
           inkscape:connector-curvature="0"
           style="fill:#543e36"
           d="m 131.054,56.013 c 0.622,1.093 1.177,2.213 1.71,3.361 2.088,4.643 3.11,9.178 3.198,13.268 v -16.13 c 0,-0.567 -0.021,-1.134 -0.021,-1.688 -1.623,0.419 -3.244,0.824 -4.887,1.189 z"
           clip-path="url(#SVGID_2_)"
           id="path4705" />
        <path
           inkscape:connector-curvature="0"
           style="fill:#1a1a1a"
           d="m 130.972,60.167 c 0,-0.175 -0.134,-0.329 -0.309,-0.35 -1.48,-0.226 -8.143,-1.142 -15.309,-1.142 -8.133,0 -18.63,2.55 -20.46,2.55 H 93.27 c -0.854,0 -3.588,-0.555 -7.084,-1.141 -4.02,-0.679 -9.037,-1.409 -13.376,-1.409 -5.243,0 -10.22,0.494 -13.088,0.843 -1.049,0.124 -1.82,0.236 -2.221,0.298 -0.175,0.021 -0.309,0.175 -0.309,0.35 l -0.082,4.369 c 0,0.154 0.093,0.288 0.236,0.35 l 0.493,0.175 c 0.73,0.278 0.669,13.448 4.596,16.738 2.334,1.943 4.411,3.053 13.16,3.053 5.069,0 8.256,-1.367 11.279,-5.449 2.18,-2.93 4.112,-9.86 4.112,-9.86 0.586,-2.858 2.714,-3.084 3.054,-3.105 0.021,0 0.041,0 0.041,0 0.071,0 2.468,0.041 3.095,3.105 0,0 1.933,6.93 4.112,9.86 3.022,4.082 6.21,5.449 11.278,5.449 8.75,0 10.826,-1.11 13.16,-3.053 3.928,-3.29 3.866,-16.46 4.596,-16.738 l 0.494,-0.175 c 0.143,-0.062 0.236,-0.195 0.236,-0.35 z M 86.875,75.753 c -1.285,3.043 -4.606,6.971 -9.284,7.207 -14.034,0.709 -14.682,-3.208 -15.587,-6.313 -0.915,-3.105 -1.151,-5.83 -0.792,-8.935 0.37,-3.105 1.152,-4.925 2.561,-5.84 0.606,-0.401 1.265,-0.761 2.951,-1.018 1.511,-0.226 3.845,-0.36 7.731,-0.36 2.251,0 4.359,0.175 6.24,0.483 4.997,0.802 8.369,2.499 8.369,4.174 0,1.143 -0.288,6.098 -2.189,10.602 z m 39.284,0.894 c -0.904,3.105 -1.552,7.022 -15.586,6.313 -4.678,-0.236 -7.999,-4.164 -9.284,-7.207 -1.902,-4.503 -2.189,-9.459 -2.189,-10.6 0,-2.303 6.395,-4.658 14.609,-4.658 8.215,0 9.53,0.617 10.683,1.378 1.408,0.915 2.189,2.735 2.56,5.84 0.36,3.105 0.123,5.83 -0.793,8.934 z"
           clip-path="url(#SVGID_2_)"
           id="path4707" />
        <g
           clip-path="url(#SVGID_2_)"
           id="g4713">
          <path
             inkscape:connector-curvature="0"
             style="fill:#543e36"
             d="m 94.123,90.65 -0.011,10.138 -0.01,3.547 v 2.786 l -0.011,9.253 v 0.01 l -0.01,-0.01 H 94.07 L 94.04,116.353 53.604,95.771 c -0.011,-0.062 -0.031,-0.123 -0.041,-0.185 -0.195,-0.822 -0.37,-1.655 -0.524,-2.498 -0.206,-1.111 -0.37,-2.242 -0.494,-3.383 -0.051,-0.36 -0.082,-0.72 -0.113,-1.08 -0.041,-0.38 -0.071,-0.751 -0.092,-1.131 -0.052,-0.689 -0.083,-1.388 -0.104,-2.087 -0.01,-0.453 -0.021,-0.905 -0.021,-1.357 V 71.764 c 0,0.175 0.011,0.35 0.011,0.524 0.082,2.971 0.555,6.241 1.47,9.582 0.71,2.57 1.594,4.945 2.622,7.063 v 0.01 c 2.694,5.604 6.303,9.407 9.623,10.024 0.206,0.031 0.422,0.051 0.628,0.072 1.285,0.144 2.632,0.226 4.02,0.226 5.243,0 9.901,-4.215 12.831,-5.922 0.021,-0.01 0.041,-0.021 0.062,-0.031 0.154,-0.093 0.309,-0.185 0.442,-0.278 0.041,-0.031 0.082,-0.051 0.123,-0.072 2.468,-1.409 6.025,-2.303 9.994,-2.313 h 0.082 z"
             id="path4709" />
          <path
             inkscape:connector-curvature="0"
             style="fill:#543e36"
             d="m 135.947,71.764 -0.01,12.286 c 0,3.085 -0.288,6.107 -0.822,9.038 -0.217,1.172 -0.463,2.333 -0.751,3.485 l -9.49,13.705 -30.782,6.097 h -0.01 l -0.011,0.01 v -0.01 l -0.03,-25.727 h 0.082 c 3.969,0.01 7.536,0.905 10.004,2.313 0.041,0.021 0.071,0.041 0.113,0.072 0.144,0.093 0.298,0.185 0.452,0.278 0.01,0.01 0.03,0.021 0.051,0.031 2.941,1.707 7.588,5.925 12.832,5.925 1.388,0 2.734,-0.082 4.019,-0.226 0.216,-0.021 0.422,-0.041 0.638,-0.072 3.311,-0.617 6.93,-4.421 9.613,-10.024 v -0.01 c 1.027,-2.118 1.912,-4.493 2.621,-7.063 0.926,-3.393 1.409,-6.703 1.471,-9.716 0.01,-0.135 0.01,-0.259 0.01,-0.392 z"
             id="path4711" />
        </g>
        <ellipse
           style="fill:#ecc19c"
           cx="94.073997"
           cy="103.955"
           rx="10.255"
           ry="3.1700001"
           clip-path="url(#SVGID_2_)"
           id="ellipse4715" />
        <g
           clip-path="url(#SVGID_2_)"
           id="g4721">
          <path
             inkscape:connector-curvature="0"
             style="fill:#435363"
             d="m 64.131,155.174 v 56.558 h -4.369 v -53.37 c 0.586,-0.473 1.172,-0.936 1.769,-1.378 0.853,-0.637 1.716,-1.234 2.6,-1.81 z"
             id="path4717" />
          <polygon
             style="fill:#435363"
             points="128.39,211.732 128.39,200.741 128.39,158.372 124.021,155.185 124.021,200.741 124.021,211.732 "
             id="polygon4719" />
        </g>
        <g
           clip-path="url(#SVGID_2_)"
           id="g4735">
          <g
             id="g4727">
            <polygon
               style="fill:#141720"
               points="82.113,151.713 94.074,166.049 106.036,151.713 "
               id="polygon4723" />
            <path
               inkscape:connector-curvature="0"
               style="fill:#141720"
               d="m 94.074,225.437 h -7.073 l 5.11,-65.8 c 0.215,0.837 3.712,0.837 3.927,0 l 5.11,65.8 z"
               id="path4725" />
          </g>
          <g
             id="g4733">
            <path
               inkscape:connector-curvature="0"
               style="fill:#e7ecf2"
               d="m 94.07,151.638 -0.03,0.051 -0.011,0.021 -4.966,8.338 -4.637,7.772 -12.554,-17.447 c 0.401,-0.288 0.802,-0.596 1.183,-0.915 0.01,0.01 0.01,0.01 0.021,0.021 2.518,-2.005 4.76,-4.359 6.621,-6.991 l 14.343,9.13 z"
               id="path4729" />
            <path
               inkscape:connector-curvature="0"
               style="fill:#e7ecf2"
               d="m 116.278,150.373 -12.554,17.447 -4.637,-7.772 -4.977,-8.338 -0.041,-0.072 14.436,-9.191 c 1.871,2.652 4.102,5.017 6.631,7.042 0.382,0.308 0.761,0.607 1.142,0.884 z"
               id="path4731" />
          </g>
        </g>
      </g>
      <g
         id="g4741" />
      <g
         id="g4743" />
      <g
         id="g4745" />
      <g
         id="g4747" />
      <g
         id="g4749" />
      <g
         id="g4751" />
      <g
         id="g4753" />
      <g
         id="g4755" />
      <g
         id="g4757" />
      <g
         id="g4759" />
      <g
         id="g4761" />
      <g
         id="g4763" />
      <g
         id="g4765" />
      <g
         id="g4767" />
      <g
         id="g4769" />
    </g>
    <g
       id="g4927"
       transform="matrix(0.18539042,0,0,0.18539042,79.164697,163.65671)">
      <g
         id="g4855"
         transform="translate(30.304577,4.0406102)">
        <g
           id="g4853"
           transform="translate(39.39595)">
          <defs
             id="defs4828">
            <circle
               r="94.073997"
               cy="94.073997"
               cx="94.073997"
               id="circle4895" />
          </defs>
          <clipPath
             id="SVGID_2_-5">
            <use
               id="use4832"
               style="overflow:visible"
               xlink:href="#SVGID_1_-3"
               x="0"
               y="0"
               width="100%"
               height="100%" />
          </clipPath>
          <g
             id="g4851"
             clip-path="url(#SVGID_2_)">
            <polygon
               id="polygon4835"
               points="149.561,97.761 149.561,185.173 38.8,183.288 38.8,95.876 "
               style="fill:#421800" />
            <path
               id="path4837"
               d="m 135.938,58.277 v 25.775 c 0,0.452 -0.011,0.905 -0.02,1.357 -0.011,0.37 -0.021,0.73 -0.042,1.1 -0.01,0.329 -0.03,0.658 -0.061,0.987 -0.01,0.236 -0.03,0.473 -0.051,0.71 -0.011,0.144 -0.02,0.277 -0.041,0.421 -0.02,0.257 -0.042,0.524 -0.083,0.781 -0.041,0.494 -0.103,0.977 -0.175,1.47 -0.01,0.124 -0.03,0.247 -0.051,0.37 -0.031,0.247 -0.072,0.494 -0.113,0.74 v 0.031 c -0.061,0.359 -0.123,0.709 -0.186,1.069 -0.092,0.494 -0.185,0.987 -0.287,1.47 -0.011,0.021 -0.011,0.041 -0.02,0.062 -0.011,0.072 -0.021,0.144 -0.042,0.216 -0.01,0.021 -0.01,0.041 -0.02,0.062 -0.051,0.268 -0.112,0.524 -0.175,0.781 -0.02,0.113 -0.041,0.227 -0.082,0.339 -0.03,0.185 -0.082,0.37 -0.123,0.555 -0.031,0.103 -0.052,0.216 -0.093,0.319 -0.02,0.093 -0.051,0.185 -0.072,0.268 -0.216,0.843 -0.462,1.666 -0.72,2.488 -0.123,0.391 -0.246,0.771 -0.38,1.162 -0.011,0.041 -0.031,0.082 -0.041,0.123 -0.124,0.35 -0.247,0.699 -0.37,1.049 -0.041,0.103 -0.082,0.206 -0.124,0.319 -0.123,0.329 -0.246,0.658 -0.38,0.987 -0.154,0.401 -0.319,0.792 -0.483,1.183 -0.144,0.35 -0.298,0.699 -0.452,1.048 -0.021,0.062 -0.052,0.113 -0.072,0.175 -0.175,0.37 -0.339,0.74 -0.514,1.1 -0.175,0.38 -0.36,0.761 -0.556,1.141 -0.37,0.751 -0.77,1.501 -1.172,2.231 l -0.555,0.987 c -1.584,2.724 -3.342,5.285 -5.254,7.649 -0.258,0.34 -0.524,0.669 -0.803,0.987 -0.38,0.463 -0.771,0.915 -1.161,1.357 -0.329,0.37 -0.669,0.75 -1.019,1.11 -0.01,0.021 -0.021,0.031 -0.041,0.051 -0.986,1.06 -1.994,2.067 -3.022,3.013 -0.206,0.206 -0.422,0.391 -0.638,0.586 -0.35,0.319 -0.699,0.628 -1.059,0.926 -0.277,0.247 -0.565,0.483 -0.853,0.72 -0.74,0.606 -1.48,1.192 -2.23,1.737 -0.309,0.236 -0.628,0.463 -0.946,0.679 -0.514,0.37 -1.038,0.72 -1.563,1.059 -0.288,0.195 -0.586,0.381 -0.885,0.556 -1.049,0.648 -2.107,1.244 -3.156,1.758 -0.257,0.134 -0.514,0.257 -0.771,0.381 -0.258,0.123 -0.524,0.246 -0.803,0.37 -0.339,0.154 -0.678,0.298 -1.018,0.432 -0.134,0.062 -0.268,0.113 -0.4,0.154 -0.401,0.164 -0.812,0.318 -1.214,0.452 -0.504,0.186 -1.018,0.34 -1.521,0.483 -0.35,0.103 -0.709,0.195 -1.059,0.277 -0.021,0.011 -0.042,0.021 -0.072,0.021 -0.35,0.082 -0.699,0.165 -1.049,0.227 -0.093,0.021 -0.185,0.041 -0.277,0.051 -0.288,0.052 -0.576,0.104 -0.864,0.134 -0.411,0.063 -0.822,0.113 -1.233,0.134 -0.143,0.02 -0.277,0.031 -0.422,0.031 -0.329,0.02 -0.647,0.03 -0.966,0.03 h -0.041 c -0.319,0 -0.638,-0.01 -0.957,-0.03 -0.123,0 -0.246,-0.011 -0.369,-0.031 -0.288,-0.01 -0.587,-0.041 -0.895,-0.082 -0.063,0 -0.134,-0.011 -0.195,-0.02 -0.381,-0.052 -0.762,-0.113 -1.152,-0.186 -0.329,-0.051 -0.657,-0.123 -0.997,-0.205 -1.758,-0.401 -3.567,-1.008 -5.397,-1.82 -1.563,-0.688 -3.146,-1.521 -4.719,-2.487 -0.792,-0.483 -1.584,-0.998 -2.365,-1.543 -0.391,-0.277 -0.781,-0.555 -1.172,-0.843 -1.224,-0.895 -2.437,-1.871 -3.63,-2.92 -0.328,-0.298 -0.657,-0.597 -0.986,-0.904 -0.329,-0.299 -0.658,-0.607 -0.977,-0.905 -0.761,-0.729 -1.501,-1.48 -2.211,-2.272 -0.052,-0.041 -0.093,-0.092 -0.134,-0.133 -0.298,-0.319 -0.597,-0.649 -0.894,-0.987 -0.822,-0.926 -1.624,-1.882 -2.385,-2.879 -0.299,-0.36 -0.576,-0.729 -0.854,-1.101 -1.039,-1.377 -2.025,-2.816 -2.951,-4.308 -0.246,-0.401 -0.493,-0.812 -0.729,-1.213 -0.288,-0.483 -0.565,-0.977 -0.843,-1.47 -1.028,-1.851 -1.975,-3.773 -2.797,-5.758 -0.123,-0.288 -0.247,-0.576 -0.35,-0.864 -0.165,-0.37 -0.309,-0.751 -0.442,-1.12 -0.205,-0.546 -0.4,-1.09 -0.586,-1.635 -0.185,-0.545 -0.359,-1.1 -0.534,-1.655 C 54.356,98.612 54.202,98.078 54.058,97.533 53.893,96.957 53.739,96.371 53.606,95.775 53.595,95.713 53.575,95.651 53.564,95.59 53.369,94.768 53.195,93.935 53.041,93.092 52.835,91.982 52.671,90.851 52.547,89.71 52.496,89.35 52.465,88.99 52.434,88.63 52.393,88.25 52.363,87.88 52.342,87.499 52.29,86.81 52.259,86.111 52.238,85.412 52.228,84.96 52.217,84.507 52.217,84.055 V 58.277 c 0,-22.341 17.51,-40.601 39.562,-41.794 0.042,-0.011 0.072,-0.011 0.113,-0.011 0.288,-0.01 0.576,-0.021 0.864,-0.031 0.432,-0.01 0.853,-0.021 1.285,-0.021 h 0.041 c 0.441,0 0.884,0.01 1.326,0.021 0.339,0.01 0.679,0.021 1.018,0.042 h 0.031 c 2.354,0.133 4.668,0.462 6.898,0.966 2.725,0.617 5.347,1.501 7.834,2.622 3.394,1.521 6.55,3.475 9.388,5.809 2.385,1.954 4.555,4.154 6.446,6.58 5.511,7.022 8.831,15.844 8.903,25.446 0.012,0.124 0.012,0.247 0.012,0.371 z"
               style="fill:#f0d0b4"
               inkscape:connector-curvature="0" />
            <path
               id="path4839"
               d="m 148.615,200.745 v 0.011 H 39.54 v -0.011 c 0,-6.097 0.997,-11.978 2.858,-17.457 0.021,-0.052 0.031,-0.104 0.052,-0.154 0.339,-0.997 0.709,-1.984 1.11,-2.961 v -0.011 c 0.391,-0.977 0.822,-1.933 1.274,-2.879 1.8,-3.794 4.041,-7.341 6.642,-10.59 0.658,-0.812 1.327,-1.604 2.016,-2.364 0.339,-0.391 0.699,-0.771 1.059,-1.151 0.36,-0.37 0.72,-0.74 1.09,-1.11 1.841,-1.841 3.814,-3.526 5.892,-5.079 1.038,-0.771 2.087,-1.491 3.177,-2.19 0.144,-0.092 0.288,-0.185 0.432,-0.267 0.401,-0.258 0.802,-0.504 1.214,-0.74 0.555,-0.329 1.12,-0.648 1.686,-0.957 0.021,-0.02 0.041,-0.02 0.041,-0.02 0.442,-0.236 0.874,-0.493 1.306,-0.761 1.285,-0.771 2.52,-1.624 3.691,-2.57 4.966,-3.947 8.811,-9.253 11.001,-15.34 0.638,-1.789 1.141,-3.649 1.48,-5.561 0.35,-1.975 0.535,-4.01 0.535,-6.087 l 7.947,0.041 h 0.133 l 8.04,0.041 c 0,2.036 0.175,4.03 0.515,5.974 0.329,1.912 0.822,3.763 1.449,5.542 2.159,6.106 5.994,11.433 10.96,15.401 0.74,0.606 1.491,1.161 2.282,1.686 0.083,0.063 0.154,0.113 0.237,0.165 0.37,0.247 0.74,0.493 1.131,0.72 0.421,0.257 0.854,0.514 1.285,0.75 0.071,0.02 0.134,0.052 0.185,0.093 0.905,0.504 1.8,1.028 2.674,1.573 0.071,0.041 0.133,0.082 0.205,0.134 0.35,0.216 0.71,0.441 1.049,0.689 0.854,0.545 1.687,1.142 2.498,1.759 0,0.01 0.011,0.01 0.011,0.01 h 0.01 c 1.039,0.771 2.046,1.594 3.033,2.437 0.987,0.843 1.933,1.728 2.848,2.643 5.902,5.87 10.456,13.088 13.171,21.139 1.848,5.475 2.856,11.346 2.856,17.452 z"
               style="fill:#f0d0b4"
               inkscape:connector-curvature="0" />
            <path
               id="path4841"
               d="M 148.615,200.745 H 39.54 c 0,-6.097 0.997,-11.978 2.858,-17.457 0.021,-0.052 0.031,-0.104 0.052,-0.154 0.339,-0.997 0.709,-1.984 1.11,-2.961 v -0.011 c 0.391,-0.977 0.822,-1.933 1.274,-2.879 1.8,-3.794 4.041,-7.341 6.642,-10.59 0.658,-0.812 1.327,-1.604 2.016,-2.364 0.339,-0.391 0.699,-0.771 1.059,-1.151 0.36,-0.37 0.72,-0.74 1.09,-1.11 1.841,-1.841 3.814,-3.526 5.892,-5.079 1.038,-0.771 2.087,-1.491 3.177,-2.19 0.144,-0.092 0.288,-0.185 0.432,-0.267 0.401,-0.258 0.802,-0.504 1.214,-0.74 0.555,-0.34 1.12,-0.658 1.686,-0.967 0.021,-0.021 0.041,-0.011 0.041,-0.011 v -0.01 c 0.442,-0.247 0.874,-0.493 1.306,-0.751 1.285,-0.781 2.52,-1.645 3.671,-2.591 0.01,0.011 0.01,0.011 0.021,0.021 5.325,5.449 12.738,8.832 20.964,8.853 h 0.133 c 8.205,-0.011 15.628,-3.403 20.964,-8.842 l 0.011,-0.011 c 0.729,0.606 1.49,1.172 2.271,1.696 0.083,0.063 0.154,0.113 0.237,0.165 0.37,0.247 0.75,0.483 1.131,0.72 0.421,0.257 0.854,0.504 1.285,0.74 0.071,0.021 0.123,0.062 0.185,0.093 0.905,0.503 1.8,1.027 2.674,1.583 0.071,0.041 0.133,0.082 0.205,0.134 0.35,0.216 0.71,0.441 1.049,0.689 0.854,0.545 1.687,1.142 2.498,1.759 h 0.021 c 1.039,0.781 2.057,1.593 3.033,2.446 0.987,0.843 1.933,1.728 2.848,2.643 5.902,5.87 10.456,13.088 13.171,21.139 1.846,5.478 2.854,11.349 2.854,17.455 z"
               style="fill:#b34fc5"
               inkscape:connector-curvature="0" />
            <path
               id="path4843"
               d="m 149.798,170.583 c -0.072,0.031 -0.154,0.063 -0.237,0.072 -5.407,1.408 -26.731,-24.288 -26.947,-51.225 -0.01,-2.17 0.103,-4.35 0.381,-6.539 0.72,-5.809 3.517,-11.392 5.84,-17.016 1.83,-4.452 3.382,-8.914 3.382,-13.52 0,-24.675 -7.155,-16.635 -27.111,-29.95 -4.822,-3.208 -8.246,-5.84 -10.93,-7.979 -7.412,-5.881 -9.294,-7.988 -19.462,-7.988 -12.935,0 -18.075,22.464 -19.545,32.067 -1.583,10.333 -1.604,27.081 4.843,43.027 4.995,12.356 4.996,24.47 -4.843,37.928 -3.691,5.049 -9.346,22.105 -16.368,27.605 -2.189,1.717 -4.503,2.314 -6.939,1.069 -19.186,-9.818 -7.64,-41.331 -1.882,-61.061 6.2,-21.231 8.071,-42.75 12.574,-64.187 C 47.632,28.749 68.297,14.036 76.646,20 c 2.786,-4.997 10.076,-6.868 17.529,-6.868 5.46,0 11.022,1.018 14.97,2.55 30.484,11.834 30.999,40.087 32.623,51.838 1.337,9.706 6.117,18.774 7.793,28.356 v 0.031 c 0.36,2.015 0.576,4.071 0.587,6.148 0.071,11.217 -1.183,18.805 7.341,28.15 6.466,7.084 1.521,36.338 -7.691,40.378 z"
               style="fill:#421800"
               inkscape:connector-curvature="0" />
            <g
               id="g4849">
              <path
                 id="path4845"
                 d="m 94.175,158.335 -0.03,0.052 -0.011,0.02 c -2.899,4.503 -7.7,6.847 -12.543,6.847 -3.938,0 -7.896,-1.552 -10.867,-4.739 l -5.583,-5.983 c 0.946,-0.607 1.912,-1.173 2.899,-1.707 0.021,-0.021 0.041,-0.011 0.041,-0.011 v -0.01 c 0.442,-0.247 0.874,-0.493 1.306,-0.751 1.285,-0.781 2.52,-1.645 3.671,-2.591 0.01,0.011 0.01,0.011 0.021,0.021 5.325,5.449 12.738,8.832 20.964,8.853 h 0.132 z"
                 style="fill:#e7ecf2"
                 inkscape:connector-curvature="0" />
              <path
                 id="path4847"
                 d="m 123.138,154.613 -5.5,5.901 c -2.972,3.188 -6.93,4.739 -10.878,4.739 -4.832,0 -9.644,-2.344 -12.533,-6.847 l -0.01,-0.02 -0.042,-0.052 c 8.205,-0.011 15.628,-3.403 20.964,-8.842 l 0.011,-0.011 c 0.729,0.606 1.49,1.172 2.271,1.696 0.083,0.063 0.154,0.113 0.237,0.165 0.37,0.247 0.75,0.483 1.131,0.72 0.421,0.257 0.854,0.504 1.285,0.74 0.071,0.021 0.123,0.062 0.185,0.093 0.905,0.503 1.8,1.027 2.674,1.583 0.071,0.042 0.132,0.083 0.205,0.135 z"
                 style="fill:#e7ecf2"
                 inkscape:connector-curvature="0" />
            </g>
          </g>
        </g>
      </g>
      <g
         id="g4857" />
      <g
         id="g4859" />
      <g
         id="g4861" />
      <g
         id="g4863" />
      <g
         id="g4865" />
      <g
         id="g4867" />
      <g
         id="g4869" />
      <g
         id="g4871" />
      <g
         id="g4873" />
      <g
         id="g4875" />
      <g
         id="g4877" />
      <g
         id="g4879" />
      <g
         id="g4881" />
      <g
         id="g4883" />
      <g
         id="g4885" />
    </g>
    <g
       id="g5035"
       transform="matrix(0.17586965,0,0,0.17586965,22.212242,157.13606)">
      <g
         id="g4961"
         transform="translate(66.670069,33.335034)">
        <g
           id="g4959"
           transform="translate(40.406102,12.121831)">
          <defs
             id="defs4930">
            <circle
               r="94.073997"
               cy="94.073997"
               cx="94.073997"
               id="circle5001" />
          </defs>
          <clipPath
             id="SVGID_2_-1">
            <use
               id="use4934"
               style="overflow:visible"
               xlink:href="#SVGID_1_-8"
               x="0"
               y="0"
               width="100%"
               height="100%" />
          </clipPath>
          <path
             id="path4937"
             clip-path="url(#SVGID_2_)"
             d="M 135.973,52.784 V 84.05 c 0,0.452 -0.01,0.904 -0.021,1.356 -0.01,0.37 -0.02,0.73 -0.041,1.101 -0.01,0.329 -0.031,0.658 -0.062,0.987 -0.01,0.236 -0.031,0.473 -0.051,0.709 -0.011,0.145 -0.021,0.277 -0.042,0.422 -0.02,0.257 -0.041,0.524 -0.082,0.781 -0.041,0.493 -0.103,0.977 -0.175,1.47 -0.01,0.124 -0.031,0.247 -0.051,0.37 -0.031,0.247 -0.072,0.494 -0.113,0.74 v 0.031 c -0.061,0.359 -0.123,0.709 -0.185,1.069 -0.093,0.493 -0.185,0.987 -0.288,1.47 -0.01,0.021 -0.01,0.042 -0.02,0.063 -0.01,0.071 -0.021,0.144 -0.041,0.216 -0.01,0.021 -0.01,0.041 -0.021,0.062 -0.051,0.268 -0.113,0.524 -0.175,0.781 -0.02,0.113 -0.041,0.227 -0.082,0.34 -0.031,0.185 -0.083,0.369 -0.123,0.555 -0.031,0.103 -0.051,0.216 -0.093,0.318 -0.021,0.093 -0.051,0.186 -0.072,0.268 -0.216,0.843 -0.463,1.666 -0.72,2.488 -0.124,0.391 -0.247,0.771 -0.38,1.162 -0.01,0.041 -0.031,0.082 -0.041,0.123 -0.123,0.35 -0.247,0.699 -0.37,1.049 -0.041,0.103 -0.082,0.205 -0.123,0.318 -0.124,0.329 -0.247,0.658 -0.38,0.987 -0.154,0.4 -0.319,0.791 -0.483,1.183 -0.144,0.35 -0.298,0.698 -0.452,1.048 -0.02,0.063 -0.051,0.113 -0.072,0.175 -0.175,0.37 -0.339,0.74 -0.514,1.101 -0.175,0.38 -0.36,0.761 -0.555,1.142 -0.37,0.75 -0.771,1.501 -1.172,2.23 l -0.555,0.987 c -1.584,2.725 -3.341,5.284 -5.254,7.649 -0.257,0.339 -0.524,0.668 -0.802,0.986 -0.38,0.463 -0.771,0.915 -1.162,1.357 -0.35,0.391 -0.699,0.781 -1.059,1.162 -0.987,1.059 -1.995,2.066 -3.023,3.013 -0.206,0.205 -0.421,0.391 -0.637,0.586 -0.35,0.318 -0.699,0.627 -1.059,0.925 -0.277,0.247 -0.565,0.483 -0.854,0.72 -0.74,0.606 -1.48,1.192 -2.231,1.737 -0.308,0.237 -0.627,0.463 -0.946,0.679 -0.514,0.37 -1.039,0.72 -1.563,1.06 -0.288,0.195 -0.586,0.38 -0.884,0.555 -1.049,0.647 -2.108,1.244 -3.157,1.758 -0.257,0.134 -0.514,0.258 -0.771,0.381 -0.257,0.123 -0.524,0.247 -0.802,0.37 -0.339,0.154 -0.679,0.298 -1.018,0.432 -0.134,0.061 -0.267,0.113 -0.401,0.154 -0.401,0.165 -0.812,0.318 -1.213,0.452 -0.503,0.186 -1.018,0.34 -1.521,0.483 -0.35,0.103 -0.709,0.195 -1.059,0.277 -0.021,0.011 -0.041,0.021 -0.072,0.021 -0.35,0.083 -0.699,0.165 -1.049,0.227 -0.092,0.021 -0.185,0.041 -0.277,0.052 -0.288,0.051 -0.576,0.103 -0.864,0.134 -0.411,0.062 -0.823,0.113 -1.234,0.133 -0.144,0.021 -0.277,0.031 -0.421,0.031 -0.329,0.02 -0.658,0.031 -0.977,0.031 h -0.031 c -0.318,0 -0.637,-0.011 -0.956,-0.031 -0.123,0 -0.247,-0.01 -0.37,-0.031 -0.288,-0.01 -0.586,-0.041 -0.895,-0.082 -0.061,0 -0.133,-0.01 -0.195,-0.021 -0.38,-0.051 -0.761,-0.113 -1.151,-0.185 -0.329,-0.052 -0.658,-0.124 -0.998,-0.206 -1.758,-0.401 -3.567,-1.008 -5.397,-1.819 -1.563,-0.689 -3.146,-1.522 -4.719,-2.488 -0.791,-0.483 -1.583,-0.997 -2.365,-1.542 -0.391,-0.278 -0.781,-0.556 -1.172,-0.844 -1.224,-0.895 -2.437,-1.871 -3.629,-2.92 -0.329,-0.298 -0.658,-0.596 -0.987,-0.904 -0.329,-0.298 -0.658,-0.607 -0.977,-0.905 -0.802,-0.771 -1.583,-1.572 -2.344,-2.405 -0.298,-0.319 -0.596,-0.647 -0.895,-0.987 -0.822,-0.925 -1.624,-1.881 -2.385,-2.879 -0.298,-0.359 -0.576,-0.729 -0.853,-1.1 -1.039,-1.378 -2.025,-2.817 -2.951,-4.309 -0.247,-0.4 -0.494,-0.811 -0.73,-1.213 -0.288,-0.483 -0.565,-0.977 -0.843,-1.47 -1.028,-1.851 -1.974,-3.773 -2.796,-5.758 -0.124,-0.288 -0.247,-0.576 -0.35,-0.863 -0.164,-0.37 -0.308,-0.751 -0.442,-1.121 -0.206,-0.545 -0.401,-1.09 -0.586,-1.635 -0.185,-0.545 -0.36,-1.101 -0.535,-1.655 C 54.392,98.609 54.238,98.075 54.094,97.53 53.929,96.954 53.775,96.368 53.641,95.772 53.631,95.71 53.61,95.648 53.6,95.586 53.405,94.764 53.23,93.931 53.076,93.088 52.87,91.978 52.706,90.847 52.583,89.705 52.531,89.346 52.5,88.985 52.47,88.626 52.429,88.245 52.398,87.875 52.377,87.495 52.326,86.806 52.295,86.106 52.274,85.407 52.264,84.955 52.253,84.503 52.253,84.051 V 52.784 c 0,-23.103 18.722,-41.835 41.824,-41.855 h 0.042 c 3.187,0 6.292,0.359 9.273,1.028 2.725,0.616 5.347,1.501 7.834,2.621 3.393,1.521 6.549,3.476 9.387,5.81 2.386,1.953 4.555,4.153 6.447,6.58 5.511,7.022 8.831,15.844 8.903,25.446 0.01,0.123 0.01,0.246 0.01,0.37 z"
             style="fill:#ecc19c"
             inkscape:connector-curvature="0" />
          <path
             id="path4939"
             clip-path="url(#SVGID_2_)"
             d="m 148.65,200.743 v 0.01 H 39.575 v -0.01 c 0,-6.159 1.018,-12.091 2.91,-17.612 0.339,-0.997 0.709,-1.984 1.111,-2.961 v -0.011 c 0.391,-0.977 0.822,-1.933 1.274,-2.878 1.799,-3.794 4.041,-7.342 6.642,-10.59 0.658,-0.813 1.326,-1.605 2.015,-2.365 0.339,-0.391 0.699,-0.77 1.059,-1.151 0.359,-0.37 0.72,-0.74 1.089,-1.11 1.841,-1.841 3.814,-3.526 5.892,-5.079 1.038,-0.771 2.087,-1.491 3.177,-2.189 1.09,-0.689 2.2,-1.348 3.331,-1.964 0.021,-0.02 0.041,-0.02 0.041,-0.02 0.442,-0.237 0.874,-0.494 1.306,-0.761 1.285,-0.771 2.519,-1.625 3.691,-2.57 4.966,-3.948 8.811,-9.254 11.001,-15.34 1.306,-3.64 2.015,-7.557 2.015,-11.649 l 7.947,0.041 8.174,0.042 c 0,4.04 0.689,7.916 1.964,11.515 2.159,6.107 5.994,11.433 10.96,15.401 0.74,0.607 1.491,1.162 2.282,1.687 0.083,0.061 0.154,0.112 0.237,0.164 0.37,0.247 0.74,0.493 1.131,0.72 0.421,0.257 0.853,0.514 1.285,0.751 0.072,0.02 0.134,0.051 0.185,0.092 0.905,0.504 1.799,1.028 2.673,1.573 0.422,0.257 0.843,0.524 1.254,0.822 0.854,0.545 1.686,1.142 2.499,1.759 0,0.01 0.01,0.01 0.01,0.01 h 0.01 c 1.039,0.771 2.046,1.594 3.033,2.437 0.987,0.844 1.933,1.727 2.848,2.643 9.911,9.867 16.029,23.501 16.029,38.593 z"
             style="fill:#ecc19c"
             inkscape:connector-curvature="0" />
          <path
             id="path4941"
             clip-path="url(#SVGID_2_)"
             d="M 148.646,200.739 H 39.572 c 0,-6.159 1.018,-12.092 2.91,-17.612 0.339,-0.997 0.71,-1.984 1.11,-2.961 v -0.011 c 0.391,-0.977 0.823,-1.933 1.275,-2.879 1.799,-3.793 4.04,-7.341 6.642,-10.59 0.658,-0.812 1.327,-1.604 2.015,-2.364 0.339,-0.391 0.699,-0.771 1.059,-1.151 0.36,-0.37 0.72,-0.74 1.09,-1.11 1.84,-1.841 3.814,-3.526 5.891,-5.079 1.039,-0.771 2.087,-1.491 3.177,-2.19 0.565,-0.359 1.131,-0.709 1.706,-1.048 0.535,-0.319 1.08,-0.628 1.625,-0.926 0.021,-0.021 0.041,-0.01 0.041,-0.01 v -0.011 c 0.442,-0.247 0.874,-0.493 1.306,-0.751 1.285,-0.781 2.519,-1.645 3.67,-2.591 0.01,0.011 0.01,0.011 0.021,0.021 5.326,5.449 12.739,8.832 20.964,8.853 h 0.083 c 8.225,0 15.668,-3.393 21.015,-8.842 l 0.01,-0.011 c 0.73,0.607 1.491,1.173 2.272,1.697 0.082,0.061 0.154,0.112 0.236,0.164 0.37,0.247 0.751,0.483 1.131,0.72 0.421,0.257 0.854,0.504 1.285,0.74 0.072,0.021 0.124,0.062 0.185,0.093 0.483,0.268 0.977,0.545 1.45,0.832 0.412,0.247 0.823,0.494 1.224,0.751 0.421,0.257 0.843,0.524 1.254,0.822 0.854,0.545 1.686,1.142 2.498,1.759 h 0.021 c 1.038,0.781 2.056,1.594 3.033,2.446 0.987,0.844 1.933,1.728 2.848,2.643 9.91,9.869 16.027,23.502 16.027,38.596 z"
             style="fill:#eb6d4a"
             inkscape:connector-curvature="0" />
          <path
             id="path4943"
             clip-path="url(#SVGID_2_)"
             d="m 135.973,84.05 c 0,0.452 -0.01,0.904 -0.021,1.356 -0.01,0.37 -0.02,0.73 -0.041,1.101 -0.01,0.329 -0.031,0.658 -0.062,0.987 -0.01,0.236 -0.031,0.473 -0.051,0.709 -0.011,0.145 -0.021,0.277 -0.042,0.422 -0.02,0.257 -0.041,0.524 -0.082,0.781 -0.052,0.493 -0.103,0.986 -0.175,1.47 -0.01,0.124 -0.031,0.247 -0.051,0.37 -0.031,0.247 -0.072,0.494 -0.113,0.74 -0.051,0.37 -0.123,0.74 -0.185,1.101 -0.082,0.432 -0.165,0.853 -0.257,1.274 -0.011,0.093 -0.031,0.175 -0.052,0.258 -0.01,0.071 -0.031,0.144 -0.041,0.216 -0.01,0.021 -0.01,0.041 -0.021,0.062 0,0.051 -0.01,0.093 -0.02,0.134 -0.051,0.216 -0.093,0.432 -0.154,0.647 -0.02,0.113 -0.041,0.227 -0.082,0.34 -0.042,0.205 -0.093,0.4 -0.154,0.596 -0.01,0.093 -0.031,0.186 -0.062,0.277 -0.021,0.093 -0.051,0.186 -0.072,0.268 -0.216,0.843 -0.463,1.666 -0.72,2.488 -0.124,0.391 -0.247,0.771 -0.38,1.162 -0.01,0.041 -0.031,0.082 -0.041,0.123 -0.123,0.35 -0.247,0.699 -0.37,1.049 -0.041,0.103 -0.082,0.205 -0.123,0.318 -0.124,0.329 -0.247,0.658 -0.38,0.987 -0.154,0.4 -0.319,0.791 -0.483,1.183 -0.144,0.35 -0.298,0.698 -0.452,1.048 -0.02,0.063 -0.051,0.113 -0.072,0.175 -0.175,0.37 -0.339,0.74 -0.514,1.101 -0.175,0.38 -0.36,0.761 -0.555,1.142 -0.37,0.75 -0.771,1.501 -1.172,2.23 l -0.555,0.987 c -1.584,2.725 -3.341,5.284 -5.254,7.649 -0.257,0.339 -0.524,0.668 -0.802,0.986 -0.38,0.463 -0.771,0.915 -1.162,1.357 -0.35,0.391 -0.699,0.781 -1.059,1.162 -0.987,1.059 -1.995,2.066 -3.023,3.013 -0.206,0.205 -0.421,0.391 -0.637,0.586 -0.35,0.318 -0.699,0.627 -1.059,0.925 -0.277,0.247 -0.565,0.483 -0.854,0.72 -0.74,0.606 -1.48,1.192 -2.231,1.737 -0.308,0.237 -0.627,0.463 -0.946,0.679 -0.514,0.37 -1.039,0.72 -1.563,1.06 -0.288,0.195 -0.586,0.38 -0.884,0.555 -1.049,0.647 -2.108,1.244 -3.157,1.758 -0.257,0.134 -0.514,0.258 -0.771,0.381 -0.257,0.123 -0.524,0.247 -0.802,0.37 -0.339,0.154 -0.679,0.298 -1.018,0.432 -0.134,0.061 -0.267,0.113 -0.401,0.154 -0.401,0.165 -0.812,0.318 -1.213,0.452 -0.503,0.186 -1.018,0.34 -1.521,0.483 -0.35,0.103 -0.709,0.195 -1.059,0.277 -0.021,0.011 -0.041,0.021 -0.072,0.021 -0.35,0.083 -0.699,0.165 -1.049,0.227 -0.092,0.021 -0.185,0.041 -0.277,0.052 -0.288,0.051 -0.576,0.103 -0.864,0.134 -0.411,0.062 -0.823,0.113 -1.234,0.133 -0.144,0.021 -0.277,0.031 -0.421,0.031 -0.329,0.02 -0.658,0.031 -0.977,0.031 h -0.031 c -0.318,0 -0.637,-0.011 -0.956,-0.031 -0.123,0 -0.247,-0.01 -0.37,-0.031 -0.288,-0.01 -0.586,-0.041 -0.895,-0.082 -0.061,0 -0.133,-0.01 -0.195,-0.021 -0.38,-0.051 -0.761,-0.113 -1.151,-0.185 -0.329,-0.052 -0.658,-0.124 -0.998,-0.206 -1.758,-0.401 -3.567,-1.008 -5.397,-1.819 -1.563,-0.689 -3.146,-1.522 -4.719,-2.488 -0.791,-0.473 -1.573,-0.987 -2.365,-1.542 -0.391,-0.278 -0.781,-0.556 -1.172,-0.844 -1.224,-0.895 -2.437,-1.871 -3.629,-2.92 -0.329,-0.298 -0.658,-0.596 -0.987,-0.904 -0.329,-0.298 -0.658,-0.607 -0.977,-0.905 -0.802,-0.771 -1.583,-1.572 -2.344,-2.405 -0.298,-0.319 -0.596,-0.647 -0.895,-0.987 -0.822,-0.925 -1.624,-1.881 -2.385,-2.879 -0.298,-0.359 -0.576,-0.729 -0.853,-1.1 -1.039,-1.378 -2.025,-2.817 -2.951,-4.309 -0.247,-0.4 -0.494,-0.811 -0.73,-1.213 -0.288,-0.483 -0.565,-0.977 -0.843,-1.47 -1.028,-1.851 -1.974,-3.773 -2.796,-5.758 -0.124,-0.288 -0.247,-0.576 -0.35,-0.863 -0.164,-0.37 -0.308,-0.751 -0.442,-1.121 -0.206,-0.545 -0.401,-1.09 -0.586,-1.635 -0.185,-0.545 -0.36,-1.101 -0.535,-1.655 C 54.392,98.609 54.238,98.075 54.094,97.53 53.929,96.954 53.775,96.368 53.641,95.772 53.631,95.71 53.61,95.648 53.6,95.586 53.405,94.764 53.23,93.931 53.076,93.088 52.87,91.978 52.706,90.847 52.583,89.705 52.531,89.346 52.5,88.985 52.47,88.626 52.429,88.245 52.398,87.875 52.377,87.495 52.326,86.806 52.295,86.106 52.274,85.407 52.264,84.955 52.253,84.503 52.253,84.051 l 6.683,13.14 11.484,5.007 13.58,1.222 h 0.01 l 10.065,0.915 h 0.062 l 9.417,0.853 c 0,0 0,-0.01 0.01,0 l 21.005,1.893 z"
             style="fill:#543e36"
             inkscape:connector-curvature="0" />
          <g
             id="g4949"
             clip-path="url(#SVGID_2_)">
            <path
               id="path4945"
               d="m 94.159,90.651 -0.01,10.127 v 0.01 l -0.01,3.548 v 2.786 l -0.01,9.253 v 0.011 l -0.01,-0.011 h -0.01 L 94.078,116.354 53.64,95.771 c -0.01,-0.062 -0.031,-0.124 -0.041,-0.186 -0.195,-0.822 -0.37,-1.655 -0.524,-2.498 -0.206,-1.11 -0.37,-2.241 -0.493,-3.383 -0.052,-0.359 -0.083,-0.72 -0.113,-1.079 -0.041,-0.381 -0.072,-0.751 -0.093,-1.131 -0.051,-0.689 -0.082,-1.389 -0.103,-2.088 -0.01,-0.452 -0.021,-0.904 -0.021,-1.356 V 71.764 c 0,0.175 0.01,0.35 0.01,0.524 0.082,2.971 0.555,6.24 1.47,9.582 0.71,2.57 1.593,4.945 2.622,7.063 v 0.01 c 2.694,5.604 6.303,9.407 9.623,10.024 0.206,0.031 0.421,0.052 0.627,0.072 1.285,0.144 2.632,0.226 4.02,0.226 5.244,0 9.901,-4.215 12.831,-5.922 0.021,-0.01 0.041,-0.021 0.062,-0.03 0.154,-0.093 0.308,-0.186 0.442,-0.278 0.041,-0.03 0.082,-0.051 0.124,-0.071 2.467,-1.409 6.025,-2.304 9.993,-2.313 z"
               style="fill:#543e36"
               inkscape:connector-curvature="0" />
            <path
               id="path4947"
               d="m 135.981,71.759 -0.01,12.286 c 0,3.084 -0.288,6.107 -0.822,9.037 -0.216,1.172 -0.463,2.334 -0.751,3.485 l -9.49,13.705 -30.783,6.097 h -0.01 l -0.01,0.011 v -0.011 L 94.074,90.641 h 0.083 c 3.968,0.011 7.536,0.905 10.003,2.313 0.042,0.021 0.072,0.041 0.113,0.072 0.144,0.092 0.298,0.185 0.453,0.277 0.01,0.01 0.031,0.021 0.051,0.031 2.94,1.706 7.587,5.925 12.831,5.925 1.388,0 2.735,-0.082 4.02,-0.226 0.216,-0.021 0.421,-0.041 0.637,-0.072 3.311,-0.617 6.93,-4.421 9.613,-10.024 v -0.01 c 1.028,-2.118 1.912,-4.493 2.622,-7.063 0.925,-3.394 1.409,-6.704 1.47,-9.716 0.011,-0.132 0.011,-0.256 0.011,-0.389 z"
               style="fill:#543e36"
               inkscape:connector-curvature="0" />
          </g>
          <ellipse
             id="ellipse4951"
             clip-path="url(#SVGID_2_)"
             ry="3.171"
             rx="10.255"
             cy="103.95"
             cx="94.108002"
             style="fill:#ecc19c" />
          <path
             id="path4953"
             clip-path="url(#SVGID_2_)"
             d="m 94.116,10.929 h -0.04 C 70.974,10.95 52.252,29.682 52.252,52.784 V 71.24 c 0,0 1.737,-11.012 6.416,-16.358 5.079,-5.809 3.794,-14.641 15.186,-14.641 7.351,0 7.762,2.714 20.213,2.714 h 0.01 0.04 0.01 c 12.451,0 12.862,-2.714 20.213,-2.714 11.392,0 10.106,8.831 15.186,14.641 4.678,5.346 6.415,16.358 6.415,16.358 V 52.784 C 135.94,29.682 117.218,10.949 94.116,10.929 Z"
             style="fill:#543e36"
             inkscape:connector-curvature="0" />
          <g
             id="g4957"
             clip-path="url(#SVGID_2_)">
            <path
               id="path4955"
               d="m 121.74,153.721 -1.131,1.152 c -7.053,7.186 -16.471,11.145 -26.516,11.145 -10.147,-0.021 -19.545,-3.989 -26.567,-11.165 l -1.08,-1.11 c 0.535,-0.319 1.08,-0.628 1.625,-0.926 0.021,-0.021 0.041,-0.01 0.041,-0.01 v -0.011 c 0.442,-0.247 0.874,-0.493 1.306,-0.751 1.285,-0.781 2.519,-1.645 3.67,-2.591 0.01,0.011 0.01,0.011 0.021,0.021 5.326,5.449 12.739,8.832 20.964,8.853 h 0.083 c 8.225,0 15.668,-3.393 21.015,-8.842 l 0.01,-0.011 c 0.73,0.607 1.491,1.173 2.272,1.697 0.082,0.061 0.154,0.112 0.236,0.164 0.37,0.247 0.751,0.483 1.131,0.72 0.421,0.257 0.854,0.504 1.285,0.74 0.072,0.021 0.124,0.062 0.185,0.093 0.484,0.268 0.977,0.545 1.45,0.832 z"
               style="fill:#c34628"
               inkscape:connector-curvature="0" />
          </g>
        </g>
      </g>
      <g
         id="g4963" />
      <g
         id="g4965" />
      <g
         id="g4967" />
      <g
         id="g4969" />
      <g
         id="g4971" />
      <g
         id="g4973" />
      <g
         id="g4975" />
      <g
         id="g4977" />
      <g
         id="g4979" />
      <g
         id="g4981" />
      <g
         id="g4983" />
      <g
         id="g4985" />
      <g
         id="g4987" />
      <g
         id="g4989" />
      <g
         id="g4991" />
    </g>
    <g
       id="g5122"
       transform="matrix(0.17369216,0,0,0.17369216,142.5612,165.51045)">
      <g
         id="g5055">
        <g
           id="g5053">
          <defs
             id="defs5038">
            <circle
               r="94.073997"
               cy="94.074997"
               cx="94.073997"
               id="circle5095" />
          </defs>
          <clipPath
             id="SVGID_2_-13">
            <use
               id="use5042"
               style="overflow:visible"
               xlink:href="#SVGID_1_-4"
               x="0"
               y="0"
               width="100%"
               height="100%" />
          </clipPath>
          <path
             id="path5045"
             clip-path="url(#SVGID_2_)"
             d="m 126.708,153.946 h -0.02 c -2.041,-1.545 -4.178,-2.919 -6.429,-4.159 -0.058,-0.038 -0.115,-0.076 -0.191,-0.095 -10.646,-5.876 -17.857,-17.209 -17.857,-30.239 L 86.09,119.376 c 0,13.069 -7.269,24.459 -18.01,30.315 0,0 -0.019,0 -0.038,0.019 -2.271,1.24 -4.445,2.633 -6.506,4.159 -13.355,9.94 -21.997,25.832 -21.997,43.766 h 109.07 c 0.001,-17.895 -8.603,-33.75 -21.901,-43.689 z"
             style="fill:#ecc19c"
             inkscape:connector-curvature="0" />
          <path
             id="path5047"
             clip-path="url(#SVGID_2_)"
             d="M 148.609,197.629 H 39.538 c 0,-17.934 8.642,-33.826 21.997,-43.766 2.061,-1.526 4.235,-2.919 6.505,-4.159 0.02,-0.019 0.039,-0.019 0.039,-0.019 1.755,-0.973 3.434,-2.08 4.979,-3.339 5.342,5.476 12.802,8.872 21.063,8.872 8.242,0 15.683,-3.396 21.024,-8.853 1.526,1.259 3.187,2.366 4.922,3.32 0.076,0.019 0.134,0.057 0.191,0.095 2.251,1.24 4.388,2.614 6.429,4.159 h 0.02 c 13.298,9.94 21.902,25.794 21.902,43.69 z"
             style="fill:#168ef7"
             inkscape:connector-curvature="0" />
          <path
             id="path5049"
             clip-path="url(#SVGID_2_)"
             d="m 52.217,38.091 v 42.836 c 0,28.976 25.437,52.465 41.858,52.465 16.419,0 41.858,-23.489 41.858,-52.465 V 38.091 Z"
             style="fill:#ecc19c"
             inkscape:connector-curvature="0" />
          <path
             id="path5051"
             clip-path="url(#SVGID_2_)"
             d="M 129.114,30.207 C 119.991,18.784 106.142,11.481 90.651,11.481 c -27.521,0 -49.81,22.972 -49.81,51.301 0,15.036 6.267,28.556 16.274,37.932 -2.578,-6.47 -4.018,-13.722 -4.018,-21.38 0,-12.307 3.74,-23.578 9.957,-32.246 6.596,2.932 17.286,3.993 29.011,2.376 11.625,-1.592 21.531,-5.433 27.116,-10.007 10.185,8.996 16.806,23.502 16.806,39.877 0,8.39 -1.719,16.275 -4.802,23.199 9.83,-4.069 17.058,-18.574 17.058,-35.835 0,-18.473 -8.289,-33.711 -19.129,-36.491 z"
             style="fill:#494846"
             inkscape:connector-curvature="0" />
        </g>
      </g>
      <g
         id="g5057" />
      <g
         id="g5059" />
      <g
         id="g5061" />
      <g
         id="g5063" />
      <g
         id="g5065" />
      <g
         id="g5067" />
      <g
         id="g5069" />
      <g
         id="g5071" />
      <g
         id="g5073" />
      <g
         id="g5075" />
      <g
         id="g5077" />
      <g
         id="g5079" />
      <g
         id="g5081" />
      <g
         id="g5083" />
      <g
         id="g5085" />
    </g>
    <rect
       style="fill:#000000;fill-opacity:1;stroke-width:0.26458332"
       id="rect5152"
       width="19.84375"
       height="3.4017856"
       x="47.530502"
       y="195.89137" />
    <rect
       style="fill:#000000;fill-opacity:1;stroke-width:0.27603775"
       id="rect5152-5"
       width="21.45015"
       height="3.4254091"
       x="98.936249"
       y="195.96054" />
    <rect
       style="fill:#000000;fill-opacity:1;stroke-width:0.26458332"
       id="rect5152-6"
       width="19.84375"
       height="3.4017856"
       x="149.42863"
       y="195.90611" />
    <rect
       style="fill:#000000;fill-opacity:1;stroke-width:0.29212773"
       id="rect5152-7"
       width="24.190475"
       height="3.4017856"
       x="96.100449"
       y="118.83147" />
  </g>
</svg>
