<?xml version="1.0" encoding="UTF-8" standalone="no"?>
<!-- Generator: Adobe Illustrator 19.0.0, SVG Export Plug-In . SVG Version: 6.00 Build 0)  -->

<svg
   xmlns:dc="http://purl.org/dc/elements/1.1/"
   xmlns:cc="http://creativecommons.org/ns#"
   xmlns:rdf="http://www.w3.org/1999/02/22-rdf-syntax-ns#"
   xmlns:svg="http://www.w3.org/2000/svg"
   xmlns="http://www.w3.org/2000/svg"
   xmlns:sodipodi="http://sodipodi.sourceforge.net/DTD/sodipodi-0.dtd"
   xmlns:inkscape="http://www.inkscape.org/namespaces/inkscape"
   version="1.1"
   id="Capa_1"
   x="0px"
   y="0px"
   viewBox="0 0 511.99882 421.95301"
   xml:space="preserve"
   sodipodi:docname="053-upload.svg"
   width="511.99881"
   height="421.953"
   inkscape:version="0.92.3 (2405546, 2018-03-11)"><metadata
   id="metadata51"><rdf:RDF><cc:Work
       rdf:about=""><dc:format>image/svg+xml</dc:format><dc:type
         rdf:resource="http://purl.org/dc/dcmitype/StillImage" /><dc:title></dc:title></cc:Work></rdf:RDF></metadata><defs
   id="defs49" /><sodipodi:namedview
   pagecolor="#ffffff"
   bordercolor="#666666"
   borderopacity="1"
   objecttolerance="10"
   gridtolerance="10"
   guidetolerance="10"
   inkscape:pageopacity="0"
   inkscape:pageshadow="2"
   inkscape:window-width="1440"
   inkscape:window-height="837"
   id="namedview47"
   showgrid="false"
   fit-margin-top="0"
   fit-margin-left="0"
   fit-margin-right="0"
   fit-margin-bottom="0"
   inkscape:zoom="0.65186535"
   inkscape:cx="8.3617465"
   inkscape:cy="261.09715"
   inkscape:window-x="-8"
   inkscape:window-y="-8"
   inkscape:window-maximized="1"
   inkscape:current-layer="Capa_1" />
<path
   style="fill:#c8f5ff"
   d="m 399.67382,305.363 h 16.165 c 47.586,0 86.162,-38.576 86.162,-86.162 0,-47.586 -38.576,-86.163 -86.162,-86.163 -11.327,0 -22.134,2.208 -32.041,6.181 -9.085,-72.849 -71.225,-129.221 -146.535,-129.221 -77.724,0 -141.424,60.043 -147.247,136.276 -13.834,-0.089 -27.869,3.418 -40.67,10.923 -37.897,22.222 -50.6040001,70.957 -28.383,108.853 15.364,26.202 43.403,40.353 71.772,39.253 v 0.058 h 21.623 z"
   id="path2"
   inkscape:connector-curvature="0" />
<path
   d="m 138.46982,156.275 c -0.256,0 -0.513,-0.01 -0.772,-0.029 -5.507,-0.421 -9.629,-5.226 -9.208,-10.732 2.088,-27.34 14.329,-52.72 34.467,-71.462 20.246,-18.842 46.635,-29.218 74.307,-29.218 5.523,0 9.999,4.477 9.999,9.999 0,5.522 -4.477,9.999 -9.999,9.999 -46.292,0 -85.313,36.109 -88.833,82.204 -0.402,5.247 -4.784,9.239 -9.961,9.239 z"
   id="path4"
   inkscape:connector-curvature="0" />
<path
   d="m 89.60882,315.364 c -31.761,0 -61.13,-16.727 -77.271,-44.254 C 0.23881995,250.476 -3.1001801,226.368 2.9348199,203.223 8.9698199,180.078 23.65582,160.67 44.28782,148.571 c 11.255,-6.601 23.789,-10.644 36.682,-11.887 4.809,-36.127 21.967,-69.394 48.894,-94.454 29.261,-27.232 67.403,-42.23 107.398,-42.23 75.334,0 139.751,53.415 154.512,126.092 7.832,-2.029 15.885,-3.053 24.064,-3.053 53.024,0 96.161,43.138 96.161,96.161 0,53.023 -43.138,96.161 -96.161,96.161 h -16.165 c -5.523,0 -9.999,-4.477 -9.999,-9.999 0,-5.522 4.477,-9.999 9.999,-9.999 h 16.165 c 41.996,0 76.162,-34.166 76.162,-76.162 0,-41.996 -34.166,-76.162 -76.162,-76.162 -9.752,0 -19.281,1.838 -28.318,5.463 -2.878,1.153 -6.129,0.906 -8.8,-0.667 -2.671,-1.575 -4.461,-4.3 -4.845,-7.377 -8.564,-68.673 -67.295,-120.459 -136.613,-120.459 -71.537,0 -131.836,55.802 -137.277,127.038 -0.398,5.215 -4.748,9.237 -9.969,9.237 -0.167,0 -0.338,-0.001 -0.508,-0.001 -12.312,0 -24.442,3.298 -35.104,9.551 -16.025,9.395 -27.431,24.471 -32.118,42.445 -4.688,17.975 -2.094,36.7 7.303,52.725 12.998,22.166 37.048,35.327 62.758,34.318 0.493,-0.019 0.981,-0.001 1.465,0.051 h 20.546 c 5.523,0 9.999,4.477 9.999,9.999 0,5.522 -4.477,9.999 -9.999,9.999 h -21.623 c -0.255,0 -0.509,-0.01 -0.759,-0.028 -0.791,0.021 -1.579,0.031 -2.367,0.031 z"
   id="path6"
   inkscape:connector-curvature="0" />
<path
   d="m 270.51482,68.485 c -2.63,0 -5.21,-1.07 -7.07,-2.93 -1.86,-1.86 -2.93,-4.44 -2.93,-7.07 0,-2.63 1.07,-5.21 2.93,-7.07 1.86,-1.86 4.44,-2.93 7.07,-2.93 2.63,0 5.21,1.07 7.07,2.93 1.86,1.86 2.93,4.44 2.93,7.07 0,2.63 -1.07,5.21 -2.93,7.07 -1.86,1.861 -4.441,2.93 -7.07,2.93 z"
   id="path8"
   inkscape:connector-curvature="0" />
<polygon
   style="fill:#5a55e1;fill-opacity:1"
   points="216.019,328.986 216.019,456.978 296.014,456.978 296.014,328.986 345.501,328.986 256.016,173.995 166.531,328.986 "
   id="polygon10"
   transform="rotate(-180,256.01691,292.974)" />
<path
   d="m 296.01382,351.468 c -2.63,0 -5.21,-1.07 -7.07,-2.93 -1.86,-1.86 -2.93,-4.44 -2.93,-7.07 0,-2.63 1.07,-5.21 2.93,-7.07 1.86,-1.86 4.44,-2.93 7.07,-2.93 2.63,0 5.21,1.07 7.07,2.93 1.86,1.86 2.93,4.44 2.93,7.07 0,2.63 -1.07,5.21 -2.93,7.07 -1.86,1.86 -4.441,2.93 -7.07,2.93 z"
   id="path12"
   inkscape:connector-curvature="0" />
<path
   d="m 216.01982,118.972 h 79.995 c 5.523,0 9.999,4.477 9.999,9.999 v 117.991 h 39.488 c 3.573,0 6.874,1.906 8.659,5 1.787,3.094 1.787,6.906 0,9.999 l -89.485,154.992 c -1.786,3.094 -5.087,5 -8.659,5 -3.572,0 -6.874,-1.906 -8.659,-5 l -89.485,-154.992 c -1.787,-3.094 -1.787,-6.906 0,-9.999 1.786,-3.094 5.087,-5 8.659,-5 h 39.488 v -7.509 c 0,-5.523 4.477,-9.999 9.999,-9.999 5.523,0 9.999,4.477 9.999,9.999 v 17.508 c 0,5.523 -4.477,9.999 -9.999,9.999 h -32.168 l 72.166,124.993 72.166,-124.993 h -32.168 c -5.523,0 -9.999,-4.477 -9.999,-9.999 V 138.969 h -59.996 v 20.988 c 0,5.523 -4.477,9.999 -9.999,9.999 -5.523,0 -9.999,-4.477 -9.999,-9.999 V 128.97 c -0.001,-5.521 4.476,-9.998 9.998,-9.998 z"
   id="path14"
   inkscape:connector-curvature="0" />
<g
   id="g16"
   transform="translate(-1.800524e-4,-45.023)">
</g>
<g
   id="g18"
   transform="translate(-1.800524e-4,-45.023)">
</g>
<g
   id="g20"
   transform="translate(-1.800524e-4,-45.023)">
</g>
<g
   id="g22"
   transform="translate(-1.800524e-4,-45.023)">
</g>
<g
   id="g24"
   transform="translate(-1.800524e-4,-45.023)">
</g>
<g
   id="g26"
   transform="translate(-1.800524e-4,-45.023)">
</g>
<g
   id="g28"
   transform="translate(-1.800524e-4,-45.023)">
</g>
<g
   id="g30"
   transform="translate(-1.800524e-4,-45.023)">
</g>
<g
   id="g32"
   transform="translate(-1.800524e-4,-45.023)">
</g>
<g
   id="g34"
   transform="translate(-1.800524e-4,-45.023)">
</g>
<g
   id="g36"
   transform="translate(-1.800524e-4,-45.023)">
</g>
<g
   id="g38"
   transform="translate(-1.800524e-4,-45.023)">
</g>
<g
   id="g40"
   transform="translate(-1.800524e-4,-45.023)">
</g>
<g
   id="g42"
   transform="translate(-1.800524e-4,-45.023)">
</g>
<g
   id="g44"
   transform="translate(-1.800524e-4,-45.023)">
</g>
<g
   id="g1030"
   transform="matrix(1.2851058,0,0,1.2851058,-956.79087,-155.78041)"
   style="opacity:0.66600001;fill:#ff6565;fill-opacity:1"><g
     id="g970"
     style="fill:#ff6565;fill-opacity:1">
</g><g
     id="g972"
     style="fill:#ff6565;fill-opacity:1">
</g><g
     id="g974"
     style="fill:#ff6565;fill-opacity:1">
</g><g
     id="g976"
     style="fill:#ff6565;fill-opacity:1">
</g><g
     id="g978"
     style="fill:#ff6565;fill-opacity:1">
</g><g
     id="g980"
     style="fill:#ff6565;fill-opacity:1">
</g><g
     id="g982"
     style="fill:#ff6565;fill-opacity:1">
</g><g
     id="g984"
     style="fill:#ff6565;fill-opacity:1">
</g><g
     id="g986"
     style="fill:#ff6565;fill-opacity:1">
</g><g
     id="g988"
     style="fill:#ff6565;fill-opacity:1">
</g><g
     id="g990"
     style="fill:#ff6565;fill-opacity:1">
</g><g
     id="g992"
     style="fill:#ff6565;fill-opacity:1">
</g><g
     id="g994"
     style="fill:#ff6565;fill-opacity:1">
</g><g
     id="g996"
     style="fill:#ff6565;fill-opacity:1">
</g><g
     id="g998"
     style="fill:#ff6565;fill-opacity:1">
</g><g
     id="g1050"
     transform="translate(-5.304014)"
     style="fill:#ff6565;fill-opacity:1"><path
       style="fill:#ff6565;fill-opacity:1;stroke-width:1.57314527"
       inkscape:connector-curvature="0"
       id="path966"
       d="M 1057.7141,240.8079 856.08127,357.22066 c -7.52309,4.34344 -17.14531,1.76634 -21.48956,-5.75811 -4.34425,-7.52445 -1.76497,-17.1461 5.7581,-21.48956 L 1041.9827,213.56023 c 7.5231,-4.34345 17.1453,-1.76634 21.4896,5.75812 4.3442,7.52444 1.7648,17.14609 -5.7582,21.48955 z" /><path
       d="m 840.34983,240.8079 201.63287,116.41276 c 7.5231,4.34344 17.1453,1.76634 21.4896,-5.75811 4.3442,-7.52445 1.7648,-17.1461 -5.7582,-21.48956 L 856.08124,213.56023 c -7.52306,-4.34345 -17.14526,-1.76634 -21.48956,5.75812 -4.34422,7.52444 -1.76493,17.14609 5.75815,21.48955 z"
       id="path1046"
       inkscape:connector-curvature="0"
       style="fill:#ff6565;fill-opacity:1;stroke-width:1.57314527" /></g></g></svg>