<?xml version="1.0" encoding="UTF-8" standalone="no"?>
<!-- Generator: Adobe Illustrator 19.0.0, SVG Export Plug-In . SVG Version: 6.00 Build 0)  -->

<svg
   xmlns:dc="http://purl.org/dc/elements/1.1/"
   xmlns:cc="http://creativecommons.org/ns#"
   xmlns:rdf="http://www.w3.org/1999/02/22-rdf-syntax-ns#"
   xmlns:svg="http://www.w3.org/2000/svg"
   xmlns="http://www.w3.org/2000/svg"
   xmlns:sodipodi="http://sodipodi.sourceforge.net/DTD/sodipodi-0.dtd"
   xmlns:inkscape="http://www.inkscape.org/namespaces/inkscape"
   version="1.1"
   id="Capa_1"
   x="0px"
   y="0px"
   viewBox="0 0 512 472"
   xml:space="preserve"
   sodipodi:docname="002-calendar.svg"
   inkscape:version="0.92.3 (2405546, 2018-03-11)"
   width="512"
   height="472"><metadata
   id="metadata85"><rdf:RDF><cc:Work
       rdf:about=""><dc:format>image/svg+xml</dc:format><dc:type
         rdf:resource="http://purl.org/dc/dcmitype/StillImage" /><dc:title></dc:title></cc:Work></rdf:RDF></metadata><defs
   id="defs83" /><sodipodi:namedview
   pagecolor="#ffffff"
   bordercolor="#666666"
   borderopacity="1"
   objecttolerance="10"
   gridtolerance="10"
   guidetolerance="10"
   inkscape:pageopacity="0"
   inkscape:pageshadow="2"
   inkscape:window-width="1440"
   inkscape:window-height="837"
   id="namedview81"
   showgrid="false"
   inkscape:zoom="0.4609375"
   inkscape:cx="256"
   inkscape:cy="236"
   inkscape:window-x="-8"
   inkscape:window-y="-8"
   inkscape:window-maximized="1"
   inkscape:current-layer="Capa_1"
   fit-margin-top="0"
   fit-margin-left="0"
   fit-margin-right="0"
   fit-margin-bottom="0" />
<path
   style="fill:#ffffff"
   d="M 502,442 V 109.667 C 502,84.446 481.554,64 456.333,64 H 55.667 C 30.446,64 10,84.446 10,109.667 V 442 c 0,11.046 8.954,20 20,20 h 452 c 11.046,0 20,-8.954 20,-20 z"
   id="path2"
   inkscape:connector-curvature="0" />
<path
   style="fill:#5a55e1;fill-opacity:1"
   d="M 456.333,64 H 55.667 C 30.446,64 10,84.446 10,109.667 V 176 H 402.463 502 V 109.667 C 502,84.446 481.555,64 456.333,64 Z"
   id="path4"
   inkscape:connector-curvature="0" />
<path
   style="fill:#f5c86e"
   d="m 96,292 v 0 C 78.327,292 64,277.673 64,260 v 0 c 0,-17.673 14.327,-32 32,-32 v 0 c 17.673,0 32,14.327 32,32 v 0 c 0,17.673 -14.327,32 -32,32 z"
   id="path6"
   inkscape:connector-curvature="0" />
<path
   style="fill:#a5dc69"
   d="m 416,292 v 0 c -17.673,0 -32,-14.327 -32,-32 v 0 c 0,-17.673 14.327,-32 32,-32 v 0 c 17.673,0 32,14.327 32,32 v 0 c 0,17.673 -14.327,32 -32,32 z"
   id="path8"
   inkscape:connector-curvature="0" />
<path
   style="fill:#f5c86e"
   d="m 309.333,292 v 0 c -17.673,0 -32,-14.327 -32,-32 v 0 c 0,-17.673 14.327,-32 32,-32 v 0 c 17.673,0 32,14.327 32,32 v 0 c 0,17.673 -14.326,32 -32,32 z"
   id="path10"
   inkscape:connector-curvature="0" />
<path
   style="fill:#ffffff"
   d="m 202.667,292 v 0 c -17.673,0 -32,-14.327 -32,-32 v 0 c 0,-17.673 14.327,-32 32,-32 v 0 c 17.673,0 32,14.327 32,32 v 0 c 0,17.673 -14.327,32 -32,32 z"
   id="path12"
   inkscape:connector-curvature="0" />
<g
   id="g18"
   transform="translate(0,-20)">
	<path
   style="fill:#f5c86e"
   d="m 96,434 v 0 C 78.327,434 64,419.673 64,402 v 0 c 0,-17.673 14.327,-32 32,-32 v 0 c 17.673,0 32,14.327 32,32 v 0 c 0,17.673 -14.327,32 -32,32 z"
   id="path14"
   inkscape:connector-curvature="0" />
	<path
   style="fill:#f5c86e"
   d="m 309.333,434 v 0 c -17.673,0 -32,-14.327 -32,-32 v 0 c 0,-17.673 14.327,-32 32,-32 v 0 c 17.673,0 32,14.327 32,32 v 0 c 0,17.673 -14.326,32 -32,32 z"
   id="path16"
   inkscape:connector-curvature="0" />
</g>
<path
   style="fill:#a5dc69"
   d="m 416,414 v 0 c -17.673,0 -32,-14.327 -32,-32 v 0 c 0,-17.673 14.327,-32 32,-32 v 0 c 17.673,0 32,14.327 32,32 v 0 c 0,17.673 -14.327,32 -32,32 z"
   id="path20"
   inkscape:connector-curvature="0" />
<g
   id="g26"
   transform="translate(0,-20)">
	<path
   style="fill:#f5c86e"
   d="m 202.667,434 v 0 c -17.673,0 -32,-14.327 -32,-32 v 0 c 0,-17.673 14.327,-32 32,-32 v 0 c 17.673,0 32,14.327 32,32 v 0 c 0,17.673 -14.327,32 -32,32 z"
   id="path22"
   inkscape:connector-curvature="0" />
	<path
   style="fill:#f5c86e"
   d="m 202.667,312 v 0 c -17.673,0 -32,-14.327 -32,-32 v 0 c 0,-17.673 14.327,-32 32,-32 v 0 c 17.673,0 32,14.327 32,32 v 0 c 0,17.673 -14.327,32 -32,32 z"
   id="path24"
   inkscape:connector-curvature="0" />
</g>
<path
   d="m 465.399,183.07 c 1.86,-1.86 2.931,-4.44 2.931,-7.07 0,-2.63 -1.07,-5.21 -2.931,-7.07 -1.859,-1.86 -4.43,-2.93 -7.069,-2.93 -2.63,0 -5.21,1.07 -7.07,2.93 -1.86,1.86 -2.93,4.44 -2.93,7.07 0,2.63 1.069,5.21 2.93,7.07 1.861,1.86 4.44,2.93 7.07,2.93 2.64,0 5.21,-1.07 7.069,-2.93 z"
   id="path28"
   inkscape:connector-curvature="0" />
<path
   d="m 456.333,54 h -11.452 c 1.77,-1.804 2.865,-4.273 2.865,-7 V 34 c 0,-18.748 -15.252,-34 -34,-34 -18.748,0 -34,15.252 -34,34 v 20 h -92.738 c 1.77,-1.804 2.865,-4.273 2.865,-7 V 34 c 0,-18.748 -15.252,-34 -34,-34 -18.748,0 -34,15.252 -34,34 V 54 H 129.135 C 130.905,52.196 132,49.727 132,47 V 34 C 132,15.252 116.748,0 98,0 79.252,0 64,15.252 64,34 V 54 H 55.667 C 24.972,54 0,78.972 0,109.667 V 442 c 0,16.542 13.458,30 30,30 h 172.667 c 5.522,0 10,-4.477 10,-10 0,-5.523 -4.478,-10 -10,-10 H 30 c -5.514,0 -10,-4.486 -10,-10 V 186 h 389.34 c 5.522,0 10,-4.477 10,-10 0,-5.523 -4.478,-10 -10,-10 H 20 V 109.667 C 20,90 36,74 55.667,74 H 64 v 24.168 c 0,18.748 15.252,34 34,34 18.748,0 34,-15.252 34,-34 0,-5.523 -4.478,-10 -10,-10 -5.522,0 -10,4.477 -10,10 0,7.72 -6.28,14 -14,14 -7.72,0 -14,-6.28 -14,-14 V 74 h 137.873 v 24.168 c 0,18.748 15.252,34 34,34 18.748,0 34,-15.252 34,-34 0,-5.523 -4.478,-10 -10,-10 -5.522,0 -10,4.477 -10,10 0,7.72 -6.28,14 -14,14 -7.72,0 -14,-6.28 -14,-14 V 74 h 137.873 v 24.168 c 0,18.748 15.252,34 34,34 18.748,0 34,-15.252 34,-34 0,-5.523 -4.478,-10 -10,-10 -5.522,0 -10,4.477 -10,10 0,7.72 -6.28,14 -14,14 -7.72,0 -14,-6.28 -14,-14 V 74 h 56.587 C 476,74 492,90 492,109.667 V 442 c 0,5.514 -4.486,10 -10,10 H 309.333 c -5.522,0 -10,4.477 -10,10 0,5.523 4.478,10 10,10 H 482 c 16.542,0 30,-13.458 30,-30 V 109.667 C 512,78.972 487.028,54 456.333,54 Z M 84,34 c 0,-7.72 6.28,-14 14,-14 7.72,0 14,6.28 14,14 v 13 c 0,2.727 1.095,5.196 2.865,7 H 84 Z m 157.873,0 c 0,-7.72 6.28,-14 14,-14 7.72,0 14,6.28 14,14 v 13 c 0,2.727 1.095,5.196 2.865,7 h -30.865 z m 157.873,0 c 0,-7.72 6.28,-14 14,-14 7.72,0 14,6.28 14,14 v 13 c 0,2.727 1.095,5.196 2.865,7 h -30.865 z"
   id="path30"
   inkscape:connector-curvature="0" />
<path
   d="m 96,218 c -23.159,0 -42,18.841 -42,42 0,23.159 18.841,42 42,42 23.159,0 42,-18.841 42,-42 0,-23.159 -18.841,-42 -42,-42 z m 0,64 c -12.131,0 -22,-9.869 -22,-22 0,-12.131 9.869,-22 22,-22 12.131,0 22,9.869 22,22 0,12.131 -9.869,22 -22,22 z"
   id="path32"
   inkscape:connector-curvature="0" />
<path
   d="m 416,218 c -23.159,0 -42,18.841 -42,42 0,23.159 18.841,42 42,42 23.159,0 42,-18.841 42,-42 0,-23.159 -18.841,-42 -42,-42 z m 0,64 c -12.131,0 -22,-9.869 -22,-22 0,-12.131 9.869,-22 22,-22 12.131,0 22,9.869 22,22 0,12.131 -9.869,22 -22,22 z"
   id="path34"
   inkscape:connector-curvature="0" />
<path
   d="m 309.333,302 c 23.159,0 42,-18.841 42,-42 0,-23.159 -18.841,-42 -42,-42 -23.159,0 -42,18.841 -42,42 0,23.159 18.841,42 42,42 z m 0,-64 c 12.131,0 22,9.869 22,22 0,12.131 -9.869,22 -22,22 -12.131,0 -22,-9.869 -22,-22 0,-12.131 9.869,-22 22,-22 z"
   id="path36"
   inkscape:connector-curvature="0" />
<path
   d="m 202.667,218 c -23.159,0 -42,18.841 -42,42 0,23.159 18.841,42 42,42 23.159,0 42,-18.841 42,-42 0,-23.159 -18.841,-42 -42,-42 z m 0,64 c -12.131,0 -22,-9.869 -22,-22 0,-12.131 9.869,-22 22,-22 12.131,0 22,9.869 22,22 0,12.131 -9.869,22 -22,22 z"
   id="path38"
   inkscape:connector-curvature="0" />
<path
   d="m 96,340 c -23.159,0 -42,18.841 -42,42 0,23.159 18.841,42 42,42 23.159,0 42,-18.841 42,-42 0,-23.159 -18.841,-42 -42,-42 z m 0,64 c -12.131,0 -22,-9.869 -22,-22 0,-12.131 9.869,-22 22,-22 12.131,0 22,9.869 22,22 0,12.131 -9.869,22 -22,22 z"
   id="path40"
   inkscape:connector-curvature="0" />
<path
   d="m 351.333,382 c 0,-23.159 -18.841,-42 -42,-42 -23.159,0 -42,18.841 -42,42 0,23.159 18.841,42 42,42 23.159,0 42,-18.841 42,-42 z m -64,0 c 0,-12.131 9.869,-22 22,-22 12.131,0 22,9.869 22,22 0,12.131 -9.869,22 -22,22 -12.131,0 -22,-9.869 -22,-22 z"
   id="path42"
   inkscape:connector-curvature="0" />
<path
   d="m 416,424 c 23.159,0 42,-18.841 42,-42 0,-23.159 -18.841,-42 -42,-42 -23.159,0 -42,18.841 -42,42 0,23.159 18.841,42 42,42 z m 0,-64 c 12.131,0 22,9.869 22,22 0,12.131 -9.869,22 -22,22 -12.131,0 -22,-9.869 -22,-22 0,-12.131 9.869,-22 22,-22 z"
   id="path44"
   inkscape:connector-curvature="0" />
<path
   d="m 202.667,340 c -23.159,0 -42,18.841 -42,42 0,23.159 18.841,42 42,42 23.159,0 42,-18.841 42,-42 0,-23.159 -18.841,-42 -42,-42 z m 0,64 c -12.131,0 -22,-9.869 -22,-22 0,-12.131 9.869,-22 22,-22 12.131,0 22,9.869 22,22 0,12.131 -9.869,22 -22,22 z"
   id="path46"
   inkscape:connector-curvature="0" />
<path
   d="m 256,452 c -2.641,0 -5.21,1.07 -7.07,2.93 -1.87,1.86 -2.93,4.44 -2.93,7.07 0,2.63 1.06,5.21 2.93,7.07 1.86,1.86 4.43,2.93 7.07,2.93 2.63,0 5.21,-1.07 7.069,-2.93 1.86,-1.86 2.931,-4.44 2.931,-7.07 0,-2.63 -1.07,-5.21 -2.931,-7.07 C 261.21,453.07 258.63,452 256,452 Z"
   id="path48"
   inkscape:connector-curvature="0" />
<g
   id="g50"
   transform="translate(0,-20)">
</g>
<g
   id="g52"
   transform="translate(0,-20)">
</g>
<g
   id="g54"
   transform="translate(0,-20)">
</g>
<g
   id="g56"
   transform="translate(0,-20)">
</g>
<g
   id="g58"
   transform="translate(0,-20)">
</g>
<g
   id="g60"
   transform="translate(0,-20)">
</g>
<g
   id="g62"
   transform="translate(0,-20)">
</g>
<g
   id="g64"
   transform="translate(0,-20)">
</g>
<g
   id="g66"
   transform="translate(0,-20)">
</g>
<g
   id="g68"
   transform="translate(0,-20)">
</g>
<g
   id="g70"
   transform="translate(0,-20)">
</g>
<g
   id="g72"
   transform="translate(0,-20)">
</g>
<g
   id="g74"
   transform="translate(0,-20)">
</g>
<g
   id="g76"
   transform="translate(0,-20)">
</g>
<g
   id="g78"
   transform="translate(0,-20)">
</g>
</svg>