<?xml version="1.0" encoding="UTF-8" standalone="no"?>
<!-- Generator: Adobe Illustrator 19.0.0, SVG Export Plug-In . SVG Version: 6.00 Build 0)  -->

<svg
   xmlns:dc="http://purl.org/dc/elements/1.1/"
   xmlns:cc="http://creativecommons.org/ns#"
   xmlns:rdf="http://www.w3.org/1999/02/22-rdf-syntax-ns#"
   xmlns:svg="http://www.w3.org/2000/svg"
   xmlns="http://www.w3.org/2000/svg"
   xmlns:sodipodi="http://sodipodi.sourceforge.net/DTD/sodipodi-0.dtd"
   xmlns:inkscape="http://www.inkscape.org/namespaces/inkscape"
   version="1.1"
   id="Capa_1"
   x="0px"
   y="0px"
   viewBox="0 0 512 430"
   xml:space="preserve"
   sodipodi:docname="065-credit-card.svg"
   width="512"
   height="430"
   inkscape:version="0.92.3 (2405546, 2018-03-11)"><metadata
   id="metadata59"><rdf:RDF><cc:Work
       rdf:about=""><dc:format>image/svg+xml</dc:format><dc:type
         rdf:resource="http://purl.org/dc/dcmitype/StillImage" /><dc:title></dc:title></cc:Work></rdf:RDF></metadata><defs
   id="defs57" /><sodipodi:namedview
   pagecolor="#ffffff"
   bordercolor="#666666"
   borderopacity="1"
   objecttolerance="10"
   gridtolerance="10"
   guidetolerance="10"
   inkscape:pageopacity="0"
   inkscape:pageshadow="2"
   inkscape:window-width="1440"
   inkscape:window-height="837"
   id="namedview55"
   showgrid="false"
   fit-margin-top="0"
   fit-margin-left="0"
   fit-margin-right="0"
   fit-margin-bottom="0"
   inkscape:zoom="0.4609375"
   inkscape:cx="256"
   inkscape:cy="215"
   inkscape:window-x="-8"
   inkscape:window-y="-8"
   inkscape:window-maximized="1"
   inkscape:current-layer="Capa_1" />
<path
   style="fill:#5a55e1;fill-opacity:1"
   d="m 41.236,326.032 h 169.96 219.569 c 17.251,0 31.236,-13.985 31.236,-31.236 V 41.236 C 462,23.985 448.015,10 430.764,10 H 41.236 C 23.985,10 10,23.985 10,41.236 v 253.561 c 0,17.251 13.985,31.235 31.236,31.235 z"
   id="path2"
   inkscape:connector-curvature="0" />
<rect
   x="10"
   y="72"
   style="fill:#bebebe"
   width="452"
   height="77"
   id="rect4" />
<circle
   style="fill:#e6aa46"
   cx="141.13"
   cy="237.22"
   r="40.419998"
   id="circle6" />
<circle
   style="fill:#ff5a5a"
   cx="90.720001"
   cy="237.22"
   r="40.419998"
   id="circle8" />
<path
   style="fill:#fae196"
   d="m 100.709,237.216 c 0,12.789 5.945,24.182 15.216,31.589 9.27,-7.407 15.216,-18.801 15.216,-31.589 0,-12.788 -5.945,-24.182 -15.216,-31.589 -9.27,7.407 -15.216,18.801 -15.216,31.589 z"
   id="path10"
   inkscape:connector-curvature="0" />
<circle
   style="fill:#f5c86e"
   cx="384"
   cy="302"
   r="118"
   id="circle12" />
<path
   d="m 141.132,186.794 c -9.179,0 -17.786,2.478 -25.207,6.781 -7.422,-4.304 -16.028,-6.781 -25.207,-6.781 -27.803,0 -50.423,22.62 -50.423,50.422 0,27.803 22.62,50.423 50.423,50.423 9.179,0 17.786,-2.478 25.207,-6.781 7.422,4.304 16.028,6.781 25.207,6.781 27.803,0 50.422,-22.62 50.422,-50.423 0.001,-27.802 -22.619,-50.422 -50.422,-50.422 z m -25.207,67.438 c -3.291,-4.86 -5.216,-10.717 -5.216,-17.016 0,-6.299 1.924,-12.156 5.216,-17.016 3.291,4.86 5.216,10.717 5.216,17.016 0,6.299 -1.925,12.156 -5.216,17.016 z m -55.63,-17.016 c 0,-16.775 13.647,-30.422 30.423,-30.422 3.207,0 6.297,0.502 9.202,1.426 -5.793,8.209 -9.21,18.208 -9.21,28.996 0,10.789 3.417,20.788 9.21,28.997 -2.904,0.924 -5.995,1.426 -9.202,1.426 -16.776,0 -30.423,-13.647 -30.423,-30.423 z m 80.837,30.423 c -3.207,0 -6.297,-0.502 -9.202,-1.426 5.793,-8.209 9.21,-18.208 9.21,-28.997 0,-10.788 -3.417,-20.788 -9.21,-28.996 2.905,-0.924 5.995,-1.426 9.202,-1.426 16.775,0 30.422,13.647 30.422,30.422 0.001,16.776 -13.647,30.423 -30.422,30.423 z"
   id="path14"
   inkscape:connector-curvature="0" />
<path
   d="m 471.94,209.079 c 0.038,-0.355 0.06,-0.715 0.06,-1.08 v -59 -77 -30.763 C 472,18.499 453.501,0 430.764,0 H 277.667 c -5.523,0 -10,4.477 -10,10 0,5.523 4.477,10 10,10 H 430.764 C 442.474,20 452,29.526 452,41.236 V 62 H 20 V 41.236 C 20,29.526 29.526,20 41.236,20 H 194 c 5.523,0 10,-4.477 10,-10 C 204,4.477 199.523,0 194,0 H 41.236 C 18.499,0 0,18.499 0,41.236 V 72 149 294.797 c 0,22.737 18.499,41.235 41.236,41.235 h 219.407 c 10.873,39.147 40.071,71.818 79.346,86.198 1.135,0.416 2.296,0.613 3.438,0.613 4.078,0 7.908,-2.513 9.391,-6.564 1.899,-5.187 -0.766,-10.93 -5.952,-12.829 C 304.479,387.93 276,347.16 276,302 c 0,-59.551 48.449,-108 108,-108 59.551,0 108,48.449 108,108 0,44.402 -26.627,83.768 -67.835,100.288 -5.126,2.055 -7.616,7.876 -5.561,13.003 2.055,5.127 7.875,7.616 13.003,5.561 23.459,-9.405 43.467,-25.415 57.859,-46.299 C 504.208,353.16 512,328.072 512,302 512,265.446 496.595,232.425 471.94,209.079 Z M 452,82 v 57 H 20 V 82 Z M 256,302 c 0,4.725 0.277,9.406 0.791,14.032 H 41.236 C 29.527,316.032 20,306.506 20,294.797 V 159 h 432 v 34.605 C 432.285,181.193 408.968,174 384,174 313.42,174 256,231.42 256,302 Z"
   id="path16"
   inkscape:connector-curvature="0" />
<path
   d="m 427.379,333.227 c 0,-22.218 -19.46,-40.294 -43.379,-40.294 -12.892,0 -23.379,-9.104 -23.379,-20.293 0,-11.189 10.488,-20.293 23.379,-20.293 12.891,0 23.379,9.104 23.379,20.293 0,5.523 4.477,10 10,10 5.523,0 10,-4.477 10,-10 0,-19.021 -14.267,-34.994 -33.379,-39.201 v -9.855 c 0,-5.523 -4.477,-10 -10,-10 -5.523,0 -10,4.477 -10,10 v 9.855 c -19.113,4.207 -33.379,20.18 -33.379,39.201 0,22.218 19.46,40.293 43.379,40.293 12.892,0 23.379,9.104 23.379,20.294 0,11.19 -10.487,20.293 -23.379,20.293 -12.892,0 -23.379,-9.104 -23.379,-20.293 0,-5.523 -4.477,-10 -10,-10 -5.523,0 -10,4.477 -10,10 0,19.021 14.267,34.994 33.379,39.201 v 7.99 c 0,5.523 4.477,10 10,10 5.523,0 10,-4.477 10,-10 v -7.99 c 19.113,-4.207 33.379,-20.181 33.379,-39.201 z"
   id="path18"
   inkscape:connector-curvature="0" />
<path
   d="m 384,410 c -2.63,0 -5.21,1.07 -7.07,2.93 -1.86,1.86 -2.93,4.44 -2.93,7.07 0,2.63 1.07,5.21 2.93,7.07 1.86,1.86 4.44,2.93 7.07,2.93 2.63,0 5.21,-1.07 7.07,-2.93 1.86,-1.86 2.93,-4.44 2.93,-7.07 0,-2.63 -1.07,-5.21 -2.93,-7.07 C 389.21,411.07 386.63,410 384,410 Z"
   id="path20"
   inkscape:connector-curvature="0" />
<path
   d="m 238.33,20 c 2.64,0 5.21,-1.07 7.08,-2.93 1.86,-1.86 2.92,-4.44 2.92,-7.07 0,-2.63 -1.06,-5.21 -2.92,-7.07 C 243.54,1.07 240.97,0 238.33,0 c -2.63,0 -5.21,1.07 -7.07,2.93 -1.86,1.86 -2.93,4.44 -2.93,7.07 0,2.63 1.07,5.21 2.93,7.07 1.86,1.86 4.44,2.93 7.07,2.93 z"
   id="path22"
   inkscape:connector-curvature="0" />
<g
   id="g24"
   transform="translate(0,-41)">
</g>
<g
   id="g26"
   transform="translate(0,-41)">
</g>
<g
   id="g28"
   transform="translate(0,-41)">
</g>
<g
   id="g30"
   transform="translate(0,-41)">
</g>
<g
   id="g32"
   transform="translate(0,-41)">
</g>
<g
   id="g34"
   transform="translate(0,-41)">
</g>
<g
   id="g36"
   transform="translate(0,-41)">
</g>
<g
   id="g38"
   transform="translate(0,-41)">
</g>
<g
   id="g40"
   transform="translate(0,-41)">
</g>
<g
   id="g42"
   transform="translate(0,-41)">
</g>
<g
   id="g44"
   transform="translate(0,-41)">
</g>
<g
   id="g46"
   transform="translate(0,-41)">
</g>
<g
   id="g48"
   transform="translate(0,-41)">
</g>
<g
   id="g50"
   transform="translate(0,-41)">
</g>
<g
   id="g52"
   transform="translate(0,-41)">
</g>
</svg>