<svg xmlns="http://www.w3.org/2000/svg" width="86" height="62" viewBox="0 0 86 62">
  <g fill="none" fill-rule="evenodd" transform="translate(1 1)">
    <path fill="#75C20F" fill-opacity=".4" stroke="#1C2943" stroke-linecap="round" stroke-linejoin="round" stroke-width="2" d="M67.2339357,60 L67.2339357,48.5813115 L75.875886,48.5813115 L75.875886,31.5307191 L84,31.5307191 C77.9739845,21.9572558 73.7029277,14.8601464 71.1868298,10.2393907 C67.4126828,3.30825719 58.527925,-0.0906498663 52,0.0018374005 C49.4409825,0.0380934133 50.5173578,15.5869194 55.229126,46.6483154 L55.229126,60"/>
    <path fill="#FFF" d="M55.2339357,60 L55.2339357,48.5813115 L63.875886,48.5813115 L63.875886,31.5307191 L72,31.5307191 C65.9739845,21.9572558 61.7029277,14.8601464 59.1868298,10.2393907 C55.4126828,3.30825719 46.527925,-0.0906498663 40,0.0018374005"/>
    <path fill="#2893F9" fill-opacity=".4" stroke="#1C2943" stroke-linecap="round" stroke-linejoin="round" stroke-width="2" d="M55.2339357,60 L55.2339357,48.5813115 L63.875886,48.5813115 L63.875886,31.5307191 L72,31.5307191 C65.9739845,21.9572558 61.7029277,14.8601464 59.1868298,10.2393907 C55.4126828,3.30825719 46.527925,-0.0906498663 40,0.0018374005 C37.4538611,0.0379109498 37.238407,15.3903665 39.3536377,46.0592041 L39.1505127,60"/>
    <path fill="#FFF" stroke="#1C2943" stroke-linecap="round" stroke-linejoin="round" stroke-width="2" d="M39.2440258,60 L39.2440258,48.5813115 L51.875886,48.5813115 L51.875886,31.5307191 L60,31.5307191 C53.9739845,21.9572558 49.7029277,14.8601464 47.1868298,10.2393907 C43.4126828,3.30825719 34.527925,-0.0906498663 28,0.0018374005"/>
    <g stroke="#1C2943" stroke-width="2">
      <circle cx="3" cy="12" r="3" fill="#FFF"/>
      <polyline stroke-linecap="round" points="18 6 18 12.372 30.984 12.372"/>
      <circle cx="18" cy="3" r="3" fill="#2893F9" fill-opacity=".448"/>
      <circle cx="18" cy="34" r="3" fill="#FFF"/>
      <circle cx="7" cy="46" r="3" fill="#75C20F" fill-opacity=".397"/>
      <circle cx="23" cy="57" r="3" fill="#FFF"/>
      <polyline stroke-linecap="round" points="2.958 15.301 2.958 23.339 17.536 23.339 38.898 23.339"/>
      <path stroke-linecap="round" d="M18 30.0728549L18 24M23 53.0728549L23 47M11 46L31 46"/>
    </g>
  </g>
</svg>
